<?xml version="1.0" encoding="utf-8"?>
<!-- Generator: Adobe Illustrator 23.0.1, SVG Export Plug-In . SVG Version: 6.00 Build 0)  -->
<svg version="1.1" id="レイヤー_1" xmlns="http://www.w3.org/2000/svg" xmlns:xlink="http://www.w3.org/1999/xlink" x="0px"
	 y="0px" viewBox="0 0 36 36" style="enable-background:new 0 0 36 36;" xml:space="preserve">
<style type="text/css">
	.st0{fill:#CCD6DD;}
	.st1{fill:#F5F8FA;}
</style>
<path class="st0" d="M18.4,18c2.7,2.7-4,15.5-5.2,16.8c-1.1,1-4.2,1-5.2-1s-4.2,0-5.2-1c-2.1-2.1,1-3.1,0-5.2s-3.2-3.1-1-5.2
	s7.4-1,10.5-3.1S17.4,17,18.4,18z"/>
<path class="st1" d="M17.3,19.9c0-0.1-0.1-0.1-0.1-0.2c0-0.1,0-0.1-0.1-0.2c-0.2-0.2-0.4-0.4-0.7-0.4h0c-0.1,0-0.3,0-0.4,0
	c-0.1,0-0.2,0.1-0.2,0.1c0,0-0.1,0-0.1,0.1c-0.1,0.1-0.2,0.2-0.3,0.3c-2.9,4.9-9.9,7.9-10,8c-0.5,0.2-0.8,0.8-0.6,1.4
	c0.2,0.4,0.6,0.6,1,0.6c0.1,0,0.3,0,0.4-0.1c0.2-0.1,4.1-1.8,7.4-4.7c-2.1,3.8-5.2,6-5.3,6c-0.5,0.3-0.6,1-0.3,1.5
	c0.2,0.3,0.5,0.5,0.9,0.5c0.2,0,0.4-0.1,0.6-0.2c0.3-0.2,6.7-4.5,7.8-12.3C17.4,20.1,17.4,20,17.3,19.9z"/>
</svg>
