<?xml version="1.0" encoding="utf-8"?>
<!-- Generator: Adobe Illustrator 23.0.1, SVG Export Plug-In . SVG Version: 6.00 Build 0)  -->
<svg version="1.1" xmlns="http://www.w3.org/2000/svg" xmlns:xlink="http://www.w3.org/1999/xlink" x="0px"
	 y="0px" viewBox="0 0 36 36" width="36px" height="36px" style="enable-background:new 0 0 36 36;" xml:space="preserve">
<path fill="#5DADEC" d="M23.8,0.3c-1.1-0.1-2.2-0.1-3.3-0.2c2.1,0.3,4.2,1,6,1.9c0.1,0,0.2,0.1,0.2,0.1c1.2,0.3,2.2,0.6,2.9,1
	c0.8,0.4,1.3,0.9,1.3,1.4c0,1.9-6,2.7-12.9,2.7S5.1,6.5,5.1,4.6c0-0.5,0.5-1,1.3-1.4c0.7-0.4,1.7-0.7,2.8-0.9
	c0.2-0.1,0.4-0.2,0.6-0.3c1.8-0.9,3.7-1.5,5.7-1.8c-1.1,0-2.3,0.1-3.3,0.2C5.3,0.9,0.2,2.5,0.2,5.3c0,3.6,8.3,5.8,17.8,5.8
	s17.8-2.2,17.8-5.8C35.8,2.5,30.7,0.9,23.8,0.3z"/>
</svg>
