<?xml version="1.0" encoding="utf-8"?>
<!-- Generator: Adobe Illustrator 23.0.1, SVG Export Plug-In . SVG Version: 6.00 Build 0)  -->
<svg version="1.1" xmlns="http://www.w3.org/2000/svg" xmlns:xlink="http://www.w3.org/1999/xlink" x="0px"
	 y="0px" viewBox="0 0 36 36" width="36px" height="36px" style="enable-background:new 0 0 36 36;" xml:space="preserve">
<path fill="#FFAC33" d="M34.2,25.8c-0.2-0.8-0.8-1.5-1.6-1.9c-0.9-0.4-2-0.4-2.8,0.1c-0.2-0.9-0.8-1.8-1.7-2.2
	c-1.5-0.7-3.3-0.1-4.1,1.4c-0.1,0.2-0.2,0.4-0.2,0.7c-0.8,2.6,0.6,6.3,2.2,7.9c1.2,0.1,3-0.2,4.5-0.9C32,29.4,33.3,27.7,34.2,25.8z"
	/>
<path fill="#DD2E44" d="M35.7,27.2c0.7-1.5,0.1-3.3-1.4-4.1c-0.9-0.4-2-0.4-2.8,0.1c-0.2-0.9-0.8-1.8-1.7-2.2c-1.5-0.7-3.3-0.1-4.1,1.4
	c-0.1,0.2-0.2,0.4-0.2,0.7c-0.8,2.6,0.6,6.3,2.2,7.9c2.2,0.2,6.1-1,7.6-3.2C35.4,27.6,35.5,27.4,35.7,27.2z"/>
</svg>
