<?xml version="1.0" encoding="utf-8"?>
<!-- Generator: Adobe Illustrator 23.0.1, SVG Export Plug-In . SVG Version: 6.00 Build 0)  -->
<svg version="1.1" xmlns="http://www.w3.org/2000/svg" xmlns:xlink="http://www.w3.org/1999/xlink" x="0px"
	 y="0px" viewBox="0 0 36 36" width="36px" height="36px" style="enable-background:new 0 0 36 36;" xml:space="preserve">
<path fill="#642116" d="M18,31.5c2.7,0,5-1.4,5.9-3.3c0.4-0.8-0.2-1.7-1.2-1.7h-9.5c-0.9,0-1.5,0.9-1.2,1.7C13,30.1,15.3,31.5,18,31.5z
	"/>
<path fill="#BF6952" d="M36,36l-14-4l3-6l11,2V36z M0,36l14-4l-3-6L0,28V36z"/>
<path fill="#D79E84" d="M12.4,25c0,0,0.1-1.3,0.1-2.7c0-1.9-2.6-2.9-3.4-1.1c-1,2.2-2.2,7.4-1.5,9.7s2.5,4,6.6,3.8s7.6-0.9,8.7-1.6
	s0.8-2.4-0.4-2.7c-1.1-0.2-4.2,0.2-4.2,0.2s3.3-0.7,4.2-1.3c1.2-0.8,0.6-2.6-0.7-2.6c-1.2,0-4.2,0.5-4.2,0.5s2.8-0.8,3.8-1.5
	c0.9-0.8,0.6-2.5-1-2.5S13.9,24.2,12.4,25z"/>
<path fill="#BF6952" d="M13.8,35.2c-3.5,0-5.8-1.4-6.7-4.2c-0.8-2.5,0.6-7.9,1.5-10c0.4-0.9,1.3-1.4,2.3-1.2c1,0.2,2,1.1,2,2.5
	c0,0.7,0,1.4,0,1.9c2.1-0.8,6-1.6,7.4-1.5c0.9,0,1.6,0.5,1.9,1.3c0.3,0.8,0,1.6-0.6,2.1c-0.1,0.1-0.2,0.1-0.2,0.2c0.1,0,0.3,0,0.4,0
	c0.8,0,1.5,0.6,1.7,1.4c0.2,0.8-0.1,1.6-0.8,2.1c-0.1,0-0.1,0.1-0.2,0.1l0.1,0c0.8,0.2,1.3,0.8,1.5,1.5c0.1,0.8-0.2,1.6-0.9,2
	c-1.1,0.7-4.6,1.5-8.9,1.7C14.1,35.2,13.9,35.2,13.8,35.2z M10.5,20.8c-0.3,0-0.7,0.1-0.9,0.7c-1,2.3-2.1,7.3-1.4,9.3
	c0.8,2.5,2.8,3.6,6.1,3.5c3.9-0.1,7.4-0.9,8.4-1.5c0.4-0.3,0.5-0.7,0.4-1C23,31.3,22.8,31,22.4,31c-0.8-0.2-3.2,0.1-4,0.3
	c-0.3,0-0.5-0.1-0.6-0.4c0-0.3,0.1-0.5,0.4-0.6c0.9-0.2,3.3-0.8,4-1.2c0.5-0.3,0.5-0.8,0.4-1c-0.1-0.3-0.4-0.7-0.8-0.7
	c-1.2,0-4.1,0.5-4.1,0.5c-0.3,0-0.5-0.1-0.6-0.4c-0.1-0.3,0.1-0.5,0.4-0.6c0.8-0.2,2.9-0.8,3.6-1.4c0.3-0.2,0.4-0.7,0.3-1
	c-0.1-0.2-0.3-0.6-1-0.6c-1.5-0.1-6.2,0.9-7.7,1.7c-0.2,0.1-0.4,0.1-0.5,0c-0.2-0.1-0.2-0.3-0.2-0.5c0,0,0.1-1.3,0.1-2.7
	c0-0.8-0.6-1.4-1.2-1.5C10.7,20.8,10.6,20.8,10.5,20.8z"/>
<path fill="#D79E84" d="M23.6,25c0,0-0.1-1.3-0.1-2.7c0-1.9,2.6-2.9,3.4-1.1c1,2.2,2.2,7.4,1.5,9.7s-2.5,4-6.6,3.8s-7.6-0.9-8.7-1.6
	s-0.8-2.4,0.4-2.7c1.1-0.2,4.2,0.2,4.2,0.2s-3.3-0.7-4.2-1.3c-1.2-0.8-0.6-2.6,0.7-2.6c1.2,0,4.2,0.5,4.2,0.5s-2.8-0.8-3.8-1.5
	c-0.9-0.8-0.6-2.5,1-2.5S22.1,24.2,23.6,25z"/>
<path fill="#BF6952" d="M22.2,35.2c-0.1,0-0.3,0-0.4,0c-4.3-0.1-7.8-1-8.9-1.7c-0.7-0.4-1-1.2-0.9-2c0.1-0.8,0.7-1.4,1.5-1.5l0.1,0
	c-0.1,0-0.1-0.1-0.2-0.1c-0.7-0.5-1.1-1.3-0.8-2.1c0.2-0.8,0.9-1.4,1.7-1.4c0.1,0,0.2,0,0.4,0c-0.1-0.1-0.2-0.1-0.2-0.2
	c-0.6-0.5-0.8-1.4-0.6-2.1c0.3-0.8,1-1.3,1.9-1.3c1.4,0,5.3,0.7,7.4,1.5c0-0.5,0-1.2,0-1.9c0-1.4,1-2.3,2-2.5c1-0.2,1.9,0.3,2.3,1.2
	c0.9,2.1,2.3,7.5,1.5,10C28,33.8,25.7,35.2,22.2,35.2z M14.4,30.9c-0.3,0-0.6,0-0.8,0.1c-0.4,0.1-0.6,0.4-0.7,0.7
	c-0.1,0.3,0,0.7,0.4,1c1,0.6,4.5,1.4,8.4,1.5c3.3,0.1,5.3-1,6.1-3.5c0.6-2-0.4-7-1.5-9.3c-0.3-0.7-0.9-0.7-1.2-0.6
	c-0.6,0.1-1.2,0.7-1.2,1.5c0,1.4,0.1,2.7,0.1,2.7c0,0.2-0.1,0.4-0.2,0.5c-0.2,0.1-0.4,0.1-0.5,0c-1.4-0.8-6.2-1.8-7.7-1.7
	c-0.7,0-0.9,0.4-1,0.6c-0.1,0.4,0,0.8,0.3,1c0.7,0.6,2.8,1.2,3.6,1.4c0.3,0.1,0.4,0.3,0.4,0.6c-0.1,0.3-0.3,0.4-0.6,0.4
	c0,0-3-0.5-4.1-0.5c-0.4,0-0.7,0.4-0.8,0.7c-0.1,0.2-0.1,0.7,0.4,1c0.7,0.4,3.1,1,4,1.2c0.3,0.1,0.4,0.3,0.4,0.6s-0.3,0.4-0.6,0.4
	C17,31.1,15.4,30.9,14.4,30.9z"/>
<path fill="#9B3C07" d="M9.6,21.3c-0.3-0.2-0.6-0.4-0.8-0.6c-0.1,0.1-0.1,0.2-0.2,0.4c-0.5,1.2-1.2,3.5-1.5,5.7L5,27.2l3,0.9l0.2-1.3
	c0.3-2,0.9-4.1,1.4-5.4C9.6,21.4,9.6,21.3,9.6,21.3z M28.9,26.8c-0.3-2.2-1-4.6-1.5-5.8c-0.1-0.1-0.1-0.3-0.2-0.4
	c-0.3,0.2-0.5,0.4-0.8,0.6c0,0.1,0.1,0.1,0.1,0.2c0.7,1.6,1.4,4.4,1.6,6.6l3-0.9L28.9,26.8z"/>
</svg>
