<?xml version="1.0" encoding="utf-8"?>
<!-- Generator: Adobe Illustrator 23.0.1, SVG Export Plug-In . SVG Version: 6.00 Build 0)  -->
<svg version="1.1" xmlns="http://www.w3.org/2000/svg" xmlns:xlink="http://www.w3.org/1999/xlink" x="0px"
	 y="0px" viewBox="0 0 36 36" width="36px" height="36px" style="enable-background:new 0 0 36 36;" xml:space="preserve">
<path fill="#292F33" d="M34.8,9.6c-0.2-0.2-1.3,0.3-2.4-0.3C30.1,8.2,24.4,7,20.6,9.7C20.2,10,18.5,10,18,10c-0.5,0-2.2,0-2.6-0.3
	C11.7,7,5.9,8.2,3.6,9.3C2.5,9.9,1.4,9.5,1.3,9.6C1,9.9,1,10.8,1.3,11.1c0.2,0.2,1.5,0.5,1.7,1.2c0.2,0.7,0.2,5,2.2,6.4
	c1.8,1.4,6.1,1.8,8.8,0.2c2.4-1.3,2.3-4.2,2.7-5.9c0.2-0.6,0.6-0.9,1.3-0.9s1.1,0.3,1.3,0.9c0.4,1.7,0.4,4.5,2.7,5.9
	c2.7,1.5,7,1.1,8.8-0.2c2-1.5,2-5.7,2.2-6.4c0.2-0.7,1.5-1,1.7-1.2C35.1,10.8,35.1,9.9,34.8,9.6z M14.6,13.3c-0.1,1.1-0.3,3.2-1.6,4
	c-0.8,0.5-1.9,0.7-3,0.7h0c-1.2,0-2.9-0.3-3.6-0.8C5.6,16.5,5.3,14,5.2,13c-0.1-0.6-0.3-2.1,0.4-2.3c1.1-0.4,2.5-0.6,4.1-0.6
	c0.7,0,3,0,4.2,0.7C14.8,11.4,14.7,12.7,14.6,13.3z M30.9,13c-0.1,1-0.4,3.5-1.3,4.1C29,17.7,27.3,18,26,18h0c-1.1,0-2.2-0.3-3-0.7
	c-1.3-0.8-1.5-2.9-1.6-4c0-0.6-0.2-1.9,0.8-2.5c1.1-0.7,3.5-0.7,4.2-0.7c1.5,0,3,0.3,4.1,0.6C31.2,10.9,31,12.4,30.9,13z"/>
</svg>
