<?xml version="1.0" encoding="utf-8"?>
<!-- Generator: Adobe Illustrator 23.0.1, SVG Export Plug-In . SVG Version: 6.00 Build 0)  -->
<svg version="1.1" xmlns="http://www.w3.org/2000/svg" xmlns:xlink="http://www.w3.org/1999/xlink" x="0px"
	 y="0px" viewBox="0 0 36 36" width="36px" height="36px" style="enable-background:new 0 0 36 36;" xml:space="preserve">
<path fill="#FFAC33" d="M21.2,3.9c0,0.2,0,0.5,0.1,0.7c0.4,2.6,3.4,5.4,5.5,6.2c1.7-0.6,3.8-2.5,4.9-4.5c-2.1-2.4-4.8-4.3-7.9-5.4
	C22.3,1.2,21.2,2.4,21.2,3.9z M13.7,29.1c0.1-0.2,0.1-0.5,0.1-0.8c0-1.8-1.5-3.3-3.3-3.3c-1.1,0-2.1,0.5-2.7,1.4
	C7.2,25.6,6.2,25,5.1,25c-1.2,0-2.3,0.7-2.9,1.7c1.8,3.3,4.7,6,8.1,7.6C11.9,32.9,13.4,31,13.7,29.1z M34.3,25.6
	c-0.3-1-1.2-1.6-2.2-1.6c-0.8,0-1.5,0.4-1.9,1c-0.4-0.6-1.1-1-1.9-1c-1.3,0-2.3,1-2.3,2.3c0,0.2,0,0.4,0.1,0.5
	c0.3,1.9,2.3,3.9,3.9,4.6C31.8,29.8,33.3,27.8,34.3,25.6z"/>
<path fill="#DD2E44" d="M33.6,3.3c0-1.7-1.4-3.1-3.1-3.1c-1,0-1.9,0.5-2.5,1.3c-0.6-0.8-1.5-1.3-2.5-1.3c-1.7,0-3.1,1.4-3.1,3.1
	c0,0.2,0,0.5,0.1,0.7c0.4,2.6,3.4,5.4,5.5,6.2c2.1-0.8,5-3.6,5.5-6.2C33.6,3.7,33.6,3.5,33.6,3.3z M12.2,28.4c0-1.8-1.5-3.3-3.3-3.3
	c-1.1,0-2.1,0.5-2.7,1.4c-0.6-0.8-1.6-1.4-2.7-1.4c-1.8,0-3.3,1.5-3.3,3.3c0,0.3,0,0.5,0.1,0.8C0.7,32,3.9,35,6.2,35.9
	c2.3-0.8,5.5-3.8,5.9-6.7C12.2,28.9,12.2,28.7,12.2,28.4z M35.9,26.1c0-1.3-1-2.3-2.3-2.3c-0.8,0-1.5,0.4-1.9,1
	c-0.4-0.6-1.1-1-1.9-1c-1.3,0-2.3,1-2.3,2.3c0,0.2,0,0.4,0.1,0.5c0.3,2,2.5,4.1,4.1,4.6c1.6-0.6,3.8-2.7,4.1-4.6
	C35.9,26.5,35.9,26.3,35.9,26.1z"/>
</svg>
