<?xml version="1.0" encoding="utf-8"?>
<!-- Generator: Adobe Illustrator 23.0.1, SVG Export Plug-In . SVG Version: 6.00 Build 0)  -->
<svg version="1.1" xmlns="http://www.w3.org/2000/svg" xmlns:xlink="http://www.w3.org/1999/xlink" x="0px"
	 y="0px" viewBox="0 0 36 36" width="36px" height="36px" style="enable-background:new 0 0 36 36;" xml:space="preserve">
<path fill="#DD2E44" d="M16.6,3.3c-0.9-2.4-3.5-3.7-6-2.8C9.2,1,8.2,2.1,7.8,3.5C6.6,2.7,5,2.4,3.5,3c-2.4,0.9-3.7,3.5-2.8,6
	c0.1,0.3,0.3,0.7,0.5,1c2,3.6,7.6,6.1,11,6.1c2.6-2.2,5.4-7.7,4.7-11.7C16.8,4,16.8,3.6,16.6,3.3z M19.4,3.3c0.9-2.4,3.5-3.7,6-2.8
	c1.5,0.5,2.5,1.7,2.9,3.1C29.4,2.7,31,2.4,32.5,3c2.4,0.9,3.7,3.5,2.8,6c-0.1,0.3-0.3,0.7-0.5,1c-2,3.6-7.6,6.1-11,6.1
	c-2.6-2.2-5.4-7.7-4.7-11.7C19.2,4,19.2,3.6,19.4,3.3z"/>
</svg>
