<?xml version="1.0" encoding="utf-8"?>
<!-- Generator: Adobe Illustrator 23.0.1, SVG Export Plug-In . SVG Version: 6.00 Build 0)  -->
<svg version="1.1" xmlns="http://www.w3.org/2000/svg" xmlns:xlink="http://www.w3.org/1999/xlink" x="0px"
	 y="0px" viewBox="0 0 36 36" width="36px" height="36px" style="enable-background:new 0 0 36 36;" xml:space="preserve">
<path fill="#664500" d="M7,17c-0.2,0-0.3,0-0.4-0.1c-0.5-0.2-0.7-0.8-0.4-1.3C6.2,15.4,7.4,13,11,13c3.6,0,4.8,2.4,4.9,2.6
	c0.2,0.5,0,1.1-0.4,1.3c-0.5,0.2-1.1,0-1.3-0.4c0-0.1-0.8-1.5-3.1-1.5c-2.3,0-3.1,1.4-3.1,1.4C7.7,16.8,7.4,17,7,17z M29,17
	c0.1,0,0.3,0,0.4-0.1c0.5-0.2,0.7-0.8,0.4-1.3C29.8,15.4,28.6,13,25,13c-3.6,0-4.8,2.4-4.9,2.6c-0.2,0.5,0,1.1,0.4,1.3
	c0.5,0.2,1.1,0,1.3-0.4c0-0.1,0.8-1.5,3.1-1.5c2.3,0,3.1,1.4,3.1,1.4C28.3,16.8,28.6,17,29,17z"/>
</svg>
