<?xml version="1.0" encoding="utf-8"?>
<!-- Generator: Adobe Illustrator 23.0.1, SVG Export Plug-In . SVG Version: 6.00 Build 0)  -->
<svg version="1.1" xmlns="http://www.w3.org/2000/svg" xmlns:xlink="http://www.w3.org/1999/xlink" x="0px"
	 y="0px" viewBox="0 0 36 36" width="36px" height="36px" style="enable-background:new 0 0 36 36;" xml:space="preserve">
<path fill="#664500" d="M29,12c-5.6,0-7.8-4.4-7.9-4.6c-0.2-0.5,0-1.1,0.4-1.3c0.5-0.2,1.1,0,1.3,0.4C23,6.7,24.7,10,29,10
	c0.6,0,1,0.4,1,1S29.6,12,29,12z M7,12c-0.6,0-1-0.4-1-1s0.4-1,1-1c5.1,0,6-3.1,6-3.3c0.1-0.5,0.7-0.8,1.2-0.7
	c0.5,0.1,0.9,0.7,0.7,1.2C14.9,7.4,13.7,12,7,12z"/>
<ellipse fill="#664500" cx="12" cy="16.5" rx="2.5" ry="3.5"/>
<ellipse fill="#664500" cx="24" cy="16.5" rx="2.5" ry="3.5"/>
</svg>
