<?xml version="1.0" encoding="utf-8"?>
<!-- Generator: Adobe Illustrator 23.0.1, SVG Export Plug-In . SVG Version: 6.00 Build 0)  -->
<svg version="1.1" xmlns="http://www.w3.org/2000/svg" xmlns:xlink="http://www.w3.org/1999/xlink" x="0px"
	 y="0px" viewBox="0 0 36 36" width="36px" height="36px" style="enable-background:new 0 0 36 36;" xml:space="preserve">
<path fill="#664500" d="M29,14c-0.3,0-0.6-0.1-0.8-0.4c-2.4-3.2-6.5-0.8-6.7-0.7c-0.5,0.3-1.1,0.1-1.4-0.3c-0.3-0.5-0.1-1.1,0.3-1.4
	c2-1.2,6.5-2.5,9.3,1.3c0.3,0.4,0.2,1.1-0.2,1.4C29.4,13.9,29.2,14,29,14z M7,14c-0.2,0-0.4-0.1-0.6-0.2c-0.4-0.3-0.5-1-0.2-1.4
	c2.8-3.7,7.3-2.5,9.3-1.3c0.5,0.3,0.6,0.9,0.3,1.4c-0.3,0.5-0.9,0.6-1.4,0.3c-0.2-0.1-4.3-2.5-6.7,0.7C7.6,13.9,7.3,14,7,14z M29,16
	c0-0.6-0.4-1-1-1h-7c-0.6,0-1,0.4-1,1c0,0.6,0.4,1,1,1h5.1c0.2,0.6,0.8,1,1.4,1c0.8,0,1.5-0.7,1.5-1.5c0-0.1,0-0.2,0-0.3
	C29,16.1,29,16.1,29,16z M16,16c0-0.6-0.4-1-1-1H8c-0.6,0-1,0.4-1,1c0,0.6,0.4,1,1,1h5.1c0.2,0.6,0.8,1,1.4,1c0.8,0,1.5-0.7,1.5-1.5
	c0-0.1,0-0.2,0-0.3C16,16.1,16,16.1,16,16z"/>
</svg>
