<?xml version="1.0" encoding="utf-8"?>
<!-- Generator: Adobe Illustrator 23.0.1, SVG Export Plug-In . SVG Version: 6.00 Build 0)  -->
<svg version="1.1" xmlns="http://www.w3.org/2000/svg" xmlns:xlink="http://www.w3.org/1999/xlink" x="0px"
	 y="0px" viewBox="0 0 36 36" width="36px" height="36px" style="enable-background:new 0 0 36 36;" xml:space="preserve">
<ellipse fill="#664500" cx="11.5" cy="15.5" rx="2.5" ry="3.5"/>
<path fill="#664500" d="M28.5,17.8c-0.1-0.1-1.5-3.3-4.5-3.3c-3,0-4.4,3.2-4.5,3.3c-0.1,0.2,0,0.4,0.1,0.6c0.2,0.1,0.4,0.1,0.6,0
	c0,0,1.3-0.9,3.7-0.9c2.4,0,3.7,0.9,3.7,0.9c0.1,0.1,0.2,0.1,0.3,0.1c0.1,0,0.2,0,0.3-0.1C28.5,18.2,28.6,18,28.5,17.8z M6,11
	c-0.2,0-0.4-0.1-0.6-0.2c-0.4-0.3-0.5-1-0.2-1.4C8.5,5,12.8,5,13,5c0.6,0,1,0.4,1,1c0,0.6-0.4,1-1,1c-0.2,0-3.6,0.1-6.2,3.6
	C6.6,10.9,6.3,11,6,11z M29,14c-0.3,0-0.6-0.1-0.8-0.4c-2.6-3.5-7-2.6-7-2.6c-0.5,0.1-1.1-0.2-1.2-0.8c-0.1-0.5,0.2-1.1,0.8-1.2
	c0.2,0,5.7-1.1,9,3.4c0.3,0.4,0.2,1.1-0.2,1.4C29.4,13.9,29.2,14,29,14z"/>
</svg>
