<?xml version="1.0" encoding="utf-8"?>
<!-- Generator: Adobe Illustrator 23.0.1, SVG Export Plug-In . SVG Version: 6.00 Build 0)  -->
<svg version="1.1" xmlns="http://www.w3.org/2000/svg" xmlns:xlink="http://www.w3.org/1999/xlink" x="0px"
	 y="0px" viewBox="0 0 36 36" width="36px" height="36px" style="enable-background:new 0 0 36 36;" xml:space="preserve">
<path fill="#664500" d="M17.3,17.6c-0.2-0.1-0.4-0.1-0.6,0c0,0-1.3,0.9-3.7,0.9c-2.4,0-3.7-0.9-3.7-0.9c-0.2-0.1-0.4-0.1-0.6,0
	c-0.2,0.1-0.2,0.4-0.1,0.6c0.1,0.1,1.5,3.3,4.5,3.3c3,0,4.4-3.2,4.5-3.3C17.5,18,17.5,17.8,17.3,17.6z M27.3,17.6
	c-0.2-0.1-0.4-0.1-0.6,0c0,0-1.3,0.9-3.7,0.9c-2.4,0-3.7-0.9-3.7-0.9c-0.2-0.1-0.4-0.1-0.6,0c-0.2,0.1-0.2,0.4-0.1,0.6
	c0.1,0.1,1.5,3.3,4.5,3.3c3,0,4.4-3.2,4.5-3.3C27.5,18,27.5,17.8,27.3,17.6z M6,14c-0.6,0-1-0.4-1-1c0-0.6,0.4-1,1-1
	c0.2,0,3.6-0.1,6.2-3.6c0.3-0.4,1-0.5,1.4-0.2c0.4,0.3,0.5,1,0.2,1.4C10.5,13.9,6.2,14,6,14z M30,14c-0.2,0-4.5-0.1-7.8-4.4
	c-0.3-0.4-0.2-1.1,0.2-1.4c0.4-0.3,1.1-0.2,1.4,0.2c2.6,3.5,6.1,3.6,6.2,3.6c0.5,0,1,0.5,1,1C31,13.6,30.6,14,30,14z"/>
</svg>
