<?xml version="1.0" encoding="utf-8"?>
<!-- Generator: Adobe Illustrator 23.0.1, SVG Export Plug-In . SVG Version: 6.00 Build 0)  -->
<svg version="1.1" xmlns="http://www.w3.org/2000/svg" xmlns:xlink="http://www.w3.org/1999/xlink" x="0px"
	 y="0px" viewBox="0 0 36 36" width="36px" height="36px" style="enable-background:new 0 0 36 36;" xml:space="preserve">
<path fill="#664500" d="M20.9,28c1.3-0.4,2.6-1.2,2.6-2.5c0-2.6-4.9-3-5.5-3c-0.3,0-0.5,0.2-0.5,0.5c0,0.3,0.2,0.5,0.5,0.5
	c0,0,3.5,0.3,3.5,2s-3.5,2-3.5,2c0,0,0,0,0,0c-0.1,0-0.1,0-0.1,0l0,0c0,0-0.1,0.1-0.1,0.1c0,0,0,0,0,0c0,0,0,0.1-0.1,0.1
	c0,0,0,0.1,0,0.1c0,0,0,0,0,0.1c0,0,0,0,0,0s0,0,0,0c0,0,0,0,0,0.1c0,0,0,0.1,0,0.1c0,0,0,0.1,0,0.1c0,0,0,0,0.1,0.1
	c0,0,0,0,0.1,0.1c0,0,0,0,0.1,0c0,0,0.1,0,0.1,0c0,0,0,0,0.1,0c0,0,3.5,0.3,3.5,2s-3.5,2-3.5,2c-0.3,0-0.5,0.3-0.5,0.5
	c0,0.3,0.2,0.5,0.5,0.5l0,0c0.6,0,5.5-0.4,5.5-3C23.5,29.2,22.2,28.4,20.9,28z"/>
</svg>
