<?xml version="1.0" encoding="utf-8"?>
<!-- Generator: Adobe Illustrator 23.0.1, SVG Export Plug-In . SVG Version: 6.00 Build 0)  -->
<svg version="1.1" xmlns="http://www.w3.org/2000/svg" xmlns:xlink="http://www.w3.org/1999/xlink" x="0px"
	 y="0px" viewBox="0 0 36 36" width="36px" height="36px" style="enable-background:new 0 0 36 36;" xml:space="preserve">
<path fill="#664500" d="M18,30c-0.3,0-0.6-0.1-0.8-0.4l-3.2-4l-2.2,3c-0.2,0.2-0.4,0.4-0.7,0.4c-0.3,0-0.6-0.1-0.8-0.3l-1-1
	c-0.4-0.4-0.4-1,0-1.4s1-0.4,1.4,0l0.2,0.2l2.3-3.1c0.2-0.2,0.5-0.4,0.8-0.4c0.3,0,0.6,0.1,0.8,0.4l3.2,4l3.2-4
	c0.2-0.2,0.5-0.4,0.8-0.4c0.3,0,0.6,0.2,0.8,0.4l2.3,3.1l0.2-0.2c0.4-0.4,1-0.4,1.4,0s0.4,1,0,1.4l-1,1c-0.2,0.2-0.5,0.3-0.8,0.3
	c-0.3,0-0.6-0.2-0.7-0.4l-2.2-3l-3.2,4C18.6,29.9,18.3,30,18,30z"/>
</svg>
