<?xml version="1.0" encoding="utf-8"?>
<!-- Generator: Adobe Illustrator 23.0.1, SVG Export Plug-In . SVG Version: 6.00 Build 0)  -->
<svg version="1.1" xmlns="http://www.w3.org/2000/svg" xmlns:xlink="http://www.w3.org/1999/xlink" x="0px"
	 y="0px" viewBox="0 0 36 36" width="36px" height="36px" style="enable-background:new 0 0 36 36;" xml:space="preserve">
<path fill="#FFFFFF" d="M25,21c2.2,0,4,1.8,4,4s-1.8,4-4,4H11c-2.2,0-4-1.8-4-4s1.8-4,4-4H25z"/>
<path fill="#664500" d="M25,20H11c-2.8,0-5,2.2-5,5s2.2,5,5,5h14c2.8,0,5-2.2,5-5S27.8,20,25,20z M25,22c1.5,0,2.7,1.1,2.9,2.5h-3.4V22
	H25z M23.5,22v2.5h-3V22H23.5z M19.5,22v2.5h-3V22H19.5z M15.5,22v2.5h-3V22H15.5z M11,22h0.5v2.5H8.1C8.3,23.1,9.5,22,11,22z
	 M11,28c-1.5,0-2.7-1.1-2.9-2.5h3.4V28H11z M12.5,28v-2.5h3V28H12.5z M16.5,28v-2.5h3V28H16.5z M20.5,28v-2.5h3V28H20.5z M25,28
	h-0.5v-2.5h3.4C27.7,26.9,26.5,28,25,28z"/>
</svg>
