<?xml version="1.0" encoding="utf-8"?>
<!-- Generator: Adobe Illustrator 23.0.1, SVG Export Plug-In . SVG Version: 6.00 Build 0)  -->
<svg version="1.1" xmlns="http://www.w3.org/2000/svg" xmlns:xlink="http://www.w3.org/1999/xlink" x="0px"
	 y="0px" viewBox="0 0 36 36" width="36px" height="36px" style="enable-background:new 0 0 36 36;" xml:space="preserve">
<path fill="#F5F8FA" d="M15.4,20.1c-0.5-0.2-1,0-1.2,0.4l-5,8c-0.2,0.3-0.2,0.7,0,1C9.3,29.8,9.6,30,10,30h3c0.5,0,0.9-0.3,1-0.8l2-8
	C16.1,20.8,15.8,20.3,15.4,20.1z M26.8,28.5l-5-8c-0.3-0.4-0.8-0.6-1.2-0.4c-0.5,0.2-0.7,0.7-0.6,1.2l2,8c0.1,0.4,0.5,0.8,1,0.8h3
	c0.4,0,0.7-0.2,0.9-0.5C27.1,29.2,27,28.8,26.8,28.5z"/>
<path fill="#E1E8ED" d="M32,30.2c0-0.1,0-0.1,0-0.2c0-1.7-1.3-3-3-3c-1,0-1.9,0.5-2.5,1.3c-0.5-0.2-1-0.3-1.5-0.3c-2.2,0-4,1.8-4,4
	s1.8,4,4,4c1.4,0,2.6-0.7,3.3-1.7c0.5,1,1.5,1.7,2.7,1.7c1.7,0,3-1.3,3-3C34,31.7,33.2,30.6,32,30.2z M11,28c-0.5,0-1.1,0.1-1.5,0.3
	C8.9,27.5,8,27,7,27c-1.7,0-3,1.3-3,3c0,0.1,0,0.1,0,0.2c-1.2,0.4-2,1.5-2,2.8c0,1.7,1.3,3,3,3c1.2,0,2.2-0.7,2.7-1.7
	c0.7,1,1.9,1.7,3.3,1.7c2.2,0,4-1.8,4-4S13.2,28,11,28z"/>
</svg>
