<?xml version="1.0" encoding="utf-8"?>
<!-- Generator: Adobe Illustrator 23.0.1, SVG Export Plug-In . SVG Version: 6.00 Build 0)  -->
<svg version="1.1" xmlns="http://www.w3.org/2000/svg" xmlns:xlink="http://www.w3.org/1999/xlink" x="0px"
	 y="0px" viewBox="0 0 36 36" width="36px" height="36px" style="enable-background:new 0 0 36 36;" xml:space="preserve">
<ellipse fill="#664500" cx="11.5" cy="16.5" rx="2.5" ry="3.5"/>
<ellipse fill="#664500" cx="24.5" cy="16.5" rx="2.5" ry="3.5"/>
<path fill="#664500" d="M30,13c-5.6,0-7.8-4.4-7.9-4.6c-0.2-0.5,0-1.1,0.4-1.3c0.5-0.2,1.1,0,1.3,0.4C24,7.7,25.7,11,30,11
	c0.6,0,1,0.4,1,1C31,12.6,30.6,13,30,13z M6,13c-0.6,0-1-0.4-1-1s0.4-1,1-1c5.1,0,6-3.1,6-3.3c0.1-0.5,0.7-0.8,1.2-0.7
	c0.5,0.1,0.9,0.7,0.7,1.2C13.9,8.4,12.7,13,6,13z"/>
</svg>
