<?xml version="1.0" encoding="utf-8"?>
<!-- Generator: Adobe Illustrator 23.0.1, SVG Export Plug-In . SVG Version: 6.00 Build 0)  -->
<svg version="1.1" xmlns="http://www.w3.org/2000/svg" xmlns:xlink="http://www.w3.org/1999/xlink" x="0px"
	 y="0px" viewBox="0 0 36 36" width="36px" height="36px" style="enable-background:new 0 0 36 36;" xml:space="preserve">
<path fill="#664500" d="M16.7,10.5c-0.2-0.1-0.5,0-0.6,0.1c0,0-1,1.2-3.3,1.8c-0.8,0.2-1.5,0.3-2.2,0.3c-1,0-1.6-0.2-1.6-0.2
	c-0.2-0.1-0.5,0-0.6,0.2c-0.1,0.2-0.1,0.4,0,0.6c0.1,0.1,1.8,2.1,4.1,2.1c0.4,0,0.7,0,1-0.1c2.9-0.8,3.4-4.2,3.4-4.4
	C17,10.9,16.9,10.6,16.7,10.5z"/>
<path fill="#664500" d="M27.6,12.7c-0.1-0.2-0.4-0.2-0.6-0.2c0,0-0.6,0.3-1.7,0.3c-0.7,0-1.4-0.1-2.1-0.3c-2.4-0.6-3.4-1.7-3.4-1.8
	c-0.1-0.2-0.4-0.2-0.6-0.1c-0.2,0.1-0.3,0.3-0.3,0.5c0,0.1,0.7,3.6,3.5,4.3c0.3,0.1,0.6,0.1,0.9,0.1c2.4,0,4.1-2.2,4.2-2.3
	C27.8,13.1,27.8,12.9,27.6,12.7z"/>
<path fill="#664500" d="M10,10c-0.4,0-0.9-0.3-1-0.8C8.9,8.7,9.2,8.2,9.8,8c0,0,3.6-1,5.4-4.5c0.2-0.5,0.8-0.7,1.3-0.4
	c0.5,0.2,0.7,0.8,0.4,1.3c-2.2,4.4-6.5,5.5-6.7,5.5C10.2,10,10.1,10,10,10z"/>
<path fill="#664500" d="M26,10c-0.1,0-0.2,0-0.2,0c-0.2,0-4.5-1.2-6.7-5.5c-0.2-0.5,0-1.1,0.4-1.3c0.5-0.2,1.1,0,1.3,0.4
	C22.7,7.1,26.2,8,26.2,8c0.5,0.1,0.9,0.7,0.7,1.2C26.9,9.7,26.4,10,26,10z"/>
</svg>
