<?xml version="1.0" encoding="utf-8"?>
<!-- Generator: Adobe Illustrator 23.0.1, SVG Export Plug-In . SVG Version: 6.00 Build 0)  -->
<svg version="1.1" xmlns="http://www.w3.org/2000/svg" xmlns:xlink="http://www.w3.org/1999/xlink" x="0px"
	 y="0px" viewBox="0 0 36 36" width="36px" height="36px" style="enable-background:new 0 0 36 36;" xml:space="preserve">
<path fill="#292F33" d="M28,24.2c-1,0.2-5,1.8-10,1.8s-9-1.6-10-1.8c-1-0.2-1.1,1.1-0.5,2.9C8,29,11,33,18,33s10-4,10.6-5.9
	C29.1,25.3,29,24,28,24.2z"/>
<path fill="#F5F8FA" d="M8,25c0,0,5,2,10,2s10-2,10-2s-0.5,3-1.5,3S25,27,25,27s-4,2-7,2s-7-2-7-2s-0.5,1-1.5,1S8,25,8,25z"/>
</svg>
