<?xml version="1.0" encoding="utf-8"?>
<!-- Generator: Adobe Illustrator 23.0.1, SVG Export Plug-In . SVG Version: 6.00 Build 0)  -->
<svg version="1.1" xmlns="http://www.w3.org/2000/svg" xmlns:xlink="http://www.w3.org/1999/xlink" x="0px"
	 y="0px" viewBox="0 0 36 36" width="36px" height="36px" style="enable-background:new 0 0 36 36;" xml:space="preserve">
<g>
	<ellipse fill="#292F33" cx="12" cy="14.5" rx="2" ry="3.5"/>
	<ellipse fill="#292F33" cx="24" cy="14.5" rx="2" ry="3.5"/>
	<path fill="#292F33" d="M31,14c-0.3,0-0.6-0.1-0.8-0.4C27.6,10.1,24.1,10,24,10c-0.5,0-1-0.5-1-1c0-0.6,0.4-1,1-1
		c0.2,0,4.5,0.1,7.8,4.4c0.3,0.4,0.2,1.1-0.2,1.4C31.4,13.9,31.2,14,31,14z M5,14c-0.2,0-0.4-0.1-0.6-0.2c-0.4-0.3-0.5-1-0.2-1.4
		C7.5,8,11.8,8,12,8c0.6,0,1,0.4,1,1c0,0.6-0.4,1-1,1c-0.2,0-3.6,0.1-6.2,3.6C5.6,13.9,5.3,14,5,14z"/>
</g>
</svg>
