<?xml version="1.0" encoding="utf-8"?>
<!-- Generator: Adobe Illustrator 23.0.1, SVG Export Plug-In . SVG Version: 6.00 Build 0)  -->
<svg version="1.1" xmlns="http://www.w3.org/2000/svg" xmlns:xlink="http://www.w3.org/1999/xlink" x="0px"
	 y="0px" viewBox="0 0 36 36" width="36px" height="36px" style="enable-background:new 0 0 36 36;" xml:space="preserve">
<path fill="#664500" d="M6,11c-0.2,0-0.4-0.1-0.6-0.2c-0.4-0.3-0.5-1-0.2-1.4C8.5,5,12.8,5,13,5c0.6,0,1,0.4,1,1c0,0.6-0.4,1-1,1
	c-0.2,0-3.6,0.1-6.2,3.6C6.6,10.9,6.3,11,6,11z M30,11c-0.3,0-0.6-0.1-0.8-0.4C26.6,7.1,23.1,7,23,7c-0.5,0-1-0.5-1-1
	c0-0.6,0.4-1,1-1c0.2,0,4.5,0.1,7.8,4.4c0.3,0.4,0.2,1.1-0.2,1.4C30.4,10.9,30.2,11,30,11z"/>
<ellipse fill="#664500" cx="12" cy="14.5" rx="2.5" ry="3.5"/>
<ellipse fill="#664500" cx="24" cy="14.5" rx="2.5" ry="3.5"/>
</svg>
