<?xml version="1.0" encoding="utf-8"?>
<!-- Generator: Adobe Illustrator 23.0.1, SVG Export Plug-In . SVG Version: 6.00 Build 0)  -->
<svg version="1.1" xmlns="http://www.w3.org/2000/svg" xmlns:xlink="http://www.w3.org/1999/xlink" x="0px"
	 y="0px" viewBox="0 0 36 36" width="36px" height="36px" style="enable-background:new 0 0 36 36;" xml:space="preserve">
<g>
	<ellipse fill="#292F33" cx="12" cy="14.5" rx="2" ry="3.5"/>
	<ellipse fill="#292F33" cx="24" cy="14.5" rx="2" ry="3.5"/>
	<path fill="#292F33" d="M21,12c-0.3,0-0.5-0.1-0.7-0.3c-0.4-0.4-0.4-1,0-1.4C24.5,6,28.8,6,29,6c0.6,0,1,0.4,1,1c0,0.6-0.4,1-1,1
		c-0.1,0-3.7,0.1-7.3,3.7C21.5,11.9,21.3,12,21,12z M15,12c-0.3,0-0.5-0.1-0.7-0.3C10.7,8.1,7,8,7,8C6.4,8,6,7.5,6,7
		c0-0.6,0.4-1,1-1c0.2,0,4.5,0,8.7,4.3c0.4,0.4,0.4,1,0,1.4C15.5,11.9,15.3,12,15,12z"/>
</g>
</svg>
