<?xml version="1.0" encoding="utf-8"?>
<!-- Generator: Adobe Illustrator 23.0.1, SVG Export Plug-In . SVG Version: 6.00 Build 0)  -->
<svg version="1.1" xmlns="http://www.w3.org/2000/svg" xmlns:xlink="http://www.w3.org/1999/xlink" x="0px"
	 y="0px" viewBox="0 0 36 36" width="36px" height="36px" style="enable-background:new 0 0 36 36;" xml:space="preserve">
<path fill="#2A6797" d="M31.8,5.1h-3.1c-0.7,0-1.2-0.4-1.2-1.2s0.5-1.2,1.2-1.2h6.2c0.2,0,0.9,0.1,0.9,0.8c0,0.4-0.1,0.5-0.3,0.8
	l-4.3,6h3.6c0.7,0,1.2,0.4,1.2,1.2s-0.5,1.2-1.2,1.2h-6.3c-0.6,0-1.1-0.3-1.1-0.9c0-0.3,0.1-0.6,0.2-0.7
	C27.5,11.1,31.8,5.1,31.8,5.1z"/>
<path fill="#2A6797" d="M22.9,1.9h-2.4c-0.5,0-0.9-0.3-0.9-0.9c0-0.6,0.4-0.9,0.9-0.9h4.6c0.2,0,0.7,0.1,0.7,0.6c0,0.3-0.1,0.4-0.2,0.6
	l-3.2,4.5h2.7c0.5,0,0.9,0.3,0.9,0.9s-0.4,0.9-0.9,0.9h-4.7c-0.5,0-0.8-0.2-0.8-0.7c0-0.2,0.1-0.4,0.2-0.6
	C19.7,6.4,22.9,1.9,22.9,1.9z"/>
<path fill="#2A6797" d="M16,5.7h-2c-0.4,0-0.8-0.3-0.8-0.8s0.4-0.8,0.8-0.8h4c0.2,0,0.6,0.1,0.6,0.5c0,0.2,0,0.3-0.2,0.5L15.6,9h2.3
	c0.4,0,0.8,0.3,0.8,0.8s-0.4,0.8-0.8,0.8h-4c-0.4,0-0.7-0.2-0.7-0.6c0-0.2,0.1-0.4,0.2-0.5C13.3,9.5,16,5.7,16,5.7z"/>
</svg>
