<?xml version="1.0" encoding="utf-8"?>
<!-- Generator: Adobe Illustrator 23.0.1, SVG Export Plug-In . SVG Version: 6.00 Build 0)  -->
<svg version="1.1" xmlns="http://www.w3.org/2000/svg" xmlns:xlink="http://www.w3.org/1999/xlink" x="0px"
	 y="0px" viewBox="0 0 36 36" width="36px" height="36px" style="enable-background:new 0 0 36 36;" xml:space="preserve">
<path fill="#664500" d="M25,27H10c-1,0-1-1-1-1v-1c0,0,0-1,1-1l15,0V27z"/>
<path fill="#99AAB5" d="M35.3,26.1L27.5,24c-0.7-0.2-1,0.3-1.2,0.5l-1.6-0.8L24,25.3V23h-2v2h-2v-2h-2v2h-2v-2h-2v2h-2v-2h-2v3h2v2h2
	v-2h2v2h2v-2h2v2h2v-2h1.6l-0.6,1.2l1.6,0.8l-0.1,0.2c0,0-0.2,0.7,0.4,1.3c0.6,0.5,5.3,4.7,5.3,4.7s0.9,0.9,1.8,0.1
	c0.7-0.7,3.6-6,3.9-7C36.2,26.3,35.3,26.1,35.3,26.1z M31.5,32.2l-2.6-2.2l1.6-3.1l3.3,1.1C33.8,28,31.5,32.2,31.5,32.2z"/>
</svg>
