<?xml version="1.0" encoding="utf-8"?>
<!-- Generator: Adobe Illustrator 23.0.1, SVG Export Plug-In . SVG Version: 6.00 Build 0)  -->
<svg version="1.1" xmlns="http://www.w3.org/2000/svg" xmlns:xlink="http://www.w3.org/1999/xlink" x="0px"
	 y="0px" viewBox="0 0 36 36" width="36px" height="36px" style="enable-background:new 0 0 36 36;" xml:space="preserve">
<path fill="#664500" d="M27.3,23.6c-0.2-0.2-0.4-0.2-0.6,0c0,0-3.9,2.9-8.7,2.9c-4.8,0-8.7-2.9-8.7-2.9c-0.2-0.1-0.5-0.1-0.6,0
	c-0.2,0.2-0.2,0.4-0.1,0.6c0.1,0.2,3.2,5.2,9.4,5.2s9.3-5,9.4-5.2C27.6,24.1,27.5,23.8,27.3,23.6z"/>
<path fill="#65471B" d="M18,26.6c-0.1,0-0.3,0-0.4,0v4.5h0.9v-4.5C18.3,26.6,18.1,26.6,18,26.6z"/>
<path fill="#FFFFFF" d="M22,26c0,0-1.5,0.4-2.4,0.5c-0.4,0-0.7,0.1-1.1,0.1v4.5H20c1.1,0,2-0.9,2-2V26z M14,26c0,0,1.4,0.4,2.4,0.5
	c0.4,0,0.7,0.1,1.1,0.1v4.5H16c-1.1,0-2-0.9-2-2V26z"/>
<path fill="#65471B" d="M27.3,23.6c-0.2-0.2-0.4-0.2-0.6,0c0,0-2.3,1.7-5.4,2.5c-0.4,0.1-1.9,0.4-3.3,0.4c-1.4,0-2.8-0.3-3.3-0.4
	c-3.2-0.8-5.4-2.4-5.4-2.5c-0.2-0.1-0.5-0.1-0.6,0c-0.2,0.2-0.2,0.4-0.1,0.6c0.1,0.2,1.9,3.1,5.4,4.5v-1.8c0,0,1.4,0.4,2.4,0.5
	c0.4,0,0.7,0.1,1.1,0.1c0.1,0,0.3,0,0.4,0s0.3,0,0.4,0c0.4,0,0.8,0,1.1-0.1c1-0.1,2.5-0.5,2.4-0.5v1.8c3.5-1.4,5.3-4.3,5.4-4.5
	C27.6,24.1,27.5,23.8,27.3,23.6z"/>
</svg>
