<?xml version="1.0" encoding="utf-8"?>
<!-- Generator: Adobe Illustrator 23.0.1, SVG Export Plug-In . SVG Version: 6.00 Build 0)  -->
<svg version="1.1" xmlns="http://www.w3.org/2000/svg" xmlns:xlink="http://www.w3.org/1999/xlink" x="0px"
	 y="0px" viewBox="0 0 36 36" width="36px" height="36px" style="enable-background:new 0 0 36 36;" xml:space="preserve">
<path fill="#E6E7E8" d="M35,12.1c-0.1-0.4-0.3-0.8-0.4-1.2c-0.4-0.8-0.8-1.6-1.3-2.4c-0.3-0.4-0.5-0.8-0.8-1.2
	c-0.4-0.5-0.8-1.1-1.3-1.6c-0.3-0.3-0.6-0.6-0.9-0.9l-0.1-0.1c-0.6-0.6-1.3-1.2-2.1-1.6c-0.4-0.3-0.9-0.6-1.4-0.8
	c-1.1-0.6-2.3-1.1-3.6-1.5l-7.4,1.4l-4.4-0.8c-1.1,0.4-2.1,1-3.1,1.6C7.9,3.1,7.5,3.4,7.2,3.7L7,3.8C6.3,4.3,5.6,4.9,5,5.5
	C4.8,5.8,4.5,6.1,4.3,6.3c0,0-0.1,0.1-0.1,0.1C3.9,6.8,3.6,7.2,3.3,7.6C3.2,7.8,3,8.1,2.8,8.4C2.5,8.9,2.2,9.4,1.9,10
	c-0.2,0.4-0.4,0.8-0.5,1.2l8.5-1.5l25.8,4.7C35.5,13.6,35.2,12.8,35,12.1z"/>
<path fill="#BCBEC0" d="M34.5,10.9L18.7,8l5.9-1.1l3-0.5l3.6-0.7c-0.3-0.3-0.6-0.6-0.9-0.9l-5.7,1l-3,0.5l-5.9,1.1l-3,0.5L6.8,9.1
	L1.9,10c-0.2,0.4-0.4,0.8-0.5,1.2l8.5-1.5l5.9-1.1L35,12.1C34.8,11.7,34.7,11.3,34.5,10.9z"/>
<path fill="#D1D3D4" d="M27.5,6.4l4.9,0.9c0.3,0.4,0.6,0.8,0.8,1.2l-8.7-1.6C24.6,6.9,27.5,6.4,27.5,6.4z M8.2,2.9
	C7.9,3.1,7.5,3.4,7.2,3.7l2.6-0.5L8.2,2.9z M26.7,2.3l-5.1,0.9l-5.9,1.1l-3,0.5L6.8,5.9L4.3,6.3c0,0-0.1,0.1-0.1,0.1
	C3.9,6.8,3.6,7.2,3.3,7.6l3.5-0.6l3-0.5l5.9-1.1l3-0.5l5.9-1.1l3.5-0.6C27.6,2.8,27.2,2.5,26.7,2.3z"/>
</svg>
