<?xml version="1.0" encoding="utf-8"?>
<!-- Generator: Adobe Illustrator 23.0.1, SVG Export Plug-In . SVG Version: 6.00 Build 0)  -->
<svg version="1.1" xmlns="http://www.w3.org/2000/svg" xmlns:xlink="http://www.w3.org/1999/xlink" x="0px"
	 y="0px" viewBox="0 0 36 36" width="36px" height="36px" style="enable-background:new 0 0 36 36;" xml:space="preserve">
<path fill="#292F33" d="M29.7,33H6.3C5,33,4,32,4,30.7V25c0-1.2,1-2.3,2.3-2.3h23.5c1.2,0,2.3,1,2.3,2.3v5.7C32,32,31,33,29.7,33z"/>
<path fill="#FFFFFF" d="M7.8,27.2H7c-0.3,0-0.5-0.2-0.5-0.5s0.1-0.5,0.5-0.5H8l0.2-1.5c0-0.3,0.2-0.5,0.5-0.5c0.2,0,0.4,0.2,0.4,0.4
	c0,0.1,0,0.1,0,0.2l-0.2,1.4h0.9l0.2-1.5c0-0.3,0.2-0.5,0.5-0.5c0.2,0,0.4,0.2,0.4,0.4c0,0.1,0,0.1,0,0.2l-0.2,1.4h0.8
	c0.3,0,0.5,0.2,0.5,0.5c0,0.2-0.1,0.5-0.5,0.5h-1l-0.2,1.1h0.8c0.3,0,0.5,0.2,0.5,0.5s-0.1,0.5-0.5,0.5h-1l-0.2,1.5
	c0,0.3-0.2,0.5-0.5,0.5c-0.2,0-0.4-0.2-0.4-0.4c0-0.1,0-0.1,0-0.2l0.2-1.4H8.5l-0.2,1.5c0,0.3-0.2,0.5-0.5,0.5
	c-0.2,0-0.4-0.2-0.4-0.4c0-0.1,0-0.1,0-0.2l0.2-1.4H6.7c-0.3,0-0.5-0.2-0.5-0.5c0-0.2,0.1-0.5,0.5-0.5h1C7.7,28.3,7.8,27.2,7.8,27.2
	z M8.6,28.3h0.9l0.2-1.1H8.8L8.6,28.3z M13.2,25.8c0-0.8,0.6-1.5,1.5-1.5s1.5,0.7,1.5,1.5s-0.6,1.5-1.5,1.5
	C13.8,27.3,13.2,26.6,13.2,25.8z M15.2,25.8c0-0.3-0.2-0.6-0.5-0.6c-0.3,0-0.5,0.3-0.5,0.6c0,0.3,0.2,0.6,0.5,0.6
	C15,26.4,15.2,26.1,15.2,25.8z M17.5,24.5c0.1-0.2,0.2-0.3,0.4-0.3c0.3,0,0.6,0.2,0.6,0.5c0,0.1,0,0.1-0.1,0.3l-3.2,6
	c-0.1,0.2-0.2,0.3-0.4,0.3c-0.2,0-0.5-0.2-0.5-0.5c0-0.1,0.1-0.3,0.1-0.4L17.5,24.5z M16.6,29.7c0-0.8,0.6-1.5,1.5-1.5
	s1.5,0.7,1.5,1.5c0,0.8-0.6,1.5-1.5,1.5C17.2,31.3,16.6,30.6,16.6,29.7z M18.5,29.7c0-0.3-0.2-0.6-0.5-0.6s-0.5,0.3-0.5,0.6
	c0,0.3,0.2,0.6,0.5,0.6S18.5,30,18.5,29.7z M21,30.5c0-0.4,0.3-0.7,0.7-0.7c0.4,0,0.7,0.3,0.7,0.7c0,0.4-0.3,0.7-0.7,0.7
	C21.3,31.3,21,30.9,21,30.5z M21.1,24.9c0-0.4,0.3-0.6,0.7-0.6c0.4,0,0.7,0.3,0.7,0.6v3.7c0,0.4-0.3,0.6-0.7,0.6
	c-0.4,0-0.7-0.2-0.7-0.6V24.9z M29.2,31.3c-0.2,0-0.3-0.1-0.4-0.2L28,30.3l-0.1,0.1c-0.7,0.6-1.3,0.9-2,0.9c-1.1,0-2.2-0.6-2.2-2
	c0-1.1,0.9-1.8,1.4-2.1l0.1-0.1l-0.1-0.1c-0.4-0.4-0.6-0.8-0.6-1.3c0-1.1,1-1.6,1.9-1.6c0.8,0,1.8,0.5,1.8,1.5c0,1-0.9,1.5-1.2,1.6
	l-0.1,0.1l1.2,1.3l0.4-0.5c0.2-0.3,0.4-0.4,0.6-0.4c0.2,0,0.4,0.2,0.4,0.5c0,0.3-0.3,0.6-0.5,0.9l-0.3,0.3l0.7,0.8
	c0.1,0.2,0.2,0.2,0.2,0.4C29.7,31.1,29.4,31.3,29.2,31.3z M25.7,27.9c-0.4,0.3-0.9,0.7-0.9,1.3c0,0.7,0.4,1.1,1.1,1.1
	c0.6,0,0.9-0.2,1.3-0.6l0.1-0.1L25.7,27.9L25.7,27.9z M26.4,25.1c-0.3,0-0.7,0.2-0.7,0.6c0,0.3,0.2,0.6,0.5,0.9l0.1,0.1l0.1,0
	c0.5-0.3,0.7-0.6,0.7-0.9C27.1,25.4,26.7,25.1,26.4,25.1z"/>
</svg>
