<?xml version="1.0" encoding="utf-8"?>
<!-- Generator: Adobe Illustrator 23.0.1, SVG Export Plug-In . SVG Version: 6.00 Build 0)  -->
<svg version="1.1" xmlns="http://www.w3.org/2000/svg" xmlns:xlink="http://www.w3.org/1999/xlink" x="0px"
	 y="0px" viewBox="0 0 36 36" width="36px" height="36px" style="enable-background:new 0 0 36 36;" xml:space="preserve">
<path fill="#664500" d="M30.6,17.2c-0.1-0.1-1.9-1.4-4.6-2.3c0-0.1,0-0.2,0-0.4c0-0.4-0.1-0.7-0.4-1C27.4,13,29,13,29,13
	c0.6,0,1-0.4,1-1c0-0.6-0.4-1-1-1c-0.2,0-5.5,0-8.7,3.3c-0.3,0.3-0.4,0.7-0.2,1.1c0.2,0.4,0.5,0.6,0.9,0.6c4.6,0,8.4,2.8,8.4,2.8
	c0.2,0.1,0.4,0.2,0.6,0.2c0.3,0,0.6-0.1,0.8-0.4C31.1,18.2,31,17.5,30.6,17.2z M15.7,14.3C12.5,11,7.2,11,7,11c-0.6,0-1,0.4-1,1
	c0,0.6,0.4,1,1,1c0,0,1.6,0,3.4,0.5c-0.2,0.3-0.4,0.6-0.4,1c0,0.1,0,0.2,0,0.4c-2.7,0.9-4.5,2.3-4.6,2.3c-0.4,0.3-0.5,1-0.2,1.4
	C5.4,18.9,5.7,19,6,19c0.2,0,0.4-0.1,0.6-0.2c0,0,3.8-2.8,8.4-2.8c0.4,0,0.8-0.2,0.9-0.6C16.1,15,16,14.6,15.7,14.3z"/>
</svg>
