<?xml version="1.0" encoding="utf-8"?>
<!-- Generator: Adobe Illustrator 23.0.1, SVG Export Plug-In . SVG Version: 6.00 Build 0)  -->
<svg version="1.1" xmlns="http://www.w3.org/2000/svg" xmlns:xlink="http://www.w3.org/1999/xlink" x="0px"
	 y="0px" viewBox="0 0 36 36" width="36px" height="36px" style="enable-background:new 0 0 36 36;" xml:space="preserve">
<path fill="#FFCB4C" d="M35,18.6c0-3.8-3.1-6.9-6.9-6.9c-1,0-2.8,0.6-2.8,0.6l-13.1,1.4c0,0-2.7-1.6-4.4-1.6C4.1,12.1,1,15.2,1,19
	c0,0.2,0,0.5,0,0.7C1.4,28.8,8.8,36,18,36c9.4,0,17-7.6,17-17c0-0.1,0-0.1,0-0.2C35,18.8,35,18.7,35,18.6z"/>
<path fill="#F19020" d="M6.3,13.7c0.2-0.2,1.1-0.5,1.7,0.1c1,0.9,1.3-1.4,4.5,0.3c1.5,0.8,9,1,9.7,0.6c2.7-1.3,4.8-2.2,5.6-1.7
	c0.6,0.4-1,1,0.2,1.1c1.2,0.1,1.3-0.5,2.2-0.2c1.7,0.4-1.1,2.3-1.1,2.3C24.7,19.7,9.6,17,6.9,15.3C5.8,14.6,5.9,14,6.3,13.7z"/>
<path fill="#D93047" d="M29.7,9.1L18,7.8L5.9,9.1c3.7,3.7,4.8,7.9,4.8,7.9l4.4,0.9l9.5,0C24.7,17.9,26.3,12.2,29.7,9.1z"/>
<path fill="#C02334" d="M29.3,9.4c1.3-1.3-4.8-1.8-9.6-1.8s-8.4,1.1-8.4,1.1S6.3,9.4,7,10.2c1,1.1,2.2,3.2,2.2,3.2s4.8,2.4,8.4-0.6
	c2.5,1.5,6,1,7.6-1.6c0,0,1.2,0.5,2.5,0.5C27.5,11.7,28.5,10.2,29.3,9.4z"/>
<path fill="#FFCB4C" d="M29.6,15.6c-1.7,1.3-2.1-0.3-3.7-0.3c-1.1,0-1.2,0.6-2.8,1.3c-1,0.4-2.3-0.8-3.2-0.8c-1.1,0-2.2,1.6-3.7,0.7
	c-0.8-0.5-1.5-1.3-2.6-1.2c-2,0.1-1.9,1-3.7,0.7c-4.5-0.7-4.4-2.4-4.4-2.4L5,18h9.4l3.8,1.8l4.5-1.8h5.5c0,0,0.6-0.2,1.1-0.3
	C30.8,17.1,30.9,14.7,29.6,15.6z"/>
<path fill="#E8596E" d="M31.1,3.7c-0.2,0-0.5,0-0.7,0.1c-0.7-0.8-1.7-1.4-2.9-1.4c-0.1,0-0.2,0-0.3,0c-0.7-0.8-1.8-1.4-3-1.4
	c-1.5,0-2.8,0.8-3.5,2.1c-0.3-0.8-1.1-1.4-2.1-1.4c-0.7,0-1.3,0.3-1.8,0.9c-0.5-1.5-1.9-2.5-3.5-2.5c-1.3,0-2.5,0.7-3.1,1.7
	c-0.2,0-0.4-0.1-0.6-0.1c-1.4,0-2.7,0.8-3.3,2C6.3,3.8,6,3.7,5.8,3.7C4,3.7,2.5,5.3,2.5,7.1s1.5,3.4,3.4,3.4c0.6,0,1.1-0.2,1.6-0.4
	c0.4,0.3,0.8,0.5,1.3,0.5c0.1,0,0.3,0,0.4,0c0.9,1.4,2.4,2.3,4.1,2.3c1.7,0,3.2-0.9,4.1-2.2c0.7,0.9,1.8,1.5,3,1.5
	c1.8,0,3.3-1.2,3.8-2.9c0,0,0.1,0,0.1,0c0.3,0,0.6,0,0.8-0.1c0.7,0.6,1.5,0.9,2.4,0.9c1.2,0,2.2-0.6,2.9-1.4
	c0.2,0.1,0.4,0.1,0.7,0.1c1.4,0,2.5-1.1,2.5-2.5S32.5,3.7,31.1,3.7z"/>
<circle fill="#F3AAB9" cx="27.8" cy="5.8" r="2.1"/>
<path fill="#F3AAB9" d="M19.9,5.9c0-1.2-1-2.2-2.2-2.2c-0.4,0-0.7,0.1-1,0.3c-0.3-0.6-0.8-1-1.5-1c-0.6,0-1.1,0.3-1.4,0.7
	c-0.7-0.6-1.6-1-2.5-1C9.5,2.7,8,3.9,7.6,5.5C7.3,5.2,6.8,4.9,6.2,4.9c-1.1,0-2,0.9-2,2s0.9,2,2,2C6.9,9,7.5,8.6,7.9,8
	c0.5,1.1,1.5,1.9,2.7,2.1c0.4,0.7,1.1,1.1,1.9,1.1c1.1,0,2-0.8,2.2-1.8c0.3,0.2,0.7,0.3,1.1,0.3c1.1,0,2-0.7,2.2-1.8
	C19.1,7.9,19.9,7,19.9,5.9z"/>
</svg>
