<?xml version="1.0" encoding="utf-8"?>
<!-- Generator: Adobe Illustrator 23.0.1, SVG Export Plug-In . SVG Version: 6.00 Build 0)  -->
<svg version="1.1" id="レイヤー_1" xmlns="http://www.w3.org/2000/svg" xmlns:xlink="http://www.w3.org/1999/xlink" x="0px"
	 y="0px" viewBox="0 0 36 36" style="enable-background:new 0 0 36 36;" xml:space="preserve">
<style type="text/css">
	.st0{fill:#65471B;}
	.st1{fill:#E8596E;}
	.st2{fill:#DD2F45;}
	.st3{fill:#FFFFFF;}
</style>
<path class="st0" d="M18.6,20.9c-3.5,0.8-6,0.9-9,0.9c-0.7,0-2,0.4-1.5,2.4c0.8,3.9,6.4,7.8,12.6,6.5c6.3-1.3,9.7-7.2,8.9-11.1
	c-0.4-2-1.7-1.8-2.4-1.5C24.4,19.3,22.2,20.2,18.6,20.9z"/>
<path class="st1" d="M11,24v6c0,3,2,6,6,6s6-3,6-6v-6C23,24,11,24,11,24z"/>
<path class="st2" d="M17,31.9c0.3,0,0.5-0.2,0.5-0.5V25h-1.1v6.3C16.5,31.6,16.7,31.9,17,31.9z"/>
<path class="st3" d="M10,23.8c0,0,3.1,0.3,9-0.9s8.6-2.9,8.6-2.9s-1.1,4.3-8,5.8S10,23.8,10,23.8z"/>
</svg>
