<?xml version="1.0" encoding="utf-8"?>
<!-- Generator: Adobe Illustrator 23.0.1, SVG Export Plug-In . SVG Version: 6.00 Build 0)  -->
<svg version="1.1" xmlns="http://www.w3.org/2000/svg" xmlns:xlink="http://www.w3.org/1999/xlink" x="0px"
	 y="0px" viewBox="0 0 36 36" width="36px" height="36px" style="enable-background:new 0 0 36 36;" xml:space="preserve">
<path fill="#FFFFFF" d="M30.3,12.1c-0.9,2.7-3.5,4.7-6.5,4.7c-0.1,0-0.3,0-0.4,0c-1.5-0.1-2.8-0.7-4-1.6c0,0.5,0.1,1,0.1,1.5
	c0.2,1.4,0.9,2.5,2.1,3.2c0.8,0.5,1.8,0.7,2.8,0.8c1.7,0.1,3.6-0.3,4.9-0.9c1.4-0.7,2.3-1.9,2.5-3.3C32,15,31.5,13.5,30.3,12.1z"/>
<path fill="#65471B" d="M21.4,7.6c-1.3,0.6-1.9,2.3-2,5.3l0,0.1c0.9,1.3,2.4,2.2,4.1,2.3c0.1,0,0.2,0,0.3,0c2.6,0,4.8-1.9,5.3-4.5
	c-0.1-0.1-0.2-0.2-0.3-0.3C25,7.3,22.3,7.2,21.4,7.6z"/>
<path fill="#F4900C" d="M23.8,16.8c3,0,5.6-2,6.5-4.7c-0.4-0.4-0.8-0.9-1.2-1.3c-0.4,2.6-2.6,4.5-5.3,4.5c-0.1,0-0.2,0-0.3,0
	c-1.7-0.1-3.2-1-4.1-2.3l0-0.1c0,0.7,0,1.5,0.1,2.3c1.1,0.9,2.5,1.5,4,1.6C23.6,16.8,23.7,16.8,23.8,16.8z"/>
<circle fill="#FFFFFF" cx="21.4" cy="10.7" r="1.1"/>
<path fill="#FFFFFF" d="M12.2,16.8c-3,0-5.6-2-6.5-4.7c-1.2,1.5-1.7,3-1.5,4.4c0.2,1.4,1.1,2.6,2.5,3.3c1.3,0.6,3.1,1,4.9,0.9
	c1-0.1,2-0.3,2.8-0.8c1.2-0.7,2-1.8,2.1-3.2c0.1-0.5,0.1-1,0.1-1.5c-1.1,0.9-2.5,1.5-3.9,1.6C12.4,16.8,12.3,16.8,12.2,16.8z"/>
<path fill="#65471B" d="M12.2,15.3c0.1,0,0.2,0,0.3,0c1.7-0.1,3.2-1,4.1-2.3l0-0.1c0-3-0.7-4.7-2-5.3c-0.9-0.4-3.7-0.3-7.4,2.9
	c-0.1,0.1-0.2,0.2-0.3,0.3C7.3,13.3,9.5,15.3,12.2,15.3z"/>
<path fill="#F4900C" d="M16.6,12.9L16.6,12.9c-0.9,1.4-2.4,2.3-4.1,2.4c-0.1,0-0.2,0-0.3,0c-2.6,0-4.8-1.9-5.3-4.5
	c-0.5,0.4-0.9,0.9-1.2,1.3c0.9,2.7,3.5,4.7,6.5,4.7c0.1,0,0.3,0,0.4,0c1.5-0.1,2.8-0.7,3.9-1.6C16.6,14.3,16.6,13.6,16.6,12.9z"/>
<path fill="#FFFFFF" d="M9.8,11.8c0.6,0,1.1-0.6,1-1.2c0-0.6-0.6-1.1-1.2-1s-1.1,0.6-1,1.2C8.6,11.4,9.2,11.8,9.8,11.8z"/>
</svg>
