<?xml version="1.0" encoding="utf-8"?>
<!-- Generator: Adobe Illustrator 23.0.1, SVG Export Plug-In . SVG Version: 6.00 Build 0)  -->
<svg version="1.1" xmlns="http://www.w3.org/2000/svg" xmlns:xlink="http://www.w3.org/1999/xlink" x="0px"
	 y="0px" viewBox="0 0 36 36" width="36px" height="36px" style="enable-background:new 0 0 36 36;" xml:space="preserve">
<path fill="#664500" d="M8.1,21.4c-0.2,0-0.4,0-0.5-0.2c-0.5-0.3-0.6-0.9-0.3-1.4c0.9-1.5,3.7-3.9,7.7-3c0.5,0.1,0.9,0.7,0.7,1.2
	c-0.1,0.5-0.7,0.9-1.2,0.7C10.9,17.9,9,20.9,9,20.9C8.8,21.2,8.4,21.4,8.1,21.4z M20.1,17.6c-0.3,0-0.6-0.1-0.8-0.4
	c-0.4-0.4-0.3-1.1,0.1-1.4c3.2-2.6,6.8-1.6,8.2-0.6c0.5,0.3,0.6,0.9,0.3,1.4c-0.3,0.5-0.9,0.6-1.4,0.3c-0.1-0.1-3.1-1.8-5.9,0.5
	C20.5,17.6,20.3,17.6,20.1,17.6z"/>
</svg>
