<?xml version="1.0" encoding="utf-8"?>
<!-- Generator: Adobe Illustrator 23.0.1, SVG Export Plug-In . SVG Version: 6.00 Build 0)  -->
<svg version="1.1" xmlns="http://www.w3.org/2000/svg" xmlns:xlink="http://www.w3.org/1999/xlink" x="0px"
	 y="0px" viewBox="0 0 36 36" width="36px" height="36px" style="enable-background:new 0 0 36 36;" xml:space="preserve">
<ellipse fill="#31373D" cx="15.6" cy="23.7" rx="1.4" ry="1"/>
<path fill="#31373D" d="M21.9,23.7c0,0.6-0.6,1-1.4,1c-0.8,0-1.4-0.4-1.4-1s0.6-1,1.4-1S21.9,23.1,21.9,23.7z"/>
<path fill="#99AAB5" d="M21,21c-2-0.3-3,0.8-3,0.8s-1.1-1.1-3-0.8c-3.2,0.4-3.3,3.3-1.9,3.1c0.8-0.1,0.1-0.9,1.7-1.6
	c1.6-0.6,3.2,0.7,3.2,0.7s1.7-1.3,3.2-0.7s0.9,1.5,1.7,1.6C24.3,24.3,24.2,21.5,21,21z"/>
</svg>
