<?xml version="1.0" encoding="utf-8"?>
<!-- Generator: Adobe Illustrator 23.0.1, SVG Export Plug-In . SVG Version: 6.00 Build 0)  -->
<svg version="1.1" xmlns="http://www.w3.org/2000/svg" xmlns:xlink="http://www.w3.org/1999/xlink" x="0px"
	 y="0px" viewBox="0 0 36 36" width="36px" height="36px" style="enable-background:new 0 0 36 36;" xml:space="preserve">
<path fill="#664500" d="M29,14c-0.3,0-0.5-0.1-0.7-0.3c-2.6-2.6-7.1-1.7-7.1-1.7c-0.5,0.1-1.1-0.2-1.2-0.8c-0.1-0.5,0.2-1.1,0.8-1.2
	c0.2,0,5.6-1.1,8.9,2.3c0.4,0.4,0.4,1,0,1.4C29.5,13.9,29.3,14,29,14z M7,14c-0.3,0-0.5-0.1-0.7-0.3c-0.4-0.4-0.4-1,0-1.4
	C9.6,9,15,10,15.2,10c0.5,0.1,0.9,0.6,0.8,1.2c-0.1,0.5-0.6,0.9-1.2,0.8c-0.1,0-4.5-0.8-7.1,1.7C7.5,13.9,7.3,14,7,14z M26,19
	c-0.3,0-0.5-0.1-0.7-0.3c-1.3-1.3-4.1-1-5.1-0.7c-0.5,0.1-1.1-0.2-1.2-0.7c-0.1-0.5,0.2-1.1,0.7-1.2c0.2,0,4.6-1.1,6.9,1.3
	c0.4,0.4,0.4,1,0,1.4C26.5,18.9,26.3,19,26,19z M10,19c-0.3,0-0.5-0.1-0.7-0.3c-0.4-0.4-0.4-1,0-1.4c2.4-2.4,6.8-1.3,6.9-1.3
	c0.5,0.1,0.9,0.7,0.7,1.2c-0.1,0.5-0.7,0.9-1.2,0.7c-1-0.2-3.7-0.6-5.1,0.7C10.5,18.9,10.3,19,10,19z"/>
</svg>
