<?xml version="1.0" encoding="utf-8"?>
<!-- Generator: Adobe Illustrator 23.0.1, SVG Export Plug-In . SVG Version: 6.00 Build 0)  -->
<svg version="1.1" xmlns="http://www.w3.org/2000/svg" xmlns:xlink="http://www.w3.org/1999/xlink" x="0px"
	 y="0px" viewBox="0 0 36 36" width="36px" height="36px" style="enable-background:new 0 0 36 36;" xml:space="preserve">
<path fill="#F4900C" d="M32.7,8.5C29.4,5.1,23.4,4.7,18,4.7S6.6,5.1,3.3,8.5C0.6,11.3,0,15.8,0,19.8C0,25.1,2,31.1,6.4,34
	c3,2,7.6,1.8,11.6,1.8s8.6,0.2,11.6-1.8c4.4-2.9,6.4-9,6.4-14.2C36,15.8,35.4,11.3,32.7,8.5z"/>
<path fill="#3F7123" d="M20.8,5.4c0.1,0.4-0.2,0.8-0.6,0.8h-4.5c-0.4,0-0.7-0.3-0.6-0.8L15.8,1c0.1-0.4,0.5-0.8,0.9-0.8h2.5
	C19.6,0.2,20,0.6,20,1C20,1,20.8,5.4,20.8,5.4z"/>
</svg>
