<?xml version="1.0" encoding="utf-8"?>
<!-- Generator: Adobe Illustrator 23.0.1, SVG Export Plug-In . SVG Version: 6.00 Build 0)  -->
<svg version="1.1" id="レイヤー_1" xmlns="http://www.w3.org/2000/svg" xmlns:xlink="http://www.w3.org/1999/xlink" x="0px"
	 y="0px" viewBox="0 0 36 36" style="enable-background:new 0 0 36 36;" xml:space="preserve">
<style type="text/css">
	.st0{fill:#99AAB5;}
	.st1{fill:#66757F;}
</style>
<path class="st0" d="M36,13.5C36,8.9,32.9,7,29,7c-1.6,0-3.3,0.4-4.7,1c-1.8-1.2-3.9-2-6.3-2s-4.5,0.7-6.3,2C10.3,7.4,8.6,7,7,7
	c-3.9,0-7,1.9-7,6.5c0,3.8,2.1,6.4,5,7.2C5,21.3,5,21.8,5,22.3c0,5.7,4.5,7.7,8.6,8.3c1.1,0.8,2.7,1.3,4.4,1.3s3.4-0.5,4.4-1.3
	c4.1-0.7,8.6-2.6,8.6-8.3c0-0.5,0-1.1-0.1-1.6C33.9,19.9,36,17.4,36,13.5z"/>
<path class="st1" d="M9.6,9.9c-0.3,0-0.6-0.1-1-0.1C5.5,9.8,3,11.3,3,15c0,2.2,0.8,3.8,2.1,4.8C5.6,16.1,7.1,12.4,9.6,9.9z
	 M27.4,9.8c-0.3,0-0.6,0-1,0.1c2.4,2.6,3.9,6.2,4.4,10c1.3-1,2.1-2.7,2.1-4.8C33,11.3,30.5,9.8,27.4,9.8z"/>
</svg>
