<?xml version="1.0" encoding="utf-8"?>
<!-- Generator: Adobe Illustrator 23.0.1, SVG Export Plug-In . SVG Version: 6.00 Build 0)  -->
<svg version="1.1" id="レイヤー_1" xmlns="http://www.w3.org/2000/svg" xmlns:xlink="http://www.w3.org/1999/xlink" x="0px"
	 y="0px" viewBox="0 0 36 36" style="enable-background:new 0 0 36 36;" xml:space="preserve">
<style type="text/css">
	.st0{fill:#FFCC4D;}
	.st1{fill:#F18F26;}
	.st2{fill:#FEE7B8;}
</style>
<path class="st0" d="M32.3,14c0,0,3.4-8.8,1.7-12c-0.6-1.1-8,2-10.7,5.4c0,0-2.6-0.9-5.3-0.9s-5.3,0.9-5.3,0.9C10,4,2.6,0.9,2,2
	C0.2,5.2,3.7,14,3.7,14c-0.9,1.7-1.2,4.3-1.6,7.2c-0.4,3.1,0.3,5.5,0.7,6.1c0.3,0.6,2.1,2.6,4.5,4.3c3.6,2.6,9,3.4,10.8,3.4
	s7.2-0.9,10.8-3.4c2.4-1.7,4.1-3.7,4.5-4.3c0.3-0.5,1-3,0.7-6.1C33.6,18.3,33.2,15.7,32.3,14z"/>
<path class="st1" d="M2.4,3c0.2-0.6,5.3,2.2,6.5,5.4c0,0-3.8,2.6-4.5,4.6C4.3,13,1.4,6,2.4,3z"/>
<path class="st0" d="M6,7.3c0-1.4,5.5,2.7,4.5,3.7s-1.3,0.7-2.3,1.7S6,8.3,6,7.3z"/>
<path class="st1" d="M33.6,3c-0.2-0.6-5.3,2.2-6.5,5.4c0,0,3.8,2.6,4.5,4.6C31.7,13,34.6,6,33.6,3z"/>
<path class="st0" d="M30,7.3c0-1.4-5.5,2.7-4.5,3.7s1.3,0.7,2.3,1.7S30,8.3,30,7.3z"/>
<path class="st2" d="M2.2,30.5c-0.1,0-0.3-0.1-0.4-0.2c-0.2-0.2-0.1-0.5,0.1-0.7c0.2-0.1,4-3.1,10.6-2.6c0.3,0,0.5,0.3,0.5,0.5
	S12.7,28,12.5,28c-6.2-0.5-9.9,2.4-10,2.4C2.4,30.4,2.3,30.5,2.2,30.5z M11.1,25.8c0,0-0.1,0-0.1,0c-4.8-1.5-8.7-0.3-8.8-0.3
	c-0.3,0.1-0.5-0.1-0.6-0.3c-0.1-0.3,0.1-0.5,0.3-0.6c0.2-0.1,4.3-1.2,9.4,0.3c0.3,0.1,0.4,0.4,0.3,0.6
	C11.5,25.7,11.3,25.8,11.1,25.8z M33.8,30.5c0.1,0,0.3-0.1,0.4-0.2c0.2-0.2,0.1-0.5-0.1-0.7c-0.2-0.1-4-3.1-10.6-2.6
	c-0.3,0-0.5,0.3-0.5,0.5c0,0.3,0.3,0.5,0.5,0.5c6.2-0.5,9.9,2.4,10,2.4C33.6,30.4,33.7,30.5,33.8,30.5z M24.9,25.8c0,0,0.1,0,0.1,0
	c4.8-1.5,8.7-0.3,8.8-0.3c0.3,0.1,0.5-0.1,0.6-0.3c0.1-0.3-0.1-0.5-0.3-0.6c-0.2-0.1-4.3-1.2-9.4,0.3c-0.3,0.1-0.4,0.4-0.3,0.6
	C24.5,25.7,24.7,25.8,24.9,25.8z"/>
<path class="st1" d="M18,17.2c-0.3,0-0.5-0.2-0.5-0.5V8.4c0-0.3,0.2-0.5,0.5-0.5s0.5,0.2,0.5,0.5v8.3C18.5,16.9,18.3,17.2,18,17.2z
	 M21,15.6c-0.3,0-0.5-0.2-0.5-0.5c0-2.9,1.2-5.2,1.3-5.3c0.1-0.2,0.4-0.3,0.7-0.2c0.2,0.1,0.3,0.4,0.2,0.7c0,0-1.2,2.2-1.2,4.8
	C21.5,15.3,21.3,15.6,21,15.6z M15,15.6c-0.3,0-0.5-0.2-0.5-0.5c0-2.6-1.2-4.8-1.2-4.8c-0.1-0.2,0-0.5,0.2-0.7
	c0.2-0.1,0.5,0,0.7,0.2c0.1,0.1,1.3,2.4,1.3,5.3C15.5,15.3,15.3,15.6,15,15.6z"/>
</svg>
