<?xml version="1.0" encoding="utf-8"?>
<!-- Generator: Adobe Illustrator 23.0.1, SVG Export Plug-In . SVG Version: 6.00 Build 0)  -->
<svg version="1.1" xmlns="http://www.w3.org/2000/svg" xmlns:xlink="http://www.w3.org/1999/xlink" x="0px"
	 y="0px" viewBox="0 0 36 36" width="36px" height="36px" style="enable-background:new 0 0 36 36;" xml:space="preserve">
<path fill="#BF6952" d="M33.5,23.2c0.4-1.6,0.2-3.3-0.5-4.9c-0.7-1.6-1.8-2.9-3.3-3.8c0.3-1.2,0.2-2.5-0.3-3.8
	c-0.8-1.9-2.7-3.2-4.7-3.6c0.2-0.6,0.3-1.3,0-2.2c-1-3-5-1-8-5c-2.4,1.5-3,3.6-2.9,5.5c-2.4,0.4-3.8,0.9-3.8,0.9v0
	C8.8,7,7.8,8.3,7.8,9.9c0,0.9,0.3,1.7,0.8,2.3l-0.7,0.3l0,0c-2.3,0.9-4,3-4,5.4c0,1,0.3,2,0.8,2.9C2,22,0,24.8,0,28
	c0,4.4,3.7,8,8.2,8c3.3,0,6.6-0.7,9.5-1.7c2.2,1,5.7,1.7,10.9,1.7c4,0,7.3-3.3,7.3-7.3C36,26.5,35,24.5,33.5,23.2z"/>
</svg>
