<?xml version="1.0" encoding="utf-8"?>
<!-- Generator: Adobe Illustrator 23.0.1, SVG Export Plug-In . SVG Version: 6.00 Build 0)  -->
<svg version="1.1" xmlns="http://www.w3.org/2000/svg" xmlns:xlink="http://www.w3.org/1999/xlink" x="0px"
	 y="0px" viewBox="0 0 36 36" width="36px" height="36px" style="enable-background:new 0 0 36 36;" xml:space="preserve">
<circle fill="#AA8DD8" cx="18" cy="18" r="18"/>
<path fill="#AA8DD8" d="M10,4C7.4,4,4.4,1.5,3.4,0.6C2.8,0,2-0.2,1.2,0.2C0.5,0.5,0,1.2,0,2c0,3.5,1.7,10,8,10c0.8,0,1.4-0.4,1.8-1.1
	l2-4c0.3-0.6,0.3-1.4-0.1-1.9C11.3,4.4,10.7,4,10,4z M34.8,0.2C34-0.2,33.2,0,32.6,0.6C31.7,1.5,28.6,4,26,4c-0.7,0-1.3,0.4-1.7,0.9
	c-0.4,0.6-0.4,1.3-0.1,1.9l2,4c0.3,0.7,1,1.1,1.8,1.1c6.3,0,8-6.5,8-10C36,1.2,35.5,0.5,34.8,0.2z"/>
</svg>
