<?xml version="1.0" encoding="utf-8"?>
<!-- Generator: Adobe Illustrator 23.0.1, SVG Export Plug-In . SVG Version: 6.00 Build 0)  -->
<svg version="1.1" xmlns="http://www.w3.org/2000/svg" xmlns:xlink="http://www.w3.org/1999/xlink" x="0px"
	 y="0px" viewBox="0 0 36 36" width="36px" height="36px" style="enable-background:new 0 0 36 36;" xml:space="preserve">
<path fill="#FFCC4D" d="M36,18c0,9.9-8.1,18-18,18C8.1,36,0,27.9,0,18C0,8.1,8.1,0,18,0C27.9,0,36,8.1,36,18"/>
<path fill="#BDDDF4" d="M18,11c8.7,0,16,4.5,17.7,10.5c0.2-1.1,0.3-2.3,0.3-3.5c0-9.9-8.1-18-18-18C8.1,0,0,8.1,0,18
	c0,1.2,0.1,2.4,0.3,3.5C2,15.5,9.3,11,18,11z"/>
</svg>
