<?xml version="1.0" encoding="utf-8"?>
<!-- Generator: Adobe Illustrator 23.0.1, SVG Export Plug-In . SVG Version: 6.00 Build 0)  -->
<svg version="1.1" xmlns="http://www.w3.org/2000/svg" xmlns:xlink="http://www.w3.org/1999/xlink" x="0px"
	 y="0px" viewBox="0 0 36 36" width="36px" height="36px" style="enable-background:new 0 0 36 36;" xml:space="preserve">
<path fill="#FEE7B8" d="M36,18c0,9.9-8.1,18-18,18S0,27.9,0,18S8.1,0,18,0S36,8.1,36,18"/>
<path fill="none" d="M27.3,23.6c-0.2-0.2-0.4-0.2-0.6,0c0,0-3.9,2.9-8.7,2.9c-4.8,0-8.7-2.9-8.7-2.9c-0.2-0.1-0.5-0.1-0.6,0
	c-0.2,0.2-0.2,0.4-0.1,0.6C8.7,24.5,11.8,31,18,31s9.3-6.5,9.4-6.7C27.6,24.1,27.5,23.8,27.3,23.6z"/>
</svg>
