<?xml version="1.0" encoding="utf-8"?>
<!-- Generator: Adobe Illustrator 23.0.1, SVG Export Plug-In . SVG Version: 6.00 Build 0)  -->
<svg version="1.1" xmlns="http://www.w3.org/2000/svg" xmlns:xlink="http://www.w3.org/1999/xlink" x="0px"
	 y="0px" viewBox="0 0 36 36" width="36px" height="36px" style="enable-background:new 0 0 36 36;" xml:space="preserve">
<circle fill="#FFCC4D" cx="17" cy="19" r="17"/>
<path fill="#DD2E44" d="M17.2,2.7c0,0-0.1-0.1-0.2-0.1c0,0-15.9-3-16.6-2.4C-0.3,0.8,0.7,17,0.7,17c0,0.1,0,0.1,0.1,0.2
	c0.6,0.7,4.8-2,9.3-6C14.6,7.2,17.8,3.4,17.2,2.7z"/>
<path fill="#EA596E" d="M0.3,0.3c0,0,0,0.1,0,0.1C0.5,1.8,2,13,3,16.6c1.4-0.8,2.9-1.9,4.6-3.3C6.1,10.7,1.2,0.1,0.3,0.3z"/>
</svg>
