<?xml version="1.0" encoding="utf-8"?>
<!-- Generator: Adobe Illustrator 23.0.1, SVG Export Plug-In . SVG Version: 6.00 Build 0)  -->
<svg version="1.1" id="レイヤー_1" xmlns="http://www.w3.org/2000/svg" xmlns:xlink="http://www.w3.org/1999/xlink" x="0px"
	 y="0px" viewBox="0 0 36 36" style="enable-background:new 0 0 36 36;" xml:space="preserve">
<style type="text/css">
	.st0{fill:#31373D;}
	.st1{fill:#66757F;}
</style>
<path class="st0" d="M5,16c0-4-5-3-4,1s3,5,3,5L5,16z M31,16c0-4,5-3,4,1s-3,5-3,5L31,16z"/>
<path class="st0" d="M32.7,21.7c0,10.9-4.7,14.1-14.6,14.1c-10,0-14.7-3.2-14.7-14.1S8,0.3,18,0.3C28,0.3,32.7,10.8,32.7,21.7z"/>
<path class="st1" d="M27.6,23c1.5-4.5,2.1-7.3-0.4-7.3H8.9c-2.5,0-1.9,2.9-0.4,7.3C3.5,34.2,17.2,34.8,18,34.8S32.3,33.8,27.6,23z"
	/>
<path class="st1" d="M4.3,16.6c1.4-1.2-1.1-3.8-2.2-2.5c-0.3,0.4,0.9-0.2,1.3,1.1C3.7,16.1,3.4,17.4,4.3,16.6z M31.7,16.6
	c-1.4-1.2,1.1-3.8,2.2-2.5c0.3,0.4-0.9-0.2-1.3,1.1C32.3,16.1,32.6,17.4,31.7,16.6z"/>
</svg>
