<?xml version="1.0" encoding="utf-8"?>
<!-- Generator: Adobe Illustrator 23.0.1, SVG Export Plug-In . SVG Version: 6.00 Build 0)  -->
<svg version="1.1" xmlns="http://www.w3.org/2000/svg" xmlns:xlink="http://www.w3.org/1999/xlink" x="0px"
	 y="0px" viewBox="0 0 36 36" width="36px" height="36px" style="enable-background:new 0 0 36 36;" xml:space="preserve">
<path fill="#FFCC4D" d="M35.7,19.9C35.4,16.7,35,15,34,13c0,0,3-9,1-12.7C34.3-0.9,27.6,2,25,4c0,0-4-1-7-1s-7,1-7,1
	C8.4,2,1.7-0.9,1,0.3C-1,4,2,13,2,13c-1,2-1.4,3.7-1.7,6.9C-0.1,23.5,0.7,26.4,1,27c0.4,0.7,2.4,3,5,5c4,3,10,4,12,4s8-1,12-4
	c2.6-2,4.6-4.3,5-5C35.3,26.4,36.1,23.5,35.7,19.9z"/>
<path fill="#F18F26" d="M2,3c0.4-1.3,5.6,1,6.6,2C8.6,5,4,8,3,11C3,11,1,6,2,3z M34,3c-0.4-1.3-5.6,1-6.6,2c0,0,4.6,3,5.6,6
	C33,11,35,6,34,3z"/>
<path fill="#FFCC4D" d="M4.9,5.6C4.9,4.2,11,7,10,8s-2,1.6-3,2.6S4.9,6.6,4.9,5.6z M31.1,5.6C31.1,4.2,25,7,26,8s2,1.6,3,2.6
	S31.1,6.6,31.1,5.6z"/>
<path fill="#FEE7B8" d="M0.7,25c-0.1,0-0.3-0.1-0.4-0.2c-0.2-0.2-0.1-0.5,0.1-0.7C0.6,24,4.4,21,11,21.5c0.3,0,0.5,0.3,0.5,0.5
	s-0.3,0.5-0.5,0.5C4.7,22,1,24.9,1,24.9C0.9,25,0.8,25,0.7,25z M9.6,20.3c0,0-0.1,0-0.1,0C4.6,18.8,0.7,20,0.6,20
	c-0.3,0.1-0.5-0.1-0.6-0.3c-0.1-0.3,0.1-0.5,0.3-0.6c0.2-0.1,4.3-1.2,9.4,0.3c0.3,0.1,0.4,0.4,0.3,0.6C10,20.2,9.8,20.3,9.6,20.3z
	 M35.3,25c0.1,0,0.3-0.1,0.4-0.2c0.2-0.2,0.1-0.5-0.1-0.7c-0.2-0.1-4-3.1-10.6-2.6c-0.3,0-0.5,0.3-0.5,0.5c0,0.3,0.3,0.5,0.5,0.5
	c6.2-0.5,9.9,2.4,10,2.4C35.1,25,35.2,25,35.3,25z M26.4,20.3c0,0,0.1,0,0.1,0c4.8-1.5,8.7-0.3,8.8-0.3c0.3,0.1,0.5-0.1,0.6-0.3
	c0.1-0.3-0.1-0.5-0.3-0.6c-0.2-0.1-4.3-1.2-9.4,0.3C26,19.4,25.9,19.7,26,20C26,20.2,26.2,20.3,26.4,20.3z"/>
</svg>
