<?xml version="1.0" encoding="utf-8"?>
<!-- Generator: Adobe Illustrator 23.0.1, SVG Export Plug-In . SVG Version: 6.00 Build 0)  -->
<svg version="1.1" xmlns="http://www.w3.org/2000/svg" xmlns:xlink="http://www.w3.org/1999/xlink" x="0px"
	 y="0px" viewBox="0 0 36 36" width="36px" height="36px" style="enable-background:new 0 0 36 36;" xml:space="preserve">
<path fill="#664500" d="M8,15c-0.2,0-0.3,0-0.4-0.1c-0.5-0.2-0.7-0.8-0.4-1.3C7.2,13.4,8.4,11,12,11c3.6,0,4.8,2.4,4.9,2.6
	c0.2,0.5,0,1.1-0.4,1.3c-0.5,0.2-1.1,0-1.3-0.4c0-0.1-0.8-1.5-3.1-1.5c-2.3,0-3.1,1.4-3.1,1.4C8.7,14.8,8.4,15,8,15z M28,15
	c-0.4,0-0.7-0.2-0.9-0.6c0,0-0.8-1.4-3.1-1.4s-3.1,1.4-3.1,1.5c-0.3,0.5-0.9,0.7-1.3,0.4c-0.5-0.3-0.7-0.8-0.4-1.3
	c0.1-0.1,1.3-2.6,4.9-2.6s4.8,2.4,4.9,2.6c0.2,0.5,0,1.1-0.4,1.3C28.3,15,28.2,15,28,15z"/>
</svg>
