<?xml version="1.0" encoding="utf-8"?>
<!-- Generator: Adobe Illustrator 23.0.1, SVG Export Plug-In . SVG Version: 6.00 Build 0)  -->
<svg version="1.1" xmlns="http://www.w3.org/2000/svg" xmlns:xlink="http://www.w3.org/1999/xlink" x="0px"
	 y="0px" viewBox="0 0 36 36" width="36px" height="36px" style="enable-background:new 0 0 36 36;" xml:space="preserve">
<path fill="#664500" d="M28.3,15.6c-0.2-0.1-0.4-0.1-0.6,0c0,0-1.3,0.9-3.7,0.9c-2.4,0-3.7-0.9-3.7-0.9c-0.2-0.1-0.4-0.1-0.6,0
	c-0.2,0.1-0.2,0.4-0.1,0.6c0.1,0.1,1.5,3.3,4.5,3.3c3,0,4.4-3.2,4.5-3.3C28.5,16,28.5,15.8,28.3,15.6z M15.7,15.6
	c0,0-1.3,0.9-3.7,0.9c-2.4,0-3.7-0.9-3.7-0.9c-0.2-0.1-0.4-0.1-0.6,0c-0.2,0.1-0.2,0.4-0.1,0.6c0.1,0.1,1.5,3.3,4.5,3.3
	c3,0,4.4-3.2,4.5-3.3c0.1-0.2,0-0.4-0.1-0.6C16.1,15.5,15.9,15.5,15.7,15.6z M29,13c-0.3,0-0.6-0.1-0.8-0.4c-2.6-3.5-7-2.6-7-2.6
	c-0.5,0.1-1.1-0.2-1.2-0.8c-0.1-0.5,0.2-1.1,0.8-1.2c0.2,0,5.7-1.1,9,3.4c0.3,0.4,0.2,1.1-0.2,1.4C29.4,12.9,29.2,13,29,13z M7,13
	c-0.2,0-0.4-0.1-0.6-0.2c-0.4-0.3-0.5-1-0.2-1.4C9.5,6.9,15,8,15.2,8c0.5,0.1,0.9,0.6,0.8,1.2c-0.1,0.5-0.6,0.9-1.2,0.8
	c-0.2,0-4.4-0.8-7,2.6C7.6,12.9,7.3,13,7,13z"/>
</svg>
