<?xml version="1.0" encoding="utf-8"?>
<!-- Generator: Adobe Illustrator 23.0.1, SVG Export Plug-In . SVG Version: 6.00 Build 0)  -->
<svg version="1.1" xmlns="http://www.w3.org/2000/svg" xmlns:xlink="http://www.w3.org/1999/xlink" x="0px"
	 y="0px" viewBox="0 0 36 36" width="36px" height="36px" style="enable-background:new 0 0 36 36;" xml:space="preserve">
<path fill="#664500" d="M11.2,15.5c-0.3,0-0.6,0-0.9,0.1c-2.9,0.7-3.5,4.1-3.5,4.3c0,0.2,0.1,0.4,0.3,0.5c0.1,0,0.1,0,0.2,0
	c0.1,0,0.3-0.1,0.4-0.2c0,0,1-1.2,3.4-1.8c0.7-0.2,1.4-0.3,2.1-0.3c1.1,0,1.7,0.3,1.7,0.3c0.1,0,0.1,0,0.2,0c0.3,0,0.5-0.2,0.5-0.5
	c0-0.2-0.1-0.3-0.2-0.4C14.9,17.2,13.4,15.5,11.2,15.5z M24.8,15.5c0.3,0,0.6,0,0.9,0.1c2.9,0.7,3.5,4.1,3.5,4.3
	c0,0.2-0.1,0.4-0.3,0.5c-0.1,0-0.1,0-0.2,0c-0.1,0-0.3-0.1-0.4-0.2c0,0-1-1.2-3.4-1.8c-0.7-0.2-1.4-0.3-2.1-0.3
	c-1.1,0-1.7,0.3-1.7,0.3c-0.1,0-0.1,0-0.2,0c-0.3,0-0.5-0.2-0.5-0.5c0-0.2,0.1-0.3,0.2-0.4C21,17.2,22.6,15.5,24.8,15.5z"/>
</svg>
