<?xml version="1.0" encoding="utf-8"?>
<!-- Generator: Adobe Illustrator 23.0.1, SVG Export Plug-In . SVG Version: 6.00 Build 0)  -->
<svg version="1.1" xmlns="http://www.w3.org/2000/svg" xmlns:xlink="http://www.w3.org/1999/xlink" x="0px"
	 y="0px" viewBox="0 0 36 36" width="36px" height="36px" style="enable-background:new 0 0 36 36;" xml:space="preserve">
<path fill="#664500" d="M15.7,17.6c0,0-1.3,0.9-3.7,0.9c-2.4,0-3.7-0.9-3.7-0.9c-0.2-0.1-0.5-0.1-0.6,0c-0.2,0.2-0.2,0.4-0.1,0.6
	c0.1,0.1,1.5,2.2,4.4,2.2c2.9,0,4.4-2.1,4.4-2.2c0.1-0.2,0.1-0.5-0.1-0.6C16.2,17.5,15.9,17.5,15.7,17.6z M28.3,17.6
	c-0.2-0.2-0.4-0.2-0.6,0c0,0-1.3,0.9-3.7,0.9c-2.4,0-3.7-0.9-3.7-0.9c-0.2-0.1-0.5-0.1-0.6,0c-0.2,0.2-0.2,0.4-0.1,0.6
	c0.1,0.1,1.5,2.2,4.4,2.2c2.9,0,4.4-2.1,4.4-2.2C28.6,18.1,28.5,17.8,28.3,17.6z M31,16c-0.3,0-0.6-0.1-0.8-0.4
	C27.6,12.1,24.1,12,24,12c-0.5,0-1-0.5-1-1c0-0.6,0.4-1,1-1c0.2,0,4.5,0.1,7.8,4.4c0.3,0.4,0.2,1.1-0.2,1.4C31.4,15.9,31.2,16,31,16
	z M5,16c-0.2,0-0.4-0.1-0.6-0.2c-0.4-0.3-0.5-1-0.2-1.4C7.5,10,11.8,10,12,10c0.6,0,1,0.4,1,1c0,0.6-0.4,1-1,1
	c-0.2,0-3.6,0.1-6.2,3.6C5.6,15.9,5.3,16,5,16z"/>
</svg>
