<?xml version="1.0" encoding="utf-8"?>
<!-- Generator: Adobe Illustrator 23.0.1, SVG Export Plug-In . SVG Version: 6.00 Build 0)  -->
<svg version="1.1" xmlns="http://www.w3.org/2000/svg" xmlns:xlink="http://www.w3.org/1999/xlink" x="0px"
	 y="0px" viewBox="0 0 36 36" width="36px" height="36px" style="enable-background:new 0 0 36 36;" xml:space="preserve">
<path fill="#664500" d="M15.7,17.3C12.5,14,7.2,14,7,14c-0.6,0-1,0.4-1,1c0,0.6,0.4,1,1,1c0,0,1.9,0,4,0.7c-0.6,0.6-1,1.6-1,2.8
	c0,1.9,1.1,3.5,2.5,3.5s2.5-1.6,2.5-3.5c0-0.2,0-0.3,0-0.5c0,0,0,0,0,0c0.3,0,0.5-0.1,0.7-0.3C16.1,18.3,16.1,17.7,15.7,17.3z
	 M29,14c-0.2,0-5.5,0-8.7,3.3c-0.4,0.4-0.4,1,0,1.4c0.2,0.2,0.5,0.3,0.7,0.3c0,0,0,0,0,0c0,0.2,0,0.3,0,0.5c0,1.9,1.1,3.5,2.5,3.5
	s2.5-1.6,2.5-3.5c0-1.1-0.4-2.1-1-2.8c2.1-0.7,4-0.7,4-0.7c0.6,0,1-0.4,1-1C30,14.4,29.6,14,29,14z"/>
</svg>
