<?xml version="1.0" encoding="utf-8"?>
<!-- Generator: Adobe Illustrator 23.0.1, SVG Export Plug-In . SVG Version: 6.00 Build 0)  -->
<svg version="1.1" xmlns="http://www.w3.org/2000/svg" xmlns:xlink="http://www.w3.org/1999/xlink" x="0px"
	 y="0px" viewBox="0 0 36 36" width="36px" height="36px" style="enable-background:new 0 0 36 36;" xml:space="preserve">
<path fill="#664500" d="M29,10c-5.6,0-7.8-4.4-7.9-4.6c-0.2-0.5,0-1.1,0.4-1.3c0.5-0.2,1.1,0,1.3,0.4C23,4.7,24.7,8,29,8
	c0.6,0,1,0.4,1,1S29.6,10,29,10z M7,10c-0.6,0-1-0.4-1-1s0.4-1,1-1c5.1,0,6-3.1,6-3.3c0.1-0.5,0.7-0.8,1.2-0.7
	c0.5,0.1,0.9,0.7,0.7,1.2C14.9,5.4,13.7,10,7,10z"/>
<path fill="#664500" d="M6,19c-0.3,0-0.6-0.1-0.8-0.4c-0.3-0.4-0.2-1.1,0.2-1.4c0.1-0.1,3-2.2,6.9-2.9C9.8,13,7,13,7,13
	c-0.6,0-1-0.4-1-1c0-0.6,0.4-1,1-1c0.2,0,5.5,0,8.7,3.3c0.3,0.3,0.4,0.7,0.2,1.1C15.8,15.8,15.4,16,15,16c-4.6,0-8.4,2.8-8.4,2.8
	C6.4,18.9,6.2,19,6,19z M30,19c-0.2,0-0.4-0.1-0.6-0.2c0,0-3.8-2.8-8.4-2.8c-0.4,0-0.8-0.2-0.9-0.6c-0.2-0.4-0.1-0.8,0.2-1.1
	C23.5,11,28.8,11,29,11c0.6,0,1,0.4,1,1c0,0.6-0.4,1-1,1c0,0-2.8,0-5.3,1.3c3.9,0.8,6.7,2.8,6.9,2.9c0.4,0.3,0.5,1,0.2,1.4
	C30.6,18.9,30.3,19,30,19z"/>
</svg>
