<?xml version="1.0" encoding="utf-8"?>
<!-- Generator: Adobe Illustrator 23.0.1, SVG Export Plug-In . SVG Version: 6.00 Build 0)  -->
<svg version="1.1" xmlns="http://www.w3.org/2000/svg" xmlns:xlink="http://www.w3.org/1999/xlink" x="0px"
	 y="0px" viewBox="0 0 36 36" width="36px" height="36px" style="enable-background:new 0 0 36 36;" xml:space="preserve">
<path fill="#664500" d="M7,15c-0.3,0-0.6-0.2-0.8-0.4c-0.3-0.5-0.2-1.1,0.3-1.4C6.6,13.1,9.7,11,14,11c0.6,0,1,0.4,1,1s-0.4,1-1,1
	c-3.7,0-6.4,1.8-6.4,1.8C7.4,14.9,7.2,15,7,15z M29,15c-0.2,0-0.4-0.1-0.6-0.2c0,0-2.8-1.8-6.4-1.8c-0.6,0-1-0.4-1-1s0.4-1,1-1
	c4.3,0,7.4,2.1,7.6,2.2c0.5,0.3,0.6,0.9,0.3,1.4C29.6,14.8,29.3,15,29,15z"/>
</svg>
