<?xml version="1.0" encoding="utf-8"?>
<!-- Generator: Adobe Illustrator 23.0.1, SVG Export Plug-In . SVG Version: 6.00 Build 0)  -->
<svg version="1.1" xmlns="http://www.w3.org/2000/svg" xmlns:xlink="http://www.w3.org/1999/xlink" x="0px"
	 y="0px" viewBox="0 0 36 36" width="36px" height="36px" style="enable-background:new 0 0 36 36;" xml:space="preserve">
<circle fill="#F4F7F9" cx="24.5" cy="13.5" r="5.5"/>
<circle fill="#F4F7F9" cx="11.5" cy="13.5" r="5.5"/>
<path fill="#65471B" d="M10.5,13c1.4,0,2.5-1.1,2.5-2.5c0-1.3-0.9-2.3-2.1-2.5c-0.8,0.1-1.5,0.3-2.2,0.7C8.3,9.2,8,9.8,8,10.5
	C8,11.9,9.1,13,10.5,13z"/>
<path fill="#65471B" d="M23.5,13c1.4,0,2.5-1.1,2.5-2.5c0-1.3-0.9-2.3-2.1-2.5c-0.8,0.1-1.5,0.3-2.2,0.7C21.3,9.2,21,9.8,21,10.5
	C21,11.9,22.1,13,23.5,13z"/>
</svg>
