<?xml version="1.0" encoding="utf-8"?>
<!-- Generator: Adobe Illustrator 23.0.1, SVG Export Plug-In . SVG Version: 6.00 Build 0)  -->
<svg version="1.1" xmlns="http://www.w3.org/2000/svg" xmlns:xlink="http://www.w3.org/1999/xlink" x="0px"
	 y="0px" viewBox="0 0 36 36" width="36px" height="36px" style="enable-background:new 0 0 36 36;" xml:space="preserve">
<path fill="#664500" d="M27.7,11c-0.1-0.1-1.3-3-3.8-3c-2.5,0-3.8,2.9-3.8,3c-0.1,0.2,0,0.4,0.1,0.5c0.1,0.1,0.4,0.1,0.5,0
	c0,0,1.1-0.8,3.2-0.8c2.1,0,3.1,0.8,3.2,0.8c0.1,0.1,0.2,0.1,0.3,0.1c0.1,0,0.2,0,0.3-0.1C27.7,11.4,27.8,11.2,27.7,11z M16.7,11
	c-0.1-0.1-1.3-3-3.8-3c-2.5,0-3.8,2.9-3.8,3c-0.1,0.2,0,0.4,0.1,0.5c0.1,0.1,0.4,0.1,0.5,0c0,0,1.1-0.8,3.2-0.8
	c2.1,0,3.1,0.8,3.2,0.8c0.1,0.1,0.2,0.1,0.3,0.1c0.1,0,0.2,0,0.3-0.1C16.7,11.4,16.8,11.2,16.7,11z"/>
</svg>
