<?xml version="1.0" encoding="utf-8"?>
<!-- Generator: Adobe Illustrator 23.0.1, SVG Export Plug-In . SVG Version: 6.00 Build 0)  -->
<svg version="1.1" xmlns="http://www.w3.org/2000/svg" xmlns:xlink="http://www.w3.org/1999/xlink" x="0px"
	 y="0px" viewBox="0 0 36 36" width="36px" height="36px" style="enable-background:new 0 0 36 36;" xml:space="preserve">
<ellipse fill="#65471B" cx="13.1" cy="11.2" rx="2.1" ry="2.7"/>
<ellipse fill="#65471B" cx="24.4" cy="12.2" rx="2.1" ry="2.7"/>
<path fill="#65471B" d="M9.3,6.4C9.1,6.3,9,6.1,8.9,6C8.7,5.5,8.9,5,9.3,4.8c4.3-1.8,7.7,0,7.8,0c0.4,0.2,0.6,0.7,0.4,1.2
	c-0.2,0.4-0.7,0.5-1.2,0.3c-0.1-0.1-2.8-1.4-6.3,0C9.8,6.5,9.5,6.5,9.3,6.4z M21.4,10.1c-0.2-0.1-0.3-0.2-0.4-0.4
	c-0.2-0.4,0-0.9,0.5-1.1c4.4-1.5,7.7,0.5,7.8,0.6c0.4,0.3,0.6,0.8,0.3,1.2c-0.2,0.4-0.8,0.5-1.2,0.2c-0.1-0.1-2.7-1.6-6.3-0.4
	C21.9,10.3,21.7,10.2,21.4,10.1z"/>
</svg>
