<?xml version="1.0" encoding="utf-8"?>
<!-- Generator: Adobe Illustrator 23.0.1, SVG Export Plug-In . SVG Version: 6.00 Build 0)  -->
<svg version="1.1" xmlns="http://www.w3.org/2000/svg" xmlns:xlink="http://www.w3.org/1999/xlink" x="0px"
	 y="0px" viewBox="0 0 36 36" width="36px" height="36px" style="enable-background:new 0 0 36 36;" xml:space="preserve">
<path fill="#664500" d="M12.3,12.3c-0.8-0.3-1.5-0.6-1.5-1c0-0.7,0.9-0.7,1.1-0.7c0.6,0,0.9,0.2,1.2,0.4c0.2,0.2,0.4,0.3,0.7,0.3
	c0.6,0,0.8-0.4,0.8-0.8c0-0.7-0.9-1.3-1.9-1.5V8.8c0-0.5-0.4-0.9-0.9-0.9s-0.9,0.4-0.9,0.9v0.4c-1.1,0.3-1.8,1.2-1.8,2.2
	c0,1.3,1.3,1.8,2.4,2.3c0.8,0.3,1.6,0.7,1.6,1.2c0,0.4-0.5,0.8-1.2,0.8c-0.8,0-1.2-0.3-1.6-0.6c-0.3-0.2-0.5-0.4-0.8-0.4
	c-0.4,0-0.8,0.4-0.8,0.8c0,0.7,0.9,1.4,2.2,1.6v0.5c0,0.5,0.4,0.9,0.9,0.9s0.9-0.4,0.9-0.9l0-0.5c1.3-0.3,2.1-1.2,2.1-2.5
	C14.8,13.3,13.4,12.8,12.3,12.3z M26.7,14.7c0-1.4-1.4-1.9-2.6-2.4c-0.8-0.3-1.5-0.6-1.5-1c0-0.7,0.9-0.7,1.1-0.7
	c0.6,0,0.9,0.2,1.2,0.4c0.2,0.2,0.4,0.3,0.7,0.3c0.6,0,0.8-0.4,0.8-0.8c0-0.7-0.9-1.3-1.9-1.5V8.8c0-0.5-0.4-0.9-0.9-0.9
	c-0.5,0-0.9,0.4-0.9,0.9v0.4c-1.1,0.3-1.8,1.2-1.8,2.2c0,1.3,1.3,1.8,2.4,2.3c0.8,0.3,1.6,0.7,1.6,1.2c0,0.4-0.5,0.8-1.2,0.8
	c-0.8,0-1.2-0.3-1.6-0.6c-0.3-0.2-0.5-0.4-0.8-0.4c-0.4,0-0.8,0.4-0.8,0.8c0,0.7,0.9,1.4,2.2,1.6v0.5c0,0.5,0.4,0.9,0.9,0.9
	s0.9-0.4,0.9-0.9l0-0.5C25.9,16.9,26.7,16,26.7,14.7z"/>
</svg>
