<?xml version="1.0" encoding="utf-8"?>
<!-- Generator: Adobe Illustrator 23.0.1, SVG Export Plug-In . SVG Version: 6.00 Build 0)  -->
<svg version="1.1" xmlns="http://www.w3.org/2000/svg" xmlns:xlink="http://www.w3.org/1999/xlink" x="0px"
	 y="0px" viewBox="0 0 36 36" width="36px" height="36px" style="enable-background:new 0 0 36 36;" xml:space="preserve">
<path fill="#65471B" d="M24.3,6.7c-0.1,0-2.4,0.4-4.9,1.6c-0.1-0.1-0.1-0.2-0.2-0.3c-0.3-0.3-0.6-0.4-0.9-0.4c0.9-1.6,2-2.7,2-2.8
	c0.4-0.4,0.4-1,0-1.4s-1-0.4-1.4,0C18.6,3.6,15,7.3,15,11.9c0,0.4,0.2,0.8,0.6,0.9c0.4,0.2,0.8,0.1,1.1-0.2c3.2-3.2,7.9-4,7.9-4
	c0.2,0,0.4-0.1,0.6-0.3c0.2-0.2,0.3-0.5,0.3-0.8C25.3,7,24.8,6.6,24.3,6.7z M11.7,15.1c-4.6,0-8.3,3.7-8.5,3.8c-0.4,0.4-0.4,1,0,1.4
	c0.4,0.4,1,0.4,1.4,0c0,0,1.1-1.1,2.8-2c0,0.3,0.2,0.7,0.4,0.9c0.1,0.1,0.2,0.2,0.3,0.2c-1.3,2.6-1.6,4.8-1.6,4.9
	c-0.1,0.5,0.3,1.1,0.8,1.1c0.3,0,0.6-0.1,0.8-0.3c0.1-0.1,0.2-0.3,0.3-0.6c0,0,0.7-4.7,4-7.9c0.3-0.3,0.4-0.7,0.2-1.1
	C12.5,15.4,12.1,15.1,11.7,15.1z"/>
</svg>
