<?xml version="1.0" encoding="utf-8"?>
<!-- Generator: Adobe Illustrator 23.0.1, SVG Export Plug-In . SVG Version: 6.00 Build 0)  -->
<svg version="1.1" xmlns="http://www.w3.org/2000/svg" xmlns:xlink="http://www.w3.org/1999/xlink" x="0px"
	 y="0px" viewBox="0 0 36 36" width="36px" height="36px" style="enable-background:new 0 0 36 36;" xml:space="preserve">
<path fill="#65471B" d="M29.9,17.2c-0.1-0.1-1.8-1.3-4.4-2.2c0-0.1,0-0.2,0-0.3c0-0.3-0.1-0.7-0.3-0.9c1.7-0.5,3.1-0.5,3.2-0.5
	c0.5,0,0.9-0.4,0.9-0.9c0-0.5-0.4-0.9-0.9-0.9c-0.2,0-5.1,0-8.2,3.1c-0.3,0.3-0.4,0.7-0.2,1c0.1,0.4,0.5,0.6,0.9,0.6
	c4.3,0,7.9,2.6,7.9,2.6c0.2,0.1,0.4,0.2,0.6,0.2c0.3,0,0.6-0.1,0.8-0.4C30.4,18.1,30.3,17.5,29.9,17.2z M15.8,14.4
	c-3.1-3.1-8-3.1-8.2-3.1c-0.5,0-0.9,0.4-0.9,0.9c0,0.5,0.4,0.9,0.9,0.9c0,0,1.5,0,3.2,0.5c-0.2,0.2-0.3,0.6-0.3,0.9
	c0,0.1,0,0.2,0,0.3c-2.6,0.9-4.3,2.1-4.4,2.2c-0.4,0.3-0.5,0.9-0.2,1.3c0.2,0.2,0.5,0.4,0.8,0.4c0.2,0,0.4-0.1,0.6-0.2
	c0,0,3.6-2.6,7.9-2.6c0.4,0,0.7-0.2,0.9-0.6C16.2,15.1,16.1,14.7,15.8,14.4z"/>
</svg>
