<?xml version="1.0" encoding="utf-8"?>
<!-- Generator: Adobe Illustrator 23.0.1, SVG Export Plug-In . SVG Version: 6.00 Build 0)  -->
<svg version="1.1" xmlns="http://www.w3.org/2000/svg" xmlns:xlink="http://www.w3.org/1999/xlink" x="0px"
	 y="0px" viewBox="0 0 36 36" width="36px" height="36px" style="enable-background:new 0 0 36 36;" xml:space="preserve">
<path fill="#E95F28" d="M15.7,4.4l-4.5,0.8L8.8,1C8.5,0.5,8,0.2,7.5,0.3c-0.5,0.1-0.9,0.5-1,1L5.7,6.2L1.2,7C0.6,7.1,0.2,7.5,0.2,8
	s0.2,1.1,0.7,1.3l4.1,1.9l-0.7,4.8c-0.1,0.5,0.2,1.1,0.7,1.3c0.2,0.1,0.4,0.1,0.6,0.1c0.3,0,0.7-0.1,0.9-0.4l3.5-3.6l4.5,2.1
	c0.5,0.2,1.1,0.1,1.4-0.3c0.4-0.4,0.4-1,0.2-1.5l-2.3-4.3l3.2-3.2c0.4-0.4,0.5-1,0.2-1.5C16.8,4.6,16.2,4.3,15.7,4.4z M20.3,4.4
	l4.5,0.8L27.2,1c0.3-0.5,0.8-0.7,1.3-0.6c0.5,0.1,0.9,0.5,1,1l0.7,4.8L34.8,7c0.5,0.1,0.9,0.5,1,1.1s-0.2,1.1-0.7,1.3l-4.1,1.9
	l0.7,4.8c0.1,0.5-0.2,1.1-0.7,1.3c-0.2,0.1-0.4,0.1-0.6,0.1c-0.3,0-0.6-0.1-0.9-0.4l-3.5-3.6l-4.5,2.1c-0.5,0.2-1.1,0.1-1.4-0.3
	s-0.4-1-0.2-1.5l2.3-4.3l-3.2-3.2c-0.4-0.4-0.5-1-0.2-1.5C19.2,4.6,19.8,4.3,20.3,4.4z"/>
</svg>
