<?xml version="1.0" encoding="utf-8"?>
<!-- Generator: Adobe Illustrator 23.0.1, SVG Export Plug-In . SVG Version: 6.00 Build 0)  -->
<svg version="1.1" xmlns="http://www.w3.org/2000/svg" xmlns:xlink="http://www.w3.org/1999/xlink" x="0px"
	 y="0px" viewBox="0 0 36 36" width="36px" height="36px" style="enable-background:new 0 0 36 36;" xml:space="preserve">
<path fill="#65471B" d="M14.2,13.2c0,1.4-0.8,2.5-1.9,2.5s-1.9-1.1-1.9-2.5c0-1.4,0.8-2.5,1.9-2.5C13.4,10.7,14.2,11.8,14.2,13.2z
	 M29.9,10.3c0.2,0,0.4-0.1,0.6-0.2c0.5-0.4,0.6-1,0.2-1.5c-3.5-4.6-8.1-4.7-8.3-4.7c-0.6,0-1.1,0.5-1.1,1.1c0,0.6,0.5,1.1,1.1,1.1
	c0.2,0,3.8,0.1,6.6,3.8C29.2,10.1,29.6,10.3,29.9,10.3z M21.8,13.2c0,1.4,0.8,2.5,1.9,2.5s1.9-1.1,1.9-2.5c0-1.4-0.8-2.5-1.9-2.5
	C22.6,10.7,21.8,11.8,21.8,13.2z M6.1,10.3c-0.2,0-0.4-0.1-0.6-0.2C5,9.7,4.9,9,5.3,8.6c3.5-4.6,8.1-4.7,8.3-4.7
	c0.6,0,1.1,0.5,1.1,1.1c0,0.6-0.5,1.1-1.1,1.1C13.4,6,9.8,6.1,7,9.8C6.8,10.1,6.4,10.3,6.1,10.3z"/>
</svg>
