<?xml version="1.0" encoding="utf-8"?>
<!-- Generator: Adobe Illustrator 23.0.1, SVG Export Plug-In . SVG Version: 6.00 Build 0)  -->
<svg version="1.1" xmlns="http://www.w3.org/2000/svg" xmlns:xlink="http://www.w3.org/1999/xlink" x="0px"
	 y="0px" viewBox="0 0 36 36" width="36px" height="36px" style="enable-background:new 0 0 36 36;" xml:space="preserve">
<path fill="#65471B" d="M6,11c-0.6,0-1-0.4-1-1c0-0.6,0.4-1,1-1c0.2,0,3.6-0.1,6.2-3.6c0.3-0.4,1-0.5,1.4-0.2c0.4,0.3,0.5,1,0.2,1.4
	C10.5,10.9,6.2,11,6,11z M31,13.4c0.1,0.5-0.2,1.1-0.7,1.2c-0.5,0.1-1.1-0.2-1.2-0.7c0-0.2-0.9-3.5-4.9-5.2
	c-0.5-0.2-0.7-0.8-0.5-1.3c0.2-0.5,0.8-0.7,1.3-0.5C29.9,9,30.9,13.2,31,13.4z"/>
<path fill="#65471B" d="M14.8,15.4c-0.6,2.1-1.6,3.1-3.2,2.7c-1.5-0.4-2.3-1.9-1.8-4c0.6-2.1,2.2-3.4,3.7-2.9
	C15.1,11.5,15.4,13.3,14.8,15.4z M26.2,14.6c0.5,2.1-0.7,4.8-2.2,5.2s-3.3-1.7-3.8-3.9c-0.5-2.1,0.4-4,1.9-4.3S25.8,12.5,26.2,14.6z
	"/>
</svg>
