<?xml version="1.0" encoding="utf-8"?>
<!-- Generator: Adobe Illustrator 23.0.1, SVG Export Plug-In . SVG Version: 6.00 Build 0)  -->
<svg version="1.1" xmlns="http://www.w3.org/2000/svg" xmlns:xlink="http://www.w3.org/1999/xlink" x="0px"
	 y="0px" viewBox="0 0 36 36" width="36px" height="36px" style="enable-background:new 0 0 36 36;" xml:space="preserve">
<ellipse fill="#65471B" cx="12.2" cy="14.7" rx="2.6" ry="3.7"/>
<circle fill="#F4F7F9" cx="24.9" cy="14.3" r="6.9"/>
<path fill="#65471B" d="M14.8,9.9c-0.3,0-0.6-0.1-0.8-0.4c-1-1.3-2-2-3.1-2.1C9.5,7.3,8.4,8.4,8.2,8.6C7.7,9,7.1,9,6.7,8.6
	c-0.4-0.4-0.4-1.1,0-1.5C7.1,6.6,8.8,5.1,11,5.3c1.7,0.1,3.3,1.1,4.6,2.9c0.4,0.5,0.3,1.1-0.2,1.5C15.3,9.9,15,9.9,14.8,9.9z"/>
<path fill="#292F33" d="M32.8,36c-0.6,0-1.1-0.5-1.1-1.1V14.8c0-0.6,0.5-1.1,1.1-1.1s1.1,0.5,1.1,1.1v20.1C33.9,35.5,33.4,36,32.8,36z"
	/>
<path fill="#67757F" d="M32.8,12.7c-0.1,0-0.1,0-0.2,0c-0.7-3.6-3.9-6.4-7.8-6.4c-4.4,0-7.9,3.6-7.9,7.9s3.6,7.9,7.9,7.9
	c3.5,0,6.4-2.2,7.5-5.3c0.1,0,0.3,0,0.4,0c1.2,0,2.1-0.9,2.1-2.1C34.9,13.7,34,12.7,32.8,12.7z M24.9,20.1c-3.2,0-5.8-2.6-5.8-5.8
	s2.6-5.8,5.8-5.8c3.2,0,5.8,2.6,5.8,5.8S28.1,20.1,24.9,20.1z"/>
<path fill="#BDDDF4" d="M28,9.4c-0.9-0.6-2-0.9-3.2-0.9c-3.2,0-5.8,2.6-5.8,5.8c0,1.2,0.3,2.3,0.9,3.2L28,9.4z M22.4,19.6
	c0.8,0.4,1.6,0.6,2.5,0.6c3.2,0,5.8-2.6,5.8-5.8c0-0.9-0.2-1.7-0.6-2.5L22.4,19.6z"/>
</svg>
