<?xml version="1.0" encoding="utf-8"?>
<!-- Generator: Adobe Illustrator 23.0.1, SVG Export Plug-In . SVG Version: 6.00 Build 0)  -->
<svg version="1.1" xmlns="http://www.w3.org/2000/svg" xmlns:xlink="http://www.w3.org/1999/xlink" x="0px"
	 y="0px" viewBox="0 0 36 36" width="36px" height="36px" style="enable-background:new 0 0 36 36;" xml:space="preserve">
<path fill="#FFCC4D" d="M33,21c0,8.3-6.7,15-15,15S3,29.3,3,21S9.7,6,18,6S33,12.7,33,21"/>
<path fill="#664500" d="M32,6.1c-1.2,1.4-3.2,2-5.1,2.1C26.6,6.7,25.2,1,22.5,1c-2.4,0-3.3,1.1-4.5,1.1c-1.2,0-2.1-1.1-4.5-1.1
	c-2.7,0-4.1,5.7-4.4,7.3C7.2,8.1,5.2,7.6,4,6.1C1.8,3.5-1,5.4,0.4,8.3C2.7,12.8,8.2,16,18,16c9.8,0,15.3-3.2,17.6-7.7
	C37,5.4,34.2,3.5,32,6.1z"/>
<path fill="#825D0E" d="M21.5,3C19.6,3,19,4,18,4s-1.6-1-3.5-1C12,3,11,9.7,11,9.7s1.3,2.2,7,2.2c5.7,0,7-2.2,7-2.2S24,3,21.5,3z"/>
<path fill="#664500" d="M11,6c0,0,2.1,2,7,2c4.9,0,7-2,7-2v2c0,0-2.2,2-7,2s-7-2-7-2V6z"/>
</svg>
