<?xml version="1.0" encoding="utf-8"?>
<!-- Generator: Adobe Illustrator 23.0.1, SVG Export Plug-In . SVG Version: 6.00 Build 0)  -->
<svg version="1.1" xmlns="http://www.w3.org/2000/svg" xmlns:xlink="http://www.w3.org/1999/xlink" x="0px"
	 y="0px" viewBox="0 0 36 36" width="36px" height="36px" style="enable-background:new 0 0 36 36;" xml:space="preserve">
<path fill="#65471B" d="M15.5,15.8c-0.1-0.1-1.5-3.3-4.5-3.3c-3,0-4.4,3.2-4.5,3.3c-0.1,0.2,0,0.4,0.1,0.6c0.2,0.1,0.4,0.1,0.6,0
	c0,0,1.3-0.9,3.7-0.9c2.4,0,3.7,0.9,3.7,0.9c0.1,0.1,0.2,0.1,0.3,0.1c0.1,0,0.2,0,0.3-0.1C15.5,16.3,15.5,16,15.5,15.8z"/>
<path fill="#F4F7F9" d="M31,13.5c0,3.6-2.9,6.5-6.5,6.5S18,17.1,18,13.5S20.9,7,24.5,7S31,9.9,31,13.5z"/>
<circle fill="#292F33" cx="24.5" cy="13.5" r="2.5"/>
</svg>
