<?xml version="1.0" encoding="utf-8"?>
<!-- Generator: Adobe Illustrator 23.0.1, SVG Export Plug-In . SVG Version: 6.00 Build 0)  -->
<svg version="1.1" xmlns="http://www.w3.org/2000/svg" xmlns:xlink="http://www.w3.org/1999/xlink" x="0px"
	 y="0px" viewBox="0 0 36 36" width="36px" height="36px" style="enable-background:new 0 0 36 36;" xml:space="preserve">
<path fill="#664500" d="M31,11c-0.3,0-0.6-0.1-0.8-0.4C27.6,7.1,24.1,7,24,7c-0.5,0-1-0.5-1-1c0-0.6,0.4-1,1-1c0.2,0,4.5,0.1,7.8,4.4
	c0.3,0.4,0.2,1.1-0.2,1.4C31.4,10.9,31.2,11,31,11z M5,11c-0.2,0-0.4-0.1-0.6-0.2c-0.4-0.3-0.5-1-0.2-1.4C7.5,5,11.8,5,12,5
	c0.6,0,1,0.4,1,1c0,0.6-0.4,1-1,1c-0.2,0-3.6,0.1-6.2,3.6C5.6,10.9,5.3,11,5,11z"/>
<ellipse fill="#664500" cx="12" cy="14.5" rx="2.5" ry="3.5"/>
<ellipse fill="#664500" cx="24" cy="14.5" rx="2.5" ry="3.5"/>
</svg>
