<?xml version="1.0" encoding="utf-8"?>
<!-- Generator: Adobe Illustrator 23.0.1, SVG Export Plug-In . SVG Version: 6.00 Build 0)  -->
<svg version="1.1" xmlns="http://www.w3.org/2000/svg" xmlns:xlink="http://www.w3.org/1999/xlink" x="0px"
	 y="0px" viewBox="0 0 36 36" width="36px" height="36px" style="enable-background:new 0 0 36 36;" xml:space="preserve">
<path fill="#9B3C07" d="M28.1,26.4l-2.4-4.8L26,36c0,0,1.6-0.9,1.7-1.5C27.8,33.8,28.1,26.4,28.1,26.4z"/>
<path fill="#9B3C07" d="M8.3,34.5C8.4,35.1,10,36,10,36l0.3-14.4l-2.4,4.8C7.9,26.4,8.2,33.8,8.3,34.5z"/>
<ellipse fill="#292F33" cx="13" cy="17" rx="2" ry="3"/>
<ellipse fill="#292F33" cx="23" cy="17" rx="2" ry="3"/>
<path fill="#BF6952" d="M2,36h8L9,20.2L5,16L2,36z M34,36h-8l1-15.8l4-4.2L34,36z"/>
<path fill="#D79E84" d="M30.6,15.1c0,0,0.2-2.5,1.2-3.5c1.3-1.4,2.9-0.3,2.7,1.6c-0.4,7.1-2,9-4,10.2c-2,1.2-4.8,0.9-7.7-1.9
	s-4.2-4.6-4.5-5.8c-0.4-1.2,1-2.3,2.1-1.6c1,0.6,2.5,2.3,2.5,2.3s-1.9-2.7-2.2-3.7c-0.4-1.4,1.3-2.3,2.2-1.5
	c0.9,0.8,2.8,3.2,2.8,3.2s-1.6-2.5-1.8-3.7c-0.1-1.2,1.2-2.2,2.5-1.2C27.6,10.5,29.6,13.4,30.6,15.1z M5.4,15.1c0,0-0.2-2.5-1.2-3.5
	c-1.3-1.4-2.9-0.3-2.7,1.6c0.4,7.1,2,9,4,10.2c2,1.2,4.8,0.9,7.7-1.9s4.2-4.6,4.5-5.8c0.4-1.2-1-2.3-2.1-1.6c-1,0.6-2.5,2.3-2.5,2.3
	s1.9-2.7,2.2-3.7c0.4-1.4-1.3-2.3-2.2-1.5c-0.9,0.8-2.8,3.2-2.8,3.2s1.6-2.5,1.8-3.7c0.1-1.2-1.2-2.2-2.5-1.2S6.4,13.4,5.4,15.1z"/>
<path fill="#BF6952" d="M28.1,24.5c-1.8,0-3.8-0.9-5.6-2.7c-2.8-2.7-4.2-4.5-4.6-6c-0.2-0.8,0-1.6,0.7-2c0.6-0.5,1.4-0.5,2-0.2
	c-0.2-0.3-0.3-0.6-0.3-0.8c-0.2-0.9,0.1-1.7,0.8-2.1c0.7-0.5,1.6-0.4,2.2,0.1c0.1,0.1,0.2,0.2,0.3,0.3c0-0.1,0-0.2-0.1-0.3
	c-0.1-0.8,0.3-1.6,1-1.9c0.7-0.4,1.6-0.3,2.3,0.3c1.1,0.9,2.7,3.2,3.6,4.6c0.2-0.8,0.5-1.9,1.1-2.5c0.7-0.7,1.5-1,2.3-0.6
	c0.9,0.4,1.4,1.4,1.3,2.7c-0.4,7-2,9.3-4.3,10.6C29.9,24.3,29,24.5,28.1,24.5z M19.7,14.4c-0.2,0-0.4,0.1-0.6,0.2
	c-0.3,0.2-0.4,0.6-0.3,1c0.4,1.3,1.8,3.1,4.4,5.6c2.5,2.4,5,3,7.1,1.8c1.7-1,3.3-2.5,3.8-9.8c0.1-0.9-0.3-1.5-0.7-1.7
	c-0.4-0.2-0.8,0-1.2,0.4c-0.7,0.8-1,2.6-1.1,3.2c0,0.2-0.2,0.4-0.4,0.4c-0.2,0.1-0.4,0-0.5-0.2c-1-1.6-2.9-4.5-4.1-5.5
	c-0.5-0.4-0.9-0.3-1.2-0.2c-0.3,0.2-0.5,0.6-0.5,0.9c0.1,0.9,1.2,2.8,1.7,3.4c0.1,0.2,0.1,0.5-0.1,0.7c-0.2,0.2-0.5,0.1-0.7-0.1
	c0,0-1.9-2.3-2.7-3.1c-0.3-0.3-0.8-0.2-1,0c-0.2,0.1-0.5,0.4-0.4,1c0.2,0.8,1.6,2.8,2.1,3.6c0.2,0.2,0.1,0.5-0.1,0.7
	c-0.2,0.2-0.5,0.1-0.7-0.1c-0.4-0.5-1.6-1.8-2.4-2.2C20,14.4,19.8,14.4,19.7,14.4z"/>
<path fill="#BF6952" d="M7.9,24.5c-0.9,0-1.9-0.2-2.7-0.7c-2.3-1.3-3.8-3.6-4.3-10.6c-0.1-1.2,0.4-2.3,1.3-2.7c0.8-0.3,1.6-0.1,2.3,0.6
	c0.6,0.6,0.9,1.7,1.1,2.5c0.9-1.4,2.5-3.7,3.6-4.6c0.7-0.6,1.5-0.7,2.3-0.3c0.7,0.4,1.1,1.2,1,1.9c0,0.1,0,0.2-0.1,0.3
	c0.1-0.1,0.2-0.2,0.3-0.3c0.6-0.5,1.5-0.6,2.2-0.1c0.7,0.5,1.1,1.3,0.8,2.1c-0.1,0.2-0.2,0.5-0.3,0.8c0.7-0.3,1.4-0.3,2,0.2
	c0.6,0.5,0.9,1.3,0.7,2c-0.4,1.5-1.8,3.3-4.6,6C11.7,23.6,9.7,24.5,7.9,24.5z M3,11.4c-0.1,0-0.2,0-0.3,0.1
	c-0.4,0.2-0.8,0.8-0.7,1.7c0.5,7.3,2.1,8.8,3.8,9.8c2.1,1.2,4.6,0.6,7.1-1.8c2.6-2.5,4-4.3,4.4-5.6c0.1-0.4,0-0.7-0.3-1
	c-0.3-0.2-0.7-0.3-1-0.1c-0.8,0.4-2,1.7-2.4,2.2c-0.2,0.2-0.5,0.2-0.7,0.1c-0.2-0.2-0.3-0.5-0.1-0.7c0.5-0.7,1.9-2.8,2.1-3.6
	c0.2-0.6-0.2-0.9-0.4-1c-0.3-0.2-0.7-0.2-1,0c-0.9,0.7-2.7,3.1-2.7,3.1c-0.2,0.2-0.5,0.3-0.7,0.1S9.7,14.2,9.9,14
	c0.4-0.7,1.6-2.6,1.7-3.4c0-0.4-0.2-0.7-0.5-0.9c-0.2-0.1-0.6-0.2-1.2,0.2c-1,0.9-2.8,3.4-4.1,5.5c-0.1,0.2-0.3,0.3-0.5,0.2
	c-0.2-0.1-0.4-0.2-0.4-0.4c-0.1-0.6-0.3-2.5-1.1-3.2C3.5,11.5,3.2,11.4,3,11.4z"/>
<path fill="#9B3C07" d="M26,9.8c0,0,0.1,0,0.1,0.1c1.2,1,3.1,3.9,4.1,5.5c0.1,0.1,0.2,0.2,0.4,0.2c0.2-1.1,0.3-2.3,0.3-3.5
	c-0.2,0.5-0.4,1.1-0.5,1.6c-0.9-1.4-2.5-3.7-3.6-4.6c-0.7-0.6-1.5-0.7-2.2-0.3C25.2,8.9,25.7,9.3,26,9.8z M5.8,15.3
	c1.2-2,3.1-4.6,4.1-5.5C10,9.8,10,9.7,10.1,9.7c0.3-0.4,0.7-0.8,1.4-1c-0.7-0.3-1.5-0.2-2.2,0.3c-1.1,0.9-2.7,3.2-3.6,4.6
	c-0.1-0.5-0.3-1-0.5-1.5c0,1.1,0.1,2.3,0.3,3.3C5.6,15.5,5.7,15.4,5.8,15.3z"/>
</svg>
