<?xml version="1.0" encoding="utf-8"?>
<!-- Generator: Adobe Illustrator 23.0.1, SVG Export Plug-In . SVG Version: 6.00 Build 0)  -->
<svg version="1.1" xmlns="http://www.w3.org/2000/svg" xmlns:xlink="http://www.w3.org/1999/xlink" x="0px"
	 y="0px" viewBox="0 0 36 36" width="36px" height="36px" style="enable-background:new 0 0 36 36;" xml:space="preserve">
<path fill="#FFCC4D" d="M35,0.3C34.3-0.9,27.6,2,25,4c0,0-4-1-7-1s-7,1-7,1C8.4,2,1.7-0.9,1,0.3C-1,4,2,13,2,13c-0.9,1.8-1.3,3.3-1.6,6
	c0.4-0.1,0.8-0.2,1.3-0.2c5,0,7.9,8.1,7.4,14.9c3.5,1.6,7.5,2.2,9,2.2c1.5,0,5.5-0.6,9.1-2.3c-0.5-6.8,2.4-14.9,7.4-14.9
	c0.5,0,0.9,0.1,1.2,0.1c-0.3-2.7-0.7-4.2-1.6-6C34,13,37,4,35,0.3z"/>
<path fill="#F18F26" d="M2,3c0.4-1.3,5.6,1,6.6,2C8.6,5,4,8,3,11C3,11,1,6,2,3z M34,3c-0.4-1.3-5.6,1-6.6,2c0,0,4.6,3,5.6,6
	C33,11,35,6,34,3z"/>
<path fill="#FFCC4D" d="M4.9,5.6C4.9,4.2,11,7,10,8s-2,1.6-3,2.6S4.9,6.6,4.9,5.6z M31.1,5.6C31.1,4.2,25,7,26,8s2,1.6,3,2.6
	S31.1,6.6,31.1,5.6z"/>
<path fill="#FEE7B8" d="M11,21.5c-1.8-0.1-3.4,0-4.8,0.2c0.2,0.3,0.4,0.6,0.6,0.9c1.2-0.2,2.6-0.3,4.1-0.2c0.3,0,0.5-0.2,0.5-0.5
	C11.5,21.8,11.3,21.5,11,21.5z M9.7,19.4c-4-1.2-7.4-0.8-8.7-0.5c0.2,0,0.4,0,0.7,0c0.9,0,1.7,0.3,2.5,0.7c1.5,0,3.3,0.1,5.3,0.8
	c0,0,0.1,0,0.1,0c0.2,0,0.4-0.1,0.5-0.4C10.1,19.7,10,19.4,9.7,19.4z M29.8,21.7c-1.4-0.3-3-0.4-4.8-0.2c-0.3,0-0.5,0.3-0.5,0.5
	c0,0.3,0.3,0.5,0.5,0.5c1.6-0.1,3,0,4.2,0.2C29.4,22.3,29.6,22,29.8,21.7z M32,19.6c0.7-0.5,1.6-0.7,2.5-0.7c0.2,0,0.4,0,0.6,0
	c-1.4-0.3-4.7-0.8-8.7,0.5C26,19.4,25.9,19.7,26,20c0.1,0.2,0.3,0.4,0.5,0.4c0,0,0.1,0,0.1,0C28.6,19.7,30.5,19.5,32,19.6z"/>
<path fill="#FCAB40" d="M35.8,19.2c-0.3-0.1-0.7-0.2-1.2-0.2c-4.6,0-7.1,10-5.9,17h6.5C33.3,29,36.8,21.9,35.8,19.2z M1.4,19
	c-0.5,0-0.8,0.1-1.2,0.2l0,0C-0.8,21.9,2.7,29,0.8,36h6.5C8.5,29,6,19,1.4,19z"/>
</svg>
