<?xml version="1.0" encoding="utf-8"?>
<!-- Generator: Adobe Illustrator 23.0.1, SVG Export Plug-In . SVG Version: 6.00 Build 0)  -->
<svg version="1.1" xmlns="http://www.w3.org/2000/svg" xmlns:xlink="http://www.w3.org/1999/xlink" x="0px"
	 y="0px" viewBox="0 0 36 36" width="36px" height="36px" style="enable-background:new 0 0 36 36;" xml:space="preserve">
<path fill="#664500" d="M28.5,14.3C28.4,14.2,27,11,24,11c-3,0-4.4,3.2-4.5,3.3c-0.1,0.2,0,0.4,0.1,0.6c0.2,0.1,0.4,0.1,0.6,0
	c0,0,1.3-0.9,3.7-0.9c2.4,0,3.7,0.9,3.7,0.9C27.8,15,27.9,15,28,15c0.1,0,0.2,0,0.3-0.1C28.5,14.7,28.6,14.5,28.5,14.3z M16.5,14.3
	C16.4,14.2,15,11,12,11c-3,0-4.4,3.2-4.5,3.3c-0.1,0.2,0,0.4,0.1,0.6c0.2,0.1,0.4,0.1,0.6,0c0,0,1.3-0.9,3.7-0.9
	c2.4,0,3.7,0.9,3.7,0.9C15.8,15,15.9,15,16,15c0.1,0,0.2,0,0.3-0.1C16.5,14.7,16.5,14.5,16.5,14.3z"/>
</svg>
