<?xml version="1.0" encoding="utf-8"?>
<!-- Generator: Adobe Illustrator 23.0.1, SVG Export Plug-In . SVG Version: 6.00 Build 0)  -->
<svg version="1.1" xmlns="http://www.w3.org/2000/svg" xmlns:xlink="http://www.w3.org/1999/xlink" x="0px"
	 y="0px" viewBox="0 0 36 36" width="36px" height="36px" style="enable-background:new 0 0 36 36;" xml:space="preserve">
<path fill="#BBDDF5" d="M35.8,15.2c0-0.4,0,2.2-3.8,3.4c-1.5,0.5-1.3,2.6-1.3,3.2c0.1,2,0.4,3.9,0.5,4.4c0.1,0.5,0.5,2.1,0.6,2.6
	c0.1,0.5,0.2,2.4,0.3,2.9c0.1,0.6,0.2,1,0.3,1.4c0.2,0.9,0.4,1.6,0.8,1.6c0.4,0,0.4-1.1,0.6-2.1c0.1-0.4,0.1-0.8,0.2-1.3
	c0.1-0.5,0.4-3.6,0.5-4.2c0.1-0.5,0.6-2.6,0.7-3.1c0.1-0.5,0.4-2.5,0.5-3C36.3,18.1,35.8,15.2,35.8,15.2z M0.3,21.4
	c0-0.3,0.6,1.2,1.1,1.5c0.7,0.4,1.2,1.2,2,1.9s0.8,2,0.8,2.6C4.1,30,3.8,32.6,3.7,33c-0.1,0.3-0.4,2.8-0.7,2.8s-0.6-0.9-0.7-1.5
	l-0.2-1c-0.1-0.3-0.1-0.6-0.2-1c-0.1-0.3-0.4-2.6-0.5-2.9c-0.1-0.3-0.4-1.6-0.5-2c-0.1-0.3-0.1-0.7-0.2-1
	C0.4,25.2,0.3,21.4,0.3,21.4z"/>
<path fill="#BBDDF5" d="M24.3,1.1c0,0-1-0.4-1.3-0.5c-0.3-0.1-1.2-0.3-1.8-0.4c-0.6-0.1-1.3-0.1-1.3-0.1s0,0.4,0.1,1
	c0.1,0.5,0.4,1.2,0.5,1.6c0.1,0.4,0.1,0.9,0.1,1.3c0.1,0.4,0.1,0.9,0.2,1.3c0.1,0.4,0.2,0.9,0.2,1.3c0.1,0.5,0.1,0.9,0.2,1.4
	c0.1,0.5,0,1,0,1.4c0.1,0.8,0.3,1.9,0.6,1.9s0.4-1,0.6-1.8c0.1-0.4,0-0.7,0-1.2c0.1-0.4,0.1-0.8,0.2-1.3c0.1-0.4,0.1-0.9,0.2-1.3
	c0.1-0.5,0.1-0.9,0.1-1.3c0.1-0.5,0.4-1.1,0.4-1.5C23.5,2.1,24.3,1.1,24.3,1.1z M5.9,9.4c0,0,0.7-0.2,1.4-0.3C7.8,9,8.1,8.6,8.9,8.3
	c0.8-0.3,1.3-0.5,1.3-0.5s0.1,1.3-0.1,2c-0.1,0.5-0.2,1.2-0.3,1.6c-0.1,0.4-0.1,0.9-0.2,1.4c-0.1,0.4-0.2,0.9-0.3,1.4
	c-0.1,0.5-0.1,1-0.2,1.5c-0.1,0.5-0.1,0.9-0.2,1.3c-0.1,0.5,0,0.6-0.1,1c-0.1,0.8-0.2,0.7-0.2,1.2c0,0.5-0.4,0.5-0.5,0.2
	s0-0.5-0.1-1.4c-0.1-0.4-0.3-1.5-0.4-2c-0.1-0.5-0.2-1.2-0.3-1.7c-0.1-0.5-0.1-1.3-0.2-1.7c-0.1-0.5-0.2-0.8-0.3-1.2
	C6.6,10.5,5.9,9.4,5.9,9.4z"/>
</svg>
