<?xml version="1.0" encoding="utf-8"?>
<!-- Generator: Adobe Illustrator 23.0.1, SVG Export Plug-In . SVG Version: 6.00 Build 0)  -->
<svg version="1.1" xmlns="http://www.w3.org/2000/svg" xmlns:xlink="http://www.w3.org/1999/xlink" x="0px"
	 y="0px" viewBox="0 0 36 36" width="36px" height="36px" style="enable-background:new 0 0 36 36;" xml:space="preserve">
<path fill="#664500" d="M22.5,25H18c-5.6,0-7-1-7-1s1.3,3.6,6.2,4c0.1,0,0.2,0,0.3,0H22c0.8,0,2-1.2,2-2S23.3,25,22.5,25z"/>
<path fill="#88C9F9" d="M23,26h-3c-0.5,0-1,0.5-1,1v4c0,0.5,0.5,1,1,1s1-0.5,1-1v3.5c0,0.8,0.7,1.5,1.5,1.5s1.5-0.7,1.5-1.5V27
	C24,26.4,23.5,26,23,26z"/>
</svg>
