<?xml version="1.0" encoding="utf-8"?>
<!-- Generator: Adobe Illustrator 23.0.1, SVG Export Plug-In . SVG Version: 6.00 Build 0)  -->
<svg version="1.1" xmlns="http://www.w3.org/2000/svg" xmlns:xlink="http://www.w3.org/1999/xlink" x="0px"
	 y="0px" viewBox="0 0 36 36" width="36px" height="36px" style="enable-background:new 0 0 36 36;" xml:space="preserve">
<path fill="#664500" d="M28.5,17.8c-0.1-0.1-1.5-3.3-4.5-3.3c-3,0-4.4,3.2-4.5,3.3c-0.1,0.2,0,0.4,0.1,0.6c0.2,0.1,0.4,0.1,0.6,0
	c0,0,1.3-0.9,3.7-0.9c2.4,0,3.7,0.9,3.7,0.9c0.1,0.1,0.2,0.1,0.3,0.1c0.1,0,0.2,0,0.3-0.1C28.5,18.2,28.6,18,28.5,17.8z"/>
<path fill="#664500" d="M16.5,17.8c-0.1-0.1-1.5-3.3-4.5-3.3c-3,0-4.4,3.2-4.5,3.3c-0.1,0.2,0,0.4,0.1,0.6s0.4,0.1,0.6,0
	c0,0,1.3-0.9,3.7-0.9c2.4,0,3.7,0.9,3.7,0.9c0.1,0.1,0.2,0.1,0.3,0.1c0.1,0,0.2,0,0.3-0.1C16.5,18.2,16.5,18,16.5,17.8z"/>
<path fill="#664500" d="M31,16c-0.4,0-0.8-0.2-0.9-0.6c-1.8-4.4-6.2-5.4-6.3-5.4c-0.5-0.1-0.9-0.6-0.8-1.2c0.1-0.5,0.6-0.9,1.2-0.8
	c0.2,0,5.6,1.2,7.7,6.6c0.2,0.5,0,1.1-0.6,1.3C31.2,16,31.1,16,31,16z"/>
<path fill="#664500" d="M5,16c-0.1,0-0.2,0-0.4-0.1c-0.5-0.2-0.8-0.8-0.6-1.3c2.2-5.4,7.5-6.6,7.7-6.6c0.5-0.1,1.1,0.2,1.2,0.8
	c0.1,0.5-0.2,1.1-0.8,1.2c-0.2,0-4.5,1-6.3,5.4C5.8,15.8,5.4,16,5,16z"/>
</svg>
