<?xml version="1.0" encoding="utf-8"?>
<!-- Generator: Adobe Illustrator 23.0.1, SVG Export Plug-In . SVG Version: 6.00 Build 0)  -->
<svg version="1.1" xmlns="http://www.w3.org/2000/svg" xmlns:xlink="http://www.w3.org/1999/xlink" x="0px"
	 y="0px" viewBox="0 0 36 36" width="36px" height="36px" style="enable-background:new 0 0 36 36;" xml:space="preserve">
<path fill="#664500" d="M20,13c-0.1,0-0.1,0-0.2,0c-0.5-0.1-0.9-0.6-0.8-1.2C19.4,9.5,21.6,5,27,5c0.6,0,1,0.4,1,1s-0.4,1-1,1
	c-5.1,0-6,5-6,5.2C20.9,12.7,20.5,13,20,13z M16,13c-0.5,0-0.9-0.3-1-0.8C15,12,14.1,7,9,7C8.4,7,8,6.6,8,6s0.4-1,1-1
	c5.4,0,7.6,4.5,8,6.8c0.1,0.5-0.3,1.1-0.8,1.2C16.1,13,16.1,13,16,13z M11.4,17.9c-2.3,0-3.9-1-4-1.1c-0.5-0.3-0.6-0.9-0.3-1.4
	s0.9-0.6,1.4-0.3c0.1,0.1,2.6,1.6,6-0.1c0.5-0.2,1.1,0,1.3,0.4c0.2,0.5,0,1.1-0.4,1.3C14,17.6,12.6,17.9,11.4,17.9z M24.6,17.9
	c-1.2,0-2.5-0.3-4-1c-0.5-0.2-0.7-0.8-0.4-1.3c0.2-0.5,0.8-0.7,1.3-0.4c3.4,1.7,5.9,0.1,6,0.1c0.5-0.3,1.1-0.2,1.4,0.3
	c0.3,0.5,0.2,1.1-0.3,1.4C28.5,16.9,26.9,17.9,24.6,17.9z"/>
</svg>
