<?xml version="1.0" encoding="utf-8"?>
<!-- Generator: Adobe Illustrator 23.0.1, SVG Export Plug-In . SVG Version: 6.00 Build 0)  -->
<svg version="1.1" xmlns="http://www.w3.org/2000/svg" xmlns:xlink="http://www.w3.org/1999/xlink" x="0px"
	 y="0px" viewBox="0 0 36 36" width="36px" height="36px" style="enable-background:new 0 0 36 36;" xml:space="preserve">
<path fill="#292F33" d="M15.4,26.1l-1.5-2.3c1.2-0.8,2.6-1.2,4.1-1.2c1.5,0,2.9,0.4,4.1,1.2l-1.5,2.3C19.1,25.2,16.8,25.2,15.4,26.1z"
	/>
<path fill="#3E721D" d="M11.6,29.6c-0.4,0-0.9-0.3-1-0.7c-0.2-0.6,0.1-1.2,0.7-1.3c0.1,0,2.5-0.9,2.5-3.2s-2.4-3.2-2.5-3.2
	c-0.6-0.2-0.8-0.8-0.7-1.3c0.2-0.6,0.8-0.9,1.3-0.7c0.2,0.1,3.9,1.3,3.9,5.2s-3.7,5.2-3.9,5.2C11.9,29.6,11.8,29.6,11.6,29.6z
	 M24.4,29.6c-0.1,0-0.2,0-0.3-0.1c-0.2-0.1-3.9-1.3-3.9-5.2s3.7-5.2,3.9-5.2c0.6-0.2,1.2,0.1,1.3,0.7c0.2,0.6-0.1,1.2-0.7,1.3
	c-0.1,0-2.5,0.9-2.5,3.2s2.4,3.2,2.5,3.2c0.6,0.2,0.8,0.8,0.7,1.3C25.2,29.4,24.8,29.6,24.4,29.6z"/>
</svg>
