<?xml version="1.0" encoding="utf-8"?>
<!-- Generator: Adobe Illustrator 23.0.1, SVG Export Plug-In . SVG Version: 6.00 Build 0)  -->
<svg version="1.1" xmlns="http://www.w3.org/2000/svg" xmlns:xlink="http://www.w3.org/1999/xlink" x="0px"
	 y="0px" viewBox="0 0 36 36" width="36px" height="36px" style="enable-background:new 0 0 36 36;" xml:space="preserve">
<path fill="#292F33" d="M25.4,30.3C24.9,29.6,21.9,26,18,26c-4.2,0-7.3,4.2-7.4,4.4c-0.1,0.2-0.1,0.4,0.1,0.5C10.8,31,10.9,31,11,31
	c0.1,0,0.2,0,0.3-0.1c0,0,2.9-1.6,6.7-1.6c3.8,0,6.7,1.6,6.7,1.6c0.1,0,0.2,0.1,0.3,0.1c0.3,0,0.5-0.2,0.5-0.4
	C25.5,30.5,25.5,30.4,25.4,30.3z"/>
</svg>
