<?xml version="1.0" encoding="utf-8"?>
<!-- Generator: Adobe Illustrator 23.0.1, SVG Export Plug-In . SVG Version: 6.00 Build 0)  -->
<svg version="1.1" xmlns="http://www.w3.org/2000/svg" xmlns:xlink="http://www.w3.org/1999/xlink" x="0px"
	 y="0px" viewBox="0 0 36 36" width="36px" height="36px" style="enable-background:new 0 0 36 36;" xml:space="preserve">
<path fill="#292F33" d="M1.2,11c0.2,0.2,1.4,1,1.7,1.7c0.2,0.7,0.7,4.8,2.2,6c1.5,1.2,7.1,0.8,8.1,0.2c2.4-1.2,2.7-4.5,3.1-6.2
	c0.2-1,1.7-1,1.7-1s1.4,0,1.7,1c0.4,1.7,0.7,5,3.1,6.2c1.1,0.5,6.7,1,8.2-0.2c1.4-1.2,1.9-5.3,2.2-6c0.2-0.7,1.4-1.4,1.7-1.7
	c0.2-0.2,0.2-1.2,0-1.4c-0.5-0.5-6.1-0.9-12.2-0.2c-1.2,0.1-1.7,0.5-4.6,0.5c-2.9,0-3.3-0.3-4.6-0.5C7.4,8.7,1.7,9.1,1.2,9.6
	C1,9.8,1,10.8,1.2,11z"/>
</svg>
