<?xml version="1.0" encoding="utf-8"?>
<!-- Generator: Adobe Illustrator 23.0.1, SVG Export Plug-In . SVG Version: 6.00 Build 0)  -->
<svg version="1.1" xmlns="http://www.w3.org/2000/svg" xmlns:xlink="http://www.w3.org/1999/xlink" x="0px"
	 y="0px" viewBox="0 0 36 36" width="36px" height="36px" style="enable-background:new 0 0 36 36;" xml:space="preserve">
<path fill="#664500" d="M30,15c-0.1,0-0.2,0-0.4-0.1c-5.2-2.1-7.4-5.2-7.5-5.4c-0.3-0.5-0.2-1.1,0.3-1.4c0.5-0.3,1.1-0.2,1.4,0.3
	c0,0,1.9,2.8,6.5,4.6c0.5,0.2,0.8,0.8,0.6,1.3C30.8,14.8,30.4,15,30,15z M6,15c-0.4,0-0.8-0.2-0.9-0.6c-0.2-0.5,0-1.1,0.6-1.3
	c4.6-1.8,6.5-4.6,6.5-4.6c0.3-0.5,0.9-0.6,1.4-0.3c0.5,0.3,0.6,0.9,0.3,1.4c-0.1,0.1-2.2,3.3-7.5,5.4C6.2,15,6.1,15,6,15z"/>
<path fill="#5DADEC" d="M24,16h4v19l-4,0V16z M8,35l4,0V16H8V35z"/>
<path fill="#664500" d="M15,18c-0.1,0-0.3,0-0.4-0.1c-3.5-1.8-7.1,0-7.1,0c-0.5,0.2-1.1,0-1.3-0.4c-0.2-0.5,0-1.1,0.4-1.3
	c0.2-0.1,4.5-2.2,8.9,0c0.5,0.2,0.7,0.8,0.4,1.3C15.7,17.8,15.4,18,15,18z M29,18c-0.1,0-0.3,0-0.4-0.1c-3.5-1.8-7.1,0-7.1,0
	c-0.5,0.2-1.1,0-1.3-0.4c-0.2-0.5,0-1.1,0.4-1.3c0.2-0.1,4.5-2.2,8.9,0c0.5,0.2,0.7,0.8,0.4,1.3C29.7,17.8,29.4,18,29,18z"/>
<ellipse fill="#5DADEC" cx="18" cy="34" rx="18" ry="2"/>
</svg>
