<?xml version="1.0" encoding="utf-8"?>
<!-- Generator: Adobe Illustrator 23.0.1, SVG Export Plug-In . SVG Version: 6.00 Build 0)  -->
<svg version="1.1" xmlns="http://www.w3.org/2000/svg" xmlns:xlink="http://www.w3.org/1999/xlink" x="0px"
	 y="0px" viewBox="0 0 36 36" width="36px" height="36px" style="enable-background:new 0 0 36 36;" xml:space="preserve">
<path fill="#EA596E" d="M28,23.1c0,4.5-3.1,9.4-10,9.4c-6.9,0-10-4.9-10-9.4s3.1-5.6,10-5.6C24.9,17.5,28,18.6,28,23.1z"/>
<path fill="#662113" d="M15,24.6c0,1.9-0.3,2.4-1.5,2.4S12,26.5,12,24.6c0-1.9,0.3-2.4,1.5-2.4S15,22.7,15,24.6z M24,24.6
	c0,1.9-0.3,2.4-1.5,2.4S21,26.5,21,24.6c0-1.9,0.3-2.4,1.5-2.4S24,22.7,24,24.6z"/>
</svg>
