<?xml version="1.0" encoding="utf-8"?>
<!-- Generator: Adobe Illustrator 23.0.1, SVG Export Plug-In . SVG Version: 6.00 Build 0)  -->
<svg version="1.1" xmlns="http://www.w3.org/2000/svg" xmlns:xlink="http://www.w3.org/1999/xlink" x="0px"
	 y="0px" viewBox="0 0 36 36" width="36px" height="36px" style="enable-background:new 0 0 36 36;" xml:space="preserve">
<path fill="#F4900C" d="M22.5,27.4c0,0,1-0.7,0.2-1.6c-0.8-0.9-1.6,0.1-1.6,0.1l-4.1,3.9c-0.1-0.2-0.5-0.7-0.5-0.9l5.8-5.4
	c0,0,1-0.7,0.2-1.6c-0.8-0.9-1.6,0.1-1.6,0.1l-5.4,5c-0.1-0.2-0.5-0.5-0.6-0.7l6.3-5.9c0,0,1-0.7,0.2-1.6c-0.8-0.9-1.6,0.1-1.6,0.1
	l-6.3,5.8c-0.1-0.1-0.6-0.6-0.8-0.7l5.9-5.5c0,0,1-0.7,0.2-1.6c-0.8-0.9-1.6,0.1-1.6,0.1l-6.2,5.8L10.1,23l-0.2,0.2
	c0,0-0.5,0.7-1.1,0.2l1.8-4.2c0,0,0.6-1.1-0.5-1.7c-1.1-0.6-1.7,0.5-1.7,0.5l-1.7,2.8C6.1,22,5.5,23.1,4.7,24
	C2.4,26.8,2.4,31,5,33.7c2.8,3,7.4,3.1,10.4,0.4l0.4-0.4C15.8,33.6,22.5,27.4,22.5,27.4z"/>
</svg>
