<?xml version="1.0" encoding="utf-8"?>
<!-- Generator: Adobe Illustrator 23.0.1, SVG Export Plug-In . SVG Version: 6.00 Build 0)  -->
<svg version="1.1" xmlns="http://www.w3.org/2000/svg" xmlns:xlink="http://www.w3.org/1999/xlink" x="0px"
	 y="0px" viewBox="0 0 36 36" width="36px" height="36px" style="enable-background:new 0 0 36 36;" xml:space="preserve">
<path fill="#292F33" d="M26.1,29.3C26.1,29.3,26.1,29.3,26.1,29.3c-8.5-2-16.1,0-16.2,0c-0.1,0-0.2,0-0.3-0.1c-0.1-0.1-0.1-0.2-0.1-0.3
	c0-3.2,3.7-6.9,8.5-6.9s8.5,3.7,8.5,6.9c0,0.1-0.1,0.2-0.1,0.3C26.3,29.2,26.2,29.3,26.1,29.3z"/>
<path fill="#F4ABBA" d="M18.6,23.1v0.8l-1.1,0v-0.8c-2.3,0.1-4.2,1.2-5.5,2.5l0,0.5c0.1,2.9,2.1,5.8,6,5.8c3.9,0,5.9-2.9,6-5.8l0-0.3
	C22.9,24.4,20.9,23.3,18.6,23.1z"/>
<path fill="#EA596E" d="M18,23c-0.2,0-0.3,0-0.5,0v4.4c0,0.3,0.2,0.5,0.5,0.5s0.5-0.2,0.5-0.5v-4.4C18.4,23.1,18.2,23,18,23z"/>
</svg>
