<?xml version="1.0" encoding="utf-8"?>
<!-- Generator: Adobe Illustrator 23.0.1, SVG Export Plug-In . SVG Version: 6.00 Build 0)  -->
<svg version="1.1" xmlns="http://www.w3.org/2000/svg" xmlns:xlink="http://www.w3.org/1999/xlink" x="0px"
	 y="0px" viewBox="0 0 36 36" width="36px" height="36px" style="enable-background:new 0 0 36 36;" xml:space="preserve">
<path fill="#664500" d="M15.8,17.9c-0.2,0.1-0.4,0.1-0.6,0c0,0-1.3-0.9-3.7-0.9c-2.4,0-3.7,0.9-3.7,0.9c-0.2,0.1-0.4,0.1-0.6,0
	C7,17.7,7,17.5,7,17.3c0.1-0.1,1.5-3.3,4.5-3.3c3,0,4.4,3.2,4.5,3.3C16,17.5,16,17.7,15.8,17.9z"/>
<path fill="#664500" d="M28.8,17.9c-0.2,0.1-0.4,0.1-0.6,0c0,0-1.3-0.9-3.7-0.9c-2.4,0-3.7,0.9-3.7,0.9c-0.2,0.1-0.4,0.1-0.6,0
	C20,17.7,20,17.5,20,17.3c0.1-0.1,1.5-3.3,4.5-3.3c3,0,4.4,3.2,4.5,3.3C29,17.5,29,17.7,28.8,17.9z"/>
<path fill="#664500" d="M13.1,6c0.6,0,1,0.5,1,1c0,0.6-0.5,1-1,1c-0.2,0-3.6-0.1-6.3,3.4c-0.3,0.4-1,0.5-1.4,0.1
	c-0.4-0.3-0.5-1-0.1-1.4C8.6,5.9,12.9,6,13.1,6z"/>
<path fill="#664500" d="M22.5,7.7c0.2,0,4.5-0.8,8.5,2.9c0.4,0.4,0.4,1,0.1,1.4c-0.4,0.4-1,0.4-1.4,0.1c-3.2-3-6.6-2.5-6.8-2.4
	c-0.5,0.1-1.1-0.3-1.2-0.8C21.6,8.3,22,7.8,22.5,7.7z"/>
</svg>
