<?xml version="1.0" encoding="utf-8"?>
<!-- Generator: Adobe Illustrator 23.0.1, SVG Export Plug-In . SVG Version: 6.00 Build 0)  -->
<svg version="1.1" xmlns="http://www.w3.org/2000/svg" xmlns:xlink="http://www.w3.org/1999/xlink" x="0px"
	 y="0px" viewBox="0 0 36 36" width="36px" height="36px" style="enable-background:new 0 0 36 36;" xml:space="preserve">
<path fill="#292F33" d="M28,13c-0.2-0.3-6.8-1.5-6.8-1.5c-0.1,0-0.3,0.1-0.3,0.2c-0.2,1-0.1,2.1,0.5,2.9c0.5,0.9,1.3,1.5,2.3,1.7
	c0.2,0,0.5,0.1,0.7,0.1c1.7,0,3.3-1.3,3.7-3.2C28.1,13.2,28.1,13.1,28,13z"/>
<path fill="#292F33" d="M14.8,11.5c-0.1,0-6.6,1.2-6.8,1.5c0,0.1-0.1,0.1-0.1,0.2c0.4,1.8,1.9,3.2,3.7,3.2c0.2,0,0.5,0,0.7-0.1
	c2-0.4,3.2-2.5,2.8-4.6C15,11.6,14.9,11.5,14.8,11.5z"/>
</svg>
