<?xml version="1.0" encoding="utf-8"?>
<!-- Generator: Adobe Illustrator 23.0.1, SVG Export Plug-In . SVG Version: 6.00 Build 0)  -->
<svg version="1.1" xmlns="http://www.w3.org/2000/svg" xmlns:xlink="http://www.w3.org/1999/xlink" x="0px"
	 y="0px" viewBox="0 0 36 36" width="36px" height="36px" style="enable-background:new 0 0 36 36;" xml:space="preserve">
<ellipse fill="#664500" cx="11.5" cy="17" rx="2.5" ry="3.5"/>
<ellipse fill="#664500" cx="24.5" cy="17" rx="2.5" ry="3.5"/>
<path fill="#664500" d="M6,13.5c-0.2,0-0.4-0.1-0.6-0.2c-0.4-0.3-0.5-1-0.2-1.4c3.3-4.3,7.6-4.4,7.8-4.4c0.6,0,1,0.4,1,1
	c0,0.6-0.4,1-1,1c-0.2,0-3.6,0.1-6.2,3.6C6.6,13.4,6.3,13.5,6,13.5z M30,13.5c-0.3,0-0.6-0.1-0.8-0.4c-2.6-3.5-6.1-3.6-6.2-3.6
	c-0.5,0-1-0.5-1-1c0-0.6,0.4-1,1-1c0.2,0,4.5,0.1,7.8,4.4c0.3,0.4,0.2,1.1-0.2,1.4C30.4,13.4,30.2,13.5,30,13.5z"/>
</svg>
