<?xml version="1.0" encoding="utf-8"?>
<!-- Generator: Adobe Illustrator 23.0.1, SVG Export Plug-In . SVG Version: 6.00 Build 0)  -->
<svg version="1.1" xmlns="http://www.w3.org/2000/svg" xmlns:xlink="http://www.w3.org/1999/xlink" x="0px"
	 y="0px" viewBox="0 0 36 36" width="36px" height="36px" style="enable-background:new 0 0 36 36;" xml:space="preserve">
<path fill="#664500" d="M18,21.5c-9.3,0-10.5,8.4-10.5,8.4c0,0.2,0,0.3,0.2,0.4c0.1,0.1,0.2,0.1,0.3,0.1c0.1,0,0.1,0,0.2,0
	c0.1,0,6-2,9.8-2c5.6,0,9.7,1.9,9.8,2c0.2,0.1,0.4,0.1,0.5,0c0.1-0.1,0.2-0.3,0.2-0.5C28.5,29.9,27.3,21.5,18,21.5z"/>
<path fill="#CCD6DD" d="M18,23c4,0,6,2,6,2H12C12,25,14,23,18,23z"/>
</svg>
