<?xml version="1.0" encoding="utf-8"?>
<!-- Generator: Adobe Illustrator 23.0.1, SVG Export Plug-In . SVG Version: 6.00 Build 0)  -->
<svg version="1.1" xmlns="http://www.w3.org/2000/svg" xmlns:xlink="http://www.w3.org/1999/xlink" x="0px"
	 y="0px" viewBox="0 0 36 36" width="36px" height="36px" style="enable-background:new 0 0 36 36;" xml:space="preserve">
<path fill="#F19020" d="M17.3,35.1c0,0,1.3-0.4,1.4-1.4c0.2-1-0.6-1.2-0.6-1.2s1-0.2,1.2-1.4c0.1-1.1-0.9-1.4-0.9-1.4s1-0.4,1-1.5
	c0-1-1-1.4-1-1.4s5-1.2,5.6-1.3c0.5-0.1,1.3-0.6,1.1-1.7c-0.2-1.1-1.2-1.1-1.7-1c-0.5,0.1-6.7,1.6-8.9,2.1L13,25.3
	c-0.5,0.1-0.8-0.1-0.4-0.5c0.5-0.5,0.8-1.1,0.9-2.1c0.1-1-0.2-2.3-0.4-2.8c-0.4-0.9-1-1.6-1.7-1.9c-1.1-0.4-1.9,0.3-1.5,1.6
	c0.6,1.9,0.2,3.4-0.8,4.3c-2.4,2.2-3.6,3.7-2.8,7c0.8,3.6,4.4,5.9,8,5C14.1,35.8,17.3,35.1,17.3,35.1z"/>
</svg>
