<?xml version="1.0" encoding="utf-8"?>
<!-- Generator: Adobe Illustrator 23.0.1, SVG Export Plug-In . SVG Version: 6.00 Build 0)  -->
<svg version="1.1" xmlns="http://www.w3.org/2000/svg" xmlns:xlink="http://www.w3.org/1999/xlink" x="0px"
	 y="0px" viewBox="0 0 36 36" width="36px" height="36px" style="enable-background:new 0 0 36 36;" xml:space="preserve">
<path fill="#664500" d="M25.5,30.8c-0.1-0.3-2.9-6.3-7.2-6.3c-4.2,0-7.5,6-7.7,6.3c-0.1,0.2-0.1,0.5,0.1,0.6c0.1,0.1,0.2,0.1,0.3,0.1
	c0.1,0,0.2,0,0.3-0.1c0,0,3.2-2.5,6.9-2.5c3.7,0,6.4,2.4,6.4,2.5c0.2,0.2,0.4,0.2,0.6,0C25.5,31.3,25.6,31,25.5,30.8z"/>
</svg>
