<?xml version="1.0" encoding="utf-8"?>
<!-- Generator: Adobe Illustrator 23.0.1, SVG Export Plug-In . SVG Version: 6.00 Build 0)  -->
<svg version="1.1" xmlns="http://www.w3.org/2000/svg" xmlns:xlink="http://www.w3.org/1999/xlink" x="0px"
	 y="0px" viewBox="0 0 36 36" width="36px" height="36px" style="enable-background:new 0 0 36 36;" xml:space="preserve">
<path fill="#F19020" d="M25.4,26L25.4,26c-0.9-0.5-2-0.3-2.5,0.6l-0.2,0.2c-0.5-0.6-1.2-1-2.1-1.1l-1.4-0.3l1.3-6.2
	c0.2-1-0.4-1.9-1.4-2.1l0,0c-1-0.2-1.9,0.4-2.1,1.4l-1.7,8.2l0,0.1L15,28.2l0,0l-1.1,5.5c-0.2,1.1,0.3,2.2,1.9,2.2H19
	c2.8,0,3.6-1,4.2-3.1l2.7-4.5C26.5,27.6,26.2,26.5,25.4,26z"/>
<path fill="#65471B" d="M22.4,30.7C22.4,30.7,22.4,30.7,22.4,30.7c-0.2,0-0.4-0.2-0.3-0.4c0.1-0.3,0-0.6-0.2-0.8
	c-0.6-0.8-2.3-1.2-2.9-1.2c-0.2,0-0.3-0.2-0.3-0.4c0-0.2,0.2-0.3,0.4-0.3c0.1,0,2.5,0.3,3.4,1.5c0.3,0.4,0.4,0.9,0.3,1.4
	C22.7,30.6,22.6,30.7,22.4,30.7z"/>
<path fill="#65471B" d="M19.1,35.5c-0.3,0-0.5,0-0.8-0.1c-0.6-0.1-1-0.5-1.2-1c-0.1-0.4,0-0.8,0.3-1.1c0.4-0.4,1-0.5,1.7-0.4
	c0.2,0,0.3,0.2,0.2,0.4c0,0.2-0.2,0.3-0.4,0.2c-0.4-0.1-0.8,0-1,0.2c-0.1,0.1-0.2,0.3-0.1,0.5c0.1,0.2,0.3,0.4,0.7,0.5
	c1.2,0.3,1.8-0.2,2.2-0.6c0.5-0.7,0.6-1.5,0.4-1.9c-0.4-0.8-2-1-2.6-1c-0.2,0-0.3-0.2-0.3-0.3s0.2-0.3,0.3-0.3c0.1,0,2.5,0,3.2,1.4
	c0.3,0.6,0.2,1.8-0.5,2.6C20.9,34.9,20.2,35.5,19.1,35.5z"/>
</svg>
