<?xml version="1.0" encoding="utf-8"?>
<!-- Generator: Adobe Illustrator 23.0.1, SVG Export Plug-In . SVG Version: 6.00 Build 0)  -->
<svg version="1.1" xmlns="http://www.w3.org/2000/svg" xmlns:xlink="http://www.w3.org/1999/xlink" x="0px"
	 y="0px" viewBox="0 0 36 36" width="36px" height="36px" style="enable-background:new 0 0 36 36;" xml:space="preserve">
<path fill="#553986" d="M15.9,14.2l-6-3c-1-0.5-2.2-0.1-2.7,0.9c-0.5,1-0.1,2.2,0.9,2.7l4.2,2.1C12,17.4,12,18,12,18v2c0,0,0,2,2,2
	s2-2,2-2v-2c0,0,0-0.1,0-0.3c0.3-0.2,0.6-0.5,0.8-0.8C17.3,15.9,16.9,14.7,15.9,14.2z M28.8,12.1c-0.5-1-1.7-1.4-2.7-0.9l-6,3
	c-1,0.5-1.4,1.7-0.9,2.7c0.2,0.4,0.5,0.7,0.8,0.8c0,0.2,0,0.3,0,0.3v2c0,0,0,2,2,2s2-2,2-2v-2c0,0,0-0.6-0.3-1.1l4.2-2.1
	C28.9,14.3,29.3,13.1,28.8,12.1z"/>
</svg>
