<?xml version="1.0" encoding="utf-8"?>
<!-- Generator: Adobe Illustrator 23.0.1, SVG Export Plug-In . SVG Version: 6.00 Build 0)  -->
<svg version="1.1" xmlns="http://www.w3.org/2000/svg" xmlns:xlink="http://www.w3.org/1999/xlink" x="0px"
	 y="0px" viewBox="0 0 36 36" width="36px" height="36px" style="enable-background:new 0 0 36 36;" xml:space="preserve">
<path fill="#E2A62D" d="M13.3,31.3c-0.1,0-0.1,0-0.2,0c-0.4-0.1-0.6-0.5-0.5-0.9c0.4-1.5,0.3-3-0.5-4.1c-0.5-0.7-1.2-1.1-1.9-1.2
	c-0.4,0-0.7-0.4-0.7-0.8s0.4-0.8,0.8-0.7c1.2,0.1,2.3,0.7,3.1,1.8c1,1.4,1.3,3.4,0.7,5.4C14,31.1,13.7,31.3,13.3,31.3z"/>
<path fill="#E2A62D" d="M24.4,28.2c-0.1,0-0.3,0-0.4-0.1c-1.2-0.8-1.8-2.1-1.8-3.7c0-1.6,0.8-3.2,2-3.9c0.4-0.2,0.8-0.1,1,0.3
	c0.2,0.4,0.1,0.8-0.3,1c-0.7,0.4-1.2,1.5-1.3,2.6c0,1.1,0.4,1.9,1.1,2.4c0.3,0.2,0.4,0.7,0.2,1C24.9,28.1,24.6,28.2,24.4,28.2z"/>
</svg>
