<?xml version="1.0" standalone="no"?>
<!DOCTYPE svg PUBLIC "-//W3C//DTD SVG 1.1//EN" "http://www.w3.org/Graphics/SVG/1.1/DTD/svg11.dtd">
<svg xmlns="http://www.w3.org/2000/svg">
<defs >
<font id="MPLUSRounded1c" horiz-adv-x="914" ><font-face
    font-family="Rounded Mplus 1c Black"
    units-per-em="1000"
    panose-1="2 11 9 2 2 2 3 2 2 7"
    ascent="1075"
    descent="-320"
    alphabetic="0" />
<glyph unicode=" " glyph-name="space" horiz-adv-x="298" />
<glyph unicode="!" glyph-name="exclam" horiz-adv-x="440" d="M283 730Q306 730 322 713T337 673L313 297Q312 273 295 257T253 240H187Q163 240 146 256T127 297L103 673Q102 696 118 713T157 730H283ZM263 160Q286 160 303 143T320 103V57Q320 34 303 17T263
0H177Q154 0 137 17T120 57V103Q120 126 137 143T177 160H263Z" />
<glyph unicode="&quot;" glyph-name="quotedbl" horiz-adv-x="556" d="M196 770Q219 770 234 753T248 714L228 506Q226 482 208 466T166 450H140Q116 450 98 466T78 506L58 714Q56 736 72 753T110 770H196ZM446 770Q469 770 484 753T498 714L478 506Q476 482 458
466T416 450H390Q366 450 348 466T328 506L308 714Q306 736 322 753T360 770H446Z" />
<glyph unicode="#" glyph-name="numbersign" horiz-adv-x="709" d="M374 313L395 437Q397 445 388 445H346Q338 445 336 437L314 313Q312 305 321 305H364Q372 305 374 313ZM615 595Q638 595 654 578T671 538V502Q671 479 655 462T615 445H586Q578 445 576 437L554
313Q552 305 562 305Q585 305 601 288T618 248V212Q618 189 602 172T562 155H535Q527 155 525 147L509 56Q504 32 486 16T442 0H375Q353 0 339 17T328 56L344 147Q346 155 337 155H295Q287 155 285 147L269 56Q264 32 246 16T202 0H135Q113 0 99 17T88 56L104 147Q106
155 97 155H95Q72 155 55 172T38 212V248Q38 271 55 288T95 305H124Q132 305 134 313L155 437Q157 445 148 445Q125 445 108 462T91 502V538Q91 561 108 578T148 595H175Q183 595 185 603L197 674Q202 698 220 714T264 730H331Q353 730 367 713T378 674L365 603Q363
595 372 595H415Q423 595 425 603L437 674Q442 698 460 714T504 730H571Q593 730 607 713T618 674L605 603Q603 595 612 595H615Z" />
<glyph unicode="$" glyph-name="dollar" horiz-adv-x="611" d="M307 161Q378 167 378 220Q378 260 306 283Q298 285 298 276V169Q298 161 307 161ZM310 569Q231 563 231 515Q231 473 298 455Q300 454 304 453T311 452Q318 450 318 458V561Q318 569 310 569ZM453
399Q515 367 541 325T568 225Q568 26 306 16Q298 16 298 7V-28Q298 -51 281 -68T241 -85H225Q202 -85 185 -68T168 -28V16Q168 24 159 26Q133 32 121 36Q97 43 83 64T68 112V162Q68 181 85 191T120 194Q145 183 160 179Q168 177 168 185V308Q168 313 170 323Q172
332 166 335Q43 400 43 515Q43 605 111 659T310 715Q318 715 318 724V758Q318 781 335 798T375 815H391Q414 815 431 798T448 758V714Q448 706 456 704Q461 703 471 702T487 699Q512 694 527 674T543 628V584Q543 563 526 551T488 545Q482 546 472 549T456 554Q448
556 448 547V422Q448 415 447 412Q445 402 453 399Z" />
<glyph unicode="%" glyph-name="percent" horiz-adv-x="936" d="M656 730Q676 730 686 713T688 679L378 51Q353 0 296 0H280Q260 0 250 17T248 51L558 679Q583 730 640 730H656ZM683 106T708 106T745 126T758 195T746 264T708 284T671 264T658 195T670 126ZM613
400T708 400T855 346T908 195T856 44T708 -10T561 44T508 195T560 346ZM203 446T228 446T265 466T278 535T266 604T228 624T191 604T178 535T190 466ZM428 632T428 535T376 384T228 330T81 384T28 535T80 686T228 740T375 686Z" />
<glyph unicode="&amp;" glyph-name="ampersand" horiz-adv-x="772" d="M417 156Q420 157 420 160T419 165L307 264Q300 269 294 265Q248 230 248 200Q248 140 338 140Q374 140 417 156ZM343 605Q309 605 289 589T268 550Q268 530 278 513T322 460Q328 454 334
458Q383 487 398 504T413 540Q413 570 395 587T343 605ZM704 101L772 39Q783 28 777 14T756 0H656Q604 0 564 35Q557 40 550 37Q427 -10 328 -10Q43 -10 43 180Q43 274 180 367Q188 371 182 377Q121 434 100 472T78 560Q78 638 148 689T338 740Q470 740 536 692T603
555Q603 503 566 455T445 354Q438 351 445 344L512 281Q516 279 518 284V323Q518 346 535 363T575 380H641Q664 380 681 363T698 323V116Q698 107 704 101Z" />
<glyph unicode="&apos;" glyph-name="quotesingle" horiz-adv-x="336" d="M221 770Q244 770 259 753T273 714L253 506Q251 482 233 466T191 450H145Q121 450 103 466T83 506L63 714Q61 736 77 753T115 770H221Z" />
<glyph unicode="(" glyph-name="parenleft" horiz-adv-x="430" d="M371 770Q387 770 394 755T391 726Q238 533 238 285T391 -156Q402 -169 395 -184T371 -200H325Q264 -200 228 -159Q147 -69 103 46T58 285T102 523T228 729Q264 770 325 770H371Z" />
<glyph unicode=")" glyph-name="parenright" horiz-adv-x="430" d="M105 770Q166 770 202 729Q283 639 327 524T372 285T328 47T202 -159Q166 -200 105 -200H59Q43 -200 36 -185T39 -156Q192 37 192 285T39 726Q28 739 35 754T59 770H105Z" />
<glyph unicode="*" glyph-name="asterisk" horiz-adv-x="506" d="M460 606L465 590Q472 568 461 548T428 521L358 501Q355 500 354 497T355 492L400 435Q414 417 411 394T389 357L376 347Q357 333 334 337T298 361L258 421Q256 423 253 423T248 421L208 361Q195
342 172 338T130 347L117 357Q98 370 95 393T106 435L151 492Q153 494 152 497T148 501L78 521Q55 527 44 547T41 590L46 606Q53 628 74 638T117 640L185 615Q188 614 190 616T193 621L190 693Q189 716 205 733T245 750H261Q284 750 300 733T316 693L313 621Q313
618 315 616T321 615L389 640Q410 648 431 638T460 606Z" />
<glyph unicode="+" glyph-name="plus" horiz-adv-x="736" d="M611 365Q634 365 651 348T668 308V272Q668 249 651 232T611 215H457Q448 215 448 206V57Q448 34 431 17T391 0H345Q322 0 305 17T288 57V206Q288 215 279 215H125Q102 215 85 232T68 272V308Q68 331
85 348T125 365H279Q288 365 288 374V523Q288 546 305 563T345 580H391Q414 580 431 563T448 523V374Q448 365 457 365H611Z" />
<glyph unicode="," glyph-name="comma" horiz-adv-x="359" d="M262 210Q282 210 294 193T299 157L219 -57Q210 -81 189 -95T142 -110H96Q74 -110 60 -93T49 -54L89 154Q93 178 112 194T156 210H262Z" />
<glyph unicode="-" glyph-name="hyphen" horiz-adv-x="496" d="M371 365Q394 365 411 348T428 308V272Q428 249 411 232T371 215H125Q102 215 85 232T68 272V308Q68 331 85 348T125 365H371Z" />
<glyph unicode="." glyph-name="period" horiz-adv-x="386" d="M246 210Q269 210 286 193T303 153V57Q303 34 286 17T246 0H140Q117 0 100 17T83 57V153Q83 176 100 193T140 210H246Z" />
<glyph unicode="/" glyph-name="slash" horiz-adv-x="542" d="M466 730Q486 730 497 713T500 678L196 12Q186 -11 164 -25T116 -40H60Q40 -40 29 -23T26 12L330 678Q341 701 363 715T410 730H466Z" />
<glyph unicode="0" glyph-name="zero" horiz-adv-x="660" d="M280 140T330 140T402 188T425 365T403 541T330 590T258 542T235 365T257 189ZM178 740T330 740T556 652T630 365T556 78T330 -10T104 78T30 365T104 652Z" />
<glyph unicode="1" glyph-name="one" horiz-adv-x="660" d="M433 730Q456 730 473 713T490 673V57Q490 34 473 17T433 0H337Q314 0 297 17T280 57V510H279L137 412Q122 402 106 410T90 437V543Q90 600 137 632L233 698Q279 730 337 730H433Z" />
<glyph unicode="2" glyph-name="two" horiz-adv-x="660" d="M538 160Q561 160 578 143T595 103V57Q595 34 578 17T538 0H132Q109 0 92 17T75 57V103Q75 159 120 194Q285 320 335 380T385 500Q385 575 300 575Q240 575 144 541Q124 534 107 545T90 577V643Q90 669
105 689T144 716Q242 740 330 740Q455 740 522 682T590 520Q590 438 539 364T336 163Q335 162 335 161T336 160H538Z" />
<glyph unicode="3" glyph-name="three" horiz-adv-x="660" d="M400 430Q482 430 533 376T585 230Q585 113 513 52T305 -10Q219 -10 131 10Q106 15 91 35T75 82V138Q75 159 92 170T129 176Q217 148 285 148Q336 148 363 168T390 225Q390 267 358 283T227 300Q204
300 187 317T170 357V373Q170 430 214 466L339 567Q340 568 340 569T339 570H127Q104 570 87 587T70 627V673Q70 696 87 713T127 730H518Q541 730 558 713T575 673V627Q575 569 530 536L391 433Q390 432 390 431T391 430H400Z" />
<glyph unicode="4" glyph-name="four" horiz-adv-x="660" d="M330 294V499Q330 500 329 500Q327 500 327 499L181 288L180 287V286Q180 285 181 285H321Q330 285 330 294ZM563 285Q586 285 603 268T620 228V187Q620 164 603 147T563 130H528Q520 130 520 121V57Q520
34 503 17T463 0H387Q364 0 347 17T330 57V121Q330 130 321 130H67Q44 130 27 147T10 187V228Q10 284 43 331L297 684Q330 730 387 730H463Q486 730 503 713T520 673V294Q520 285 528 285H563Z" />
<glyph unicode="5" glyph-name="five" horiz-adv-x="660" d="M359 480Q474 480 536 420T599 250Q599 120 520 55T279 -10Q214 -10 139 3Q115 7 100 27T84 72V123Q84 144 101 157T139 166Q217 148 269 148Q404 148 404 250Q404 330 319 330Q309 330 295 326Q285
323 264 314T225 300T192 295H136Q113 295 97 312T82 352L96 673Q97 697 114 713T156 730H507Q530 730 547 713T564 673V627Q564 604 547 587T507 570H288Q279 570 279 562L274 466Q274 465 275 465H277Q321 480 359 480Z" />
<glyph unicode="6" glyph-name="six" horiz-adv-x="660" d="M330 130Q377 130 403 159T430 245Q430 360 330 360Q283 360 257 330T230 245Q230 191 257 161T330 130ZM370 490Q492 490 556 429T620 250Q620 128 543 59T330 -10Q193 -10 117 73T40 320Q40 529 127
634T375 740Q430 740 487 731Q511 727 526 708T541 663V627Q541 607 525 595T488 587Q434 600 385 600Q249 600 229 457Q229 455 230 455H232Q289 490 370 490Z" />
<glyph unicode="7" glyph-name="seven" horiz-adv-x="660" d="M538 730Q561 730 578 713T595 673V627Q595 571 567 521Q449 316 354 53Q345 29 324 15T278 0H177Q157 0 145 17T141 53Q252 325 404 563Q405 564 405 568Q405 570 402 570H122Q99 570 82 587T65 627V673Q65
696 82 713T122 730H538Z" />
<glyph unicode="8" glyph-name="eight" horiz-adv-x="660" d="M286 125T330 125T404 150T435 210Q435 243 414 261T315 308Q306 311 299 307Q255 282 240 261T225 210Q225 175 255 150ZM370 605T330 605T265 584T240 530Q240 503 259 484T332 445Q338 442 347
446Q390 467 405 485T420 530Q420 562 395 583ZM488 391Q630 328 630 200Q630 104 551 47T330 -10T109 47T30 200Q30 251 60 291T163 368Q164 368 164 369Q164 371 163 371Q50 441 50 550Q50 632 124 686T330 740T535 686T610 550Q610 461 487 394Q486 394 486
393Q486 391 488 391Z" />
<glyph unicode="9" glyph-name="nine" horiz-adv-x="660" d="M230 370T330 370T430 495Q430 543 403 571T330 600Q283 600 257 572T230 495Q230 370 330 370ZM330 740Q467 740 543 658T620 420Q620 -10 285 -10Q234 -10 164 0Q140 4 125 23T109 67V103Q109 124
125 136T163 144Q221 130 275 130Q422 130 431 273Q431 275 430 275H428Q371 240 290 240Q40 240 40 490Q40 605 117 672T330 740Z" />
<glyph unicode=":" glyph-name="colon" horiz-adv-x="466" d="M286 580Q309 580 326 563T343 523V427Q343 404 326 387T286 370H180Q157 370 140 387T123 427V523Q123 546 140 563T180 580H286ZM286 210Q309 210 326 193T343 153V57Q343 34 326 17T286 0H180Q157
0 140 17T123 57V153Q123 176 140 193T180 210H286Z" />
<glyph unicode=";" glyph-name="semicolon" horiz-adv-x="457" d="M282 210Q302 210 314 193T319 157L239 -57Q230 -81 209 -95T162 -110H116Q94 -110 80 -93T69 -54L109 154Q113 178 132 194T176 210H282ZM282 580Q305 580 322 563T339 523V427Q339 404 322 387T282
370H176Q152 370 136 387T119 427V523Q119 546 135 563T176 580H282Z" />
<glyph unicode="&lt;" glyph-name="less" horiz-adv-x="696" d="M559 572Q579 579 596 567T613 533V487Q613 462 598 442T559 413L164 291Q163 291 163 290T164 289L559 167Q583 159 598 139T613 93V47Q613 26 596 14T559 8L107 162Q83 170 68 191T53 237V343Q53
368 68 389T107 418L559 572Z" />
<glyph unicode="=" glyph-name="equal" horiz-adv-x="756" d="M621 495Q644 495 661 478T678 438V402Q678 379 661 362T621 345H135Q112 345 95 362T78 402V438Q78 461 95 478T135 495H621ZM621 235Q644 235 661 218T678 178V142Q678 119 661 102T621 85H135Q112
85 95 102T78 142V178Q78 201 95 218T135 235H621Z" />
<glyph unicode="&gt;" glyph-name="greater" horiz-adv-x="696" d="M589 418Q613 410 628 389T643 343V237Q643 212 628 191T589 162L137 8Q117 1 100 13T83 47V93Q83 118 98 138T137 167L532 289Q533 289 533 290T532 291L137 413Q113 421 98 441T83 487V533Q83
554 100 566T137 572L589 418Z" />
<glyph unicode="?" glyph-name="question" horiz-adv-x="656" d="M333 740Q460 740 531 690T603 560Q603 522 593 492T561 437T523 400T475 365Q410 320 392 293Q357 240 316 240H250Q226 240 210 257T201 296Q210 328 233 358T274 405T324 446Q348 465 360 475T382
501T393 530Q393 585 303 585Q230 585 128 560Q108 555 91 568T73 602V653Q73 678 88 697T129 721Q235 740 333 740ZM326 160Q349 160 366 143T383 103V57Q383 34 366 17T326 0H240Q217 0 200 17T183 57V103Q183 126 200 143T240 160H326Z" />
<glyph unicode="@" glyph-name="at" horiz-adv-x="806" d="M452 256V264Q452 307 435 330T389 353Q326 353 326 260Q326 216 343 192T389 167Q418 167 435 190T452 256ZM403 635Q567 635 672 531T778 260Q778 186 753 119Q744 95 722 81T673 67H509Q490 67 476
80T461 112L460 118Q460 119 459 119T458 118Q412 60 345 60Q279 60 236 113T193 260Q193 356 234 408T345 460Q411 460 457 402Q457 401 459 401Q460 401 460 402V408Q460 427 473 440T505 453H536Q559 453 576 436T593 396V176Q593 167 601 167H656Q665 167 667
175Q678 216 678 260Q678 383 602 459T403 535Q282 535 205 459T128 260T205 62T403 -15Q474 -15 525 9Q543 18 564 15T598 -5Q611 -21 607 -41T585 -72Q504 -115 403 -115Q244 -115 136 -10T28 260Q28 424 134 529T403 635Z" />
<glyph unicode="A" glyph-name="A" horiz-adv-x="676" d="M284 290H388Q391 290 393 292T395 298L337 559Q337 560 336 560T335 559L277 298Q276 295 278 293T284 290ZM460 676L656 54Q662 34 650 17T616 0H518Q493 0 474 15T449 55L432 132Q430 140 422 140H251Q241
140 240 132L223 55Q218 31 199 16T154 0H60Q39 0 27 17T20 54L216 676Q223 700 243 715T290 730H386Q411 730 431 715T460 676Z" />
<glyph unicode="B" glyph-name="B" horiz-adv-x="641" d="M313 140Q373 140 400 162T428 230Q428 305 318 305H277Q268 305 268 296V154Q268 145 276 143Q294 140 313 140ZM268 576V454Q268 445 277 445H298Q413 445 413 520Q413 590 313 590Q294 590 276 587Q268
585 268 576ZM444 384Q521 374 567 325T613 210Q613 97 540 44T303 -10Q220 -10 130 -2Q106 0 90 18T73 62V668Q73 692 89 711T129 732Q214 740 293 740Q593 740 593 550Q593 486 553 442T444 386Q443 386 443 385T444 384Z" />
<glyph unicode="C" glyph-name="C" horiz-adv-x="656" d="M535 165Q555 171 571 159T588 126V72Q588 46 573 26T532 2Q464 -10 388 -10Q218 -10 123 86T28 365Q28 544 120 642T378 740Q454 740 522 728Q547 724 562 704T578 658V602Q578 581 562 569T525 562Q463
580 403 580Q323 580 278 526T233 365Q233 261 282 205T413 148Q476 148 535 165Z" />
<glyph unicode="D" glyph-name="D" horiz-adv-x="701" d="M313 145Q398 145 440 199T483 375Q483 485 441 535T313 585Q294 585 276 582Q268 580 268 572V159Q268 150 276 148Q294 145 313 145ZM293 740Q473 740 573 644T673 375Q673 188 573 89T293 -10Q214 -10
129 -2Q105 0 89 19T73 62V668Q73 692 89 711T129 732Q214 740 293 740Z" />
<glyph unicode="E" glyph-name="E" horiz-adv-x="616" d="M496 730Q519 730 536 713T553 673V627Q553 604 536 587T496 570H282Q273 570 273 562V459Q273 450 282 450H476Q499 450 516 433T533 393V357Q533 334 516 317T476 300H282Q273 300 273 292V169Q273 160
282 160H496Q519 160 536 143T553 103V57Q553 34 536 17T496 0H130Q107 0 90 17T73 57V673Q73 696 90 713T130 730H496Z" />
<glyph unicode="F" glyph-name="F" horiz-adv-x="601" d="M486 730Q509 730 526 713T543 673V627Q543 604 526 587T486 570H282Q273 570 273 562V439Q273 430 282 430H466Q489 430 506 413T523 373V337Q523 314 506 297T466 280H282Q273 280 273 271V57Q273 34
256 17T216 0H130Q107 0 90 17T73 57V673Q73 696 90 713T130 730H486Z" />
<glyph unicode="G" glyph-name="G" horiz-adv-x="726" d="M601 450Q624 450 641 433T658 393V87Q658 61 644 41T605 14Q512 -10 408 -10Q233 -10 131 88T28 365T127 641T408 740Q482 740 562 727Q586 723 602 703T618 658V609Q618 588 602 575T564 566Q494 582
433 582Q329 582 280 530T231 365Q231 252 278 200T418 148Q437 148 459 153Q468 155 468 164V291Q468 300 459 300H395Q372 300 355 317T338 357V393Q338 416 355 433T395 450H601Z" />
<glyph unicode="H" glyph-name="H" horiz-adv-x="726" d="M596 730Q619 730 636 713T653 673V57Q653 34 636 17T596 0H510Q487 0 470 17T453 57V291Q453 300 445 300H282Q273 300 273 291V57Q273 34 256 17T216 0H130Q107 0 90 17T73 57V673Q73 696 90 713T130
730H216Q239 730 256 713T273 673V459Q273 450 282 450H445Q453 450 453 459V673Q453 696 470 713T510 730H596Z" />
<glyph unicode="I" glyph-name="I" horiz-adv-x="386" d="M246 730Q269 730 286 713T303 673V57Q303 34 286 17T246 0H140Q117 0 100 17T83 57V673Q83 696 100 713T140 730H246Z" />
<glyph unicode="J" glyph-name="J" horiz-adv-x="591" d="M471 730Q494 730 511 713T528 673V280Q528 123 463 57T248 -10Q155 -10 82 9Q58 15 43 35T28 82V140Q28 159 44 170T80 175Q150 150 213 150Q270 150 296 184T323 300V673Q323 696 340 713T380 730H471Z" />
<glyph unicode="K" glyph-name="K" horiz-adv-x="682" d="M467 373L655 49Q665 33 655 17T626 0H510Q453 0 427 50L275 339Q275 340 274 340T273 339V57Q273 34 256 17T216 0H130Q107 0 90 17T73 57V673Q73 696 90 713T130 730H216Q239 730 256 713T273 673V421Q273
420 274 420T275 421L416 680Q443 730 500 730H616Q635 730 644 714T644 681L467 387Q462 381 467 373Z" />
<glyph unicode="L" glyph-name="L" horiz-adv-x="621" d="M516 165Q539 165 556 148T573 108V57Q573 34 556 17T516 0H130Q107 0 90 17T73 57V673Q73 696 90 713T130 730H221Q244 730 261 713T278 673V174Q278 165 287 165H516Z" />
<glyph unicode="M" glyph-name="M" horiz-adv-x="866" d="M736 730Q759 730 776 713T793 673V57Q793 34 776 17T736 0H663Q640 0 623 17T606 57V399Q606 400 605 400T604 399L531 203Q522 179 501 165T454 150H408Q382 150 361 164T331 203L258 399Q258 400 257
400T256 399V57Q256 34 239 17T199 0H130Q107 0 90 17T73 57V673Q73 696 90 713T130 730H219Q245 730 266 716T295 677L430 301Q430 300 431 300T432 301L567 677Q575 701 596 715T643 730H736Z" />
<glyph unicode="N" glyph-name="N" horiz-adv-x="726" d="M596 730Q619 730 636 713T653 673V57Q653 34 636 17T596 0H520Q463 0 438 51L265 399Q265 400 264 400T263 399V57Q263 34 246 17T206 0H130Q107 0 90 17T73 57V673Q73 696 90 713T130 730H206Q263 730
288 679L461 331Q461 330 462 330T463 331V673Q463 696 480 713T520 730H596Z" />
<glyph unicode="O" glyph-name="O" horiz-adv-x="756" d="M233 155T378 155T523 365T378 575T233 365ZM216 740T378 740T634 640T728 365T634 90T378 -10T122 90T28 365T122 640Z" />
<glyph unicode="P" glyph-name="P" horiz-adv-x="656" d="M313 370Q378 370 413 400T448 485Q448 590 313 590Q294 590 276 587Q268 585 268 576V382Q268 374 276 372Q300 370 313 370ZM293 740Q633 740 633 495Q633 362 557 294T333 225Q311 225 277 227Q268
227 268 219V57Q268 34 251 17T211 0H130Q107 0 90 17T73 57V668Q73 692 89 711T129 732Q214 740 293 740Z" />
<glyph unicode="Q" glyph-name="Q" horiz-adv-x="767" d="M233 155T378 155T523 365T378 575T233 365ZM594 58Q704 1 778 -102Q789 -118 780 -134T751 -150H655Q600 -150 570 -100Q534 -40 500 -25T378 -10Q216 -10 122 90T28 365T122 640T378 740T634 640T728
365Q728 167 594 62Q593 62 593 60T594 58Z" />
<glyph unicode="R" glyph-name="R" horiz-adv-x="669" d="M323 400Q374 400 403 425T433 495Q433 590 323 590Q298 590 277 587Q268 585 268 576V409Q268 400 277 400H323ZM581 200L634 53Q641 33 629 17T596 0H505Q479 0 458 15T430 54L386 190Q375 225 358 240T313
255H277Q268 255 268 246V57Q268 34 251 17T211 0H130Q107 0 90 17T73 57V668Q73 692 88 710T128 731Q226 740 333 740Q633 740 633 515Q633 452 595 398T494 321Q493 321 493 320Q493 318 494 318Q524 301 543 275T581 200Z" />
<glyph unicode="S" glyph-name="S" horiz-adv-x="616" d="M318 460Q458 419 513 362T568 210Q568 -10 283 -10Q192 -10 118 20Q95 29 82 52T68 102V153Q68 172 84 181T117 182Q196 145 273 145Q363 145 363 205Q363 233 349 248T298 275Q165 316 107 377T48 530Q48
628 118 684T323 740Q419 740 494 719Q518 712 533 691T548 643V594Q548 574 532 563T495 558Q406 587 333 587Q251 587 251 530Q251 480 318 460Z" />
<glyph unicode="T" glyph-name="T" horiz-adv-x="676" d="M571 730Q594 730 611 713T628 673V622Q628 599 611 582T571 565H449Q440 565 440 556V57Q440 34 424 17T384 0H292Q269 0 253 17T236 57V556Q236 565 227 565H105Q82 565 65 582T48 622V673Q48 696 65
713T105 730H571Z" />
<glyph unicode="U" glyph-name="U" horiz-adv-x="706" d="M586 730Q609 730 626 713T643 673V270Q643 130 569 60T353 -10T137 60T63 270V673Q63 696 80 713T120 730H208Q231 730 248 713T265 673V255Q265 197 286 174T355 150T424 173T445 255V673Q445 696 462
713T502 730H586Z" />
<glyph unicode="V" glyph-name="V" horiz-adv-x="676" d="M616 730Q637 730 649 713T656 676L460 54Q452 30 432 15T386 0H290Q264 0 244 15T216 54L20 676Q14 696 26 713T60 730H158Q183 730 202 715T227 675L335 191Q335 190 337 190Q338 190 338 191L452 675Q458
699 477 714T522 730H616Z" />
<glyph unicode="W" glyph-name="W" horiz-adv-x="906" d="M826 730Q848 730 862 713T872 674L754 56Q749 32 730 16T686 0H570Q546 0 528 16T507 56L454 529Q454 530 453 530T452 529L399 56Q396 32 378 16T336 0H220Q195 0 176 16T152 56L34 674Q29 696 43 713T80
730H168Q192 730 210 714T231 674L284 201Q284 200 285 200T286 201L330 674Q332 698 350 714T392 730H518Q542 730 560 714T580 674L624 201Q624 200 625 200T626 201L679 674Q682 698 700 714T742 730H826Z" />
<glyph unicode="X" glyph-name="X" horiz-adv-x="665" d="M471 362L618 51Q627 33 616 17T585 0H477Q452 0 432 15T402 54L331 259Q331 260 330 260T329 259L258 54Q250 30 230 15T183 0H79Q60 0 49 16T46 51L193 362Q196 370 193 378L51 679Q43 697 54 713T84
730H187Q213 730 234 716T263 677L333 481Q333 480 334 480T335 481L405 677Q413 701 434 715T481 730H580Q600 730 611 714T613 679L471 378Q468 370 471 362Z" />
<glyph unicode="Y" glyph-name="Y" horiz-adv-x="662" d="M609 730Q628 730 638 713T640 679L437 278Q434 273 434 261V57Q434 34 417 17T377 0H285Q262 0 246 17T229 57V261Q229 271 225 278L22 679Q13 696 23 713T53 730H166Q191 730 212 716T242 677L332 431Q332
430 333 430T334 431L424 677Q433 701 453 715T500 730H609Z" />
<glyph unicode="Z" glyph-name="Z" horiz-adv-x="646" d="M526 730Q549 730 566 713T583 673V627Q583 570 551 524L299 163Q299 162 299 162T298 161T299 160H526Q549 160 566 143T583 103V57Q583 34 566 17T526 0H120Q97 0 80 17T63 57V103Q63 160 95 206L347
567Q347 568 347 568T348 569T347 570H120Q97 570 80 587T63 627V673Q63 696 80 713T120 730H526Z" />
<glyph unicode="[" glyph-name="bracketleft" horiz-adv-x="536" d="M406 770Q429 770 446 753T463 713V697Q463 674 446 657T406 640H282Q273 640 273 632V-61Q273 -70 282 -70H406Q429 -70 446 -87T463 -127V-143Q463 -166 446 -183T406 -200H160Q137 -200 120
-183T103 -143V713Q103 736 120 753T160 770H406Z" />
<glyph unicode="\" glyph-name="backslash" horiz-adv-x="542" d="M211 678L515 12Q524 -6 513 -23T481 -40H425Q400 -40 378 -26T345 12L41 678Q33 696 44 713T75 730H131Q157 730 179 716T211 678Z" />
<glyph unicode="]" glyph-name="bracketright" horiz-adv-x="536" d="M376 770Q399 770 416 753T433 713V-143Q433 -166 416 -183T376 -200H130Q107 -200 90 -183T73 -143V-127Q73 -104 90 -87T130 -70H254Q263 -70 263 -62V631Q263 640 254 640H130Q107 640 90
657T73 697V713Q73 736 90 753T130 770H376Z" />
<glyph unicode="^" glyph-name="asciicircum" horiz-adv-x="675" d="M481 679L643 331Q652 313 641 297T610 280H544Q518 280 497 294T465 332L338 629Q338 630 337 630T336 629L209 332Q200 308 178 294T130 280H64Q45 280 34 296T31 331L193 679Q205 702 227
716T274 730H400Q426 730 448 716T481 679Z" />
<glyph unicode="_" glyph-name="underscore" horiz-adv-x="616" d="M561 -70Q584 -70 601 -87T618 -127V-143Q618 -166 601 -183T561 -200H55Q32 -200 15 -183T-2 -143V-127Q-2 -104 15 -87T55 -70H561Z" />
<glyph unicode="`" glyph-name="grave" horiz-adv-x="348" d="M238 757L318 543Q325 524 313 507T281 490H235Q208 490 185 503T148 538L8 762Q-2 778 7 794T35 810H161Q186 810 207 796T238 757Z" />
<glyph unicode="a" glyph-name="a" horiz-adv-x="596" d="M348 210V216Q348 225 339 225H308Q208 225 208 165Q208 120 258 120Q297 120 322 144T348 210ZM288 530Q420 530 479 482T538 330V57Q538 34 521 17T481 0H418Q394 0 377 16T359 57V65Q359 66 358 66T356
65Q292 -10 198 -10Q128 -10 83 34T38 150Q38 330 308 330H339Q348 330 348 339V340Q348 400 278 400Q218 400 123 382Q102 378 85 391T68 427V443Q68 468 83 488T123 512Q222 530 288 530Z" />
<glyph unicode="b" glyph-name="b" horiz-adv-x="641" d="M338 130Q377 130 400 162T423 260Q423 390 338 390Q304 390 279 367T253 315V205Q253 176 278 153T338 130ZM408 530Q500 530 554 461T608 260Q608 132 552 61T408 -10Q312 -10 250 65Q249 66 248 66T247
65V57Q246 33 229 17T188 0H125Q102 0 85 17T68 57V693Q68 716 85 733T125 750H201Q224 750 241 733T258 693V471Q258 470 259 470T261 471Q328 530 408 530Z" />
<glyph unicode="c" glyph-name="c" horiz-adv-x="536" d="M422 137Q444 141 461 128T478 93V67Q478 42 463 23T422 0Q352 -10 303 -10Q170 -10 99 58T28 260Q28 391 96 460T293 530Q342 530 412 520Q437 516 452 497T468 453V427Q468 405 451 392T412 383Q371
390 328 390Q277 390 253 359T228 260Q228 191 254 161T338 130Q381 130 422 137Z" />
<glyph unicode="d" glyph-name="d" horiz-adv-x="641" d="M388 205V315Q388 344 363 367T303 390Q218 390 218 260Q218 195 241 163T303 130Q337 130 362 153T388 205ZM516 750Q539 750 556 733T573 693V57Q573 34 556 17T516 0H453Q429 0 412 16T394 57V65Q394
66 393 66T391 65Q330 -10 233 -10Q146 -10 90 61T33 260Q33 391 87 460T233 530Q313 530 380 471Q381 470 382 470T383 471V693Q383 716 400 733T440 750H516Z" />
<glyph unicode="e" glyph-name="e" horiz-adv-x="581" d="M364 310Q373 310 373 319Q372 365 354 385T298 405Q259 405 240 386T215 318Q215 310 223 310H364ZM293 530Q547 530 548 262Q548 238 530 222T487 205H225Q216 205 218 196Q227 154 257 137T353 120Q394
120 453 132Q474 137 491 124T508 88V72Q508 47 493 27T453 2Q392 -10 323 -10Q181 -10 105 59T28 260Q28 390 96 460T293 530Z" />
<glyph unicode="f" glyph-name="f" horiz-adv-x="561" d="M448 735Q472 732 487 713T503 668V647Q503 626 487 613T449 603Q431 605 423 605Q376 605 362 590T348 520V509Q348 500 357 500H436Q459 500 476 483T493 443V427Q493 404 476 387T436 370H357Q348 370
348 361V57Q348 34 331 17T291 0H210Q187 0 170 17T153 57V361Q153 370 144 370H100Q77 370 60 387T43 427V443Q43 466 60 483T100 500H144Q153 500 153 509V520Q153 634 206 687T373 740Q408 740 448 735Z" />
<glyph unicode="g" glyph-name="g" horiz-adv-x="626" d="M378 225V310Q378 345 355 367T298 390Q218 390 218 270Q218 213 239 184T298 155Q331 155 354 176T378 225ZM506 520Q529 520 546 503T563 463V50Q563 -84 482 -157T253 -230Q196 -230 139 -221Q115 -217
99 -198T83 -153V-112Q83 -91 99 -80T137 -73Q182 -85 243 -85Q313 -85 345 -54T378 50V75Q378 76 377 76Q375 76 375 75Q321 15 233 15Q146 15 90 83T33 270Q33 394 87 462T233 530Q320 530 381 455Q382 454 383 454T384 455V463Q385 487 402 503T443 520H506Z"
/>
<glyph unicode="h" glyph-name="h" horiz-adv-x="636" d="M408 530Q501 530 539 477T578 280V57Q578 34 561 17T521 0H450Q427 0 410 17T393 57V260Q393 334 381 357T333 380Q305 380 282 358T258 310V57Q258 34 241 17T201 0H125Q102 0 85 17T68 57V693Q68 716
85 733T125 750H201Q224 750 241 733T258 693V471Q258 470 259 470T261 471Q332 530 408 530Z" />
<glyph unicode="i" glyph-name="i" horiz-adv-x="366" d="M226 520Q249 520 266 503T283 463V57Q283 34 266 17T226 0H140Q117 0 100 17T83 57V463Q83 486 100 503T140 520H226ZM226 750Q249 750 266 733T283 693V667Q283 644 266 627T226 610H140Q117 610 100
627T83 667V693Q83 716 100 733T140 750H226Z" />
<glyph unicode="j" glyph-name="j" horiz-adv-x="421" d="M281 520Q304 520 321 503T338 463V10Q338 -75 313 -121T223 -191T35 -219Q12 -220 -5 -203T-22 -163V-132Q-22 -109 -6 -93T34 -74Q99 -71 118 -54T138 10V463Q138 486 155 503T195 520H281ZM281 750Q304
750 321 733T338 693V667Q338 644 321 627T281 610H195Q172 610 155 627T138 667V693Q138 716 155 733T195 750H281Z" />
<glyph unicode="k" glyph-name="k" horiz-adv-x="613" d="M413 263L574 46Q584 32 576 16T551 0H450Q392 0 360 46L261 189Q261 190 259 190Q258 190 258 189V57Q258 34 241 17T201 0H125Q102 0 85 17T68 57V693Q68 716 85 733T125 750H201Q224 750 241 733T258
693V341Q258 340 259 340L261 341L359 474Q392 520 450 520H551Q568 520 576 505T573 476L413 277Q408 270 413 263Z" />
<glyph unicode="l" glyph-name="l" horiz-adv-x="366" d="M226 750Q249 750 266 733T283 693V57Q283 34 266 17T226 0H140Q117 0 100 17T83 57V693Q83 716 100 733T140 750H226Z" />
<glyph unicode="m" glyph-name="m" horiz-adv-x="881" d="M658 530Q744 530 783 484T823 330V57Q823 34 806 17T766 0H695Q672 0 656 17T639 57V330Q639 364 629 376T593 388Q573 388 556 375T538 350V57Q538 34 521 17T481 0H410Q387 0 371 17T354 57V330Q354
364 344 376T308 388Q288 388 271 375T253 350V57Q253 34 236 17T196 0H120Q97 0 80 17T63 57V463Q63 486 80 503T120 520H181Q205 520 222 504T241 463L242 451Q242 450 243 450Q245 450 245 451Q272 488 309 509T383 530Q429 530 456 514T509 456Q509 455 510
455Q512 455 513 456Q587 530 658 530Z" />
<glyph unicode="n" glyph-name="n" horiz-adv-x="631" d="M312 530T403 530T533 478T573 300V57Q573 34 556 17T516 0H445Q422 0 405 17T388 57V300Q388 346 375 363T328 380Q300 380 277 358T253 310V57Q253 34 236 17T196 0H120Q97 0 80 17T63 57V463Q63 486
80 503T120 520H188Q212 520 229 504T247 463V455Q247 454 248 454Q250 454 250 455Q312 530 403 530Z" />
<glyph unicode="o" glyph-name="o" horiz-adv-x="596" d="M256 120T298 120T359 151T378 260T359 368T298 400T237 369T218 260T237 152ZM170 530T298 530T497 459T568 260T497 62T298 -10T99 61T28 260T99 458Z" />
<glyph unicode="p" glyph-name="p" horiz-adv-x="636" d="M333 130Q372 130 395 162T418 260Q418 390 333 390Q301 390 275 366T248 315V205Q248 178 274 154T333 130ZM403 530Q495 530 549 461T603 260Q603 132 547 61T403 -10Q324 -10 256 50Q255 51 254 51T253
50V-163Q253 -186 236 -203T196 -220H120Q97 -220 80 -203T63 -163V463Q63 486 80 503T120 520H188Q212 520 229 504T247 463V455Q247 454 248 454T250 455Q312 530 403 530Z" />
<glyph unicode="q" glyph-name="q" horiz-adv-x="636" d="M388 205V315Q388 342 362 366T303 390Q218 390 218 260Q218 195 241 163T303 130Q335 130 361 154T388 205ZM516 520Q539 520 556 503T573 463V-163Q573 -186 556 -203T516 -220H440Q417 -220 400 -203T383
-163V50Q383 51 382 51T380 50Q312 -10 233 -10Q146 -10 90 61T33 260Q33 391 87 460T233 530Q324 530 386 455Q387 454 388 454T389 455V463Q390 487 407 503T448 520H516Z" />
<glyph unicode="r" glyph-name="r" horiz-adv-x="526" d="M426 518Q449 521 466 504T483 463V437Q483 414 467 398T427 378Q350 368 304 321T258 205V57Q258 34 241 17T201 0H120Q97 0 80 17T63 57V463Q63 486 80 503T120 520H196Q219 520 236 503T253 463V421Q253
420 254 420T256 421Q319 504 426 518Z" />
<glyph unicode="s" glyph-name="s" horiz-adv-x="546" d="M288 335Q402 320 450 278T498 155Q498 76 441 33T273 -10Q191 -10 108 6Q84 11 69 31T53 77V103Q53 124 70 136T107 143Q182 125 248 125Q303 125 303 157Q303 172 294 179T258 190Q147 208 98 252T48
370Q48 446 106 488T283 530Q361 530 427 520Q452 516 467 497T483 453V432Q483 411 466 398T427 388Q366 400 302 400Q269 400 256 393T243 370Q243 340 288 335Z" />
<glyph unicode="t" glyph-name="t" horiz-adv-x="551" d="M431 500Q454 500 471 483T488 443V427Q488 404 471 387T431 370H342Q333 370 333 361V220Q333 160 343 145T388 130Q402 130 422 133Q443 136 460 123T478 88V62Q478 37 463 18T423 -5Q388 -10 338 -10Q231
-10 187 36T143 200V361Q143 370 134 370H95Q72 370 55 387T38 427V443Q38 466 55 483T95 500H134Q143 500 143 509V633Q143 656 160 673T200 690H276Q299 690 316 673T333 633V509Q333 500 342 500H431Z" />
<glyph unicode="u" glyph-name="u" horiz-adv-x="626" d="M506 520Q529 520 546 503T563 463V57Q563 34 546 17T506 0H438Q414 0 397 16T379 57V65Q379 66 378 66Q376 66 376 65Q314 -10 223 -10Q135 -10 97 39T58 210V463Q58 486 75 503T115 520H186Q209 520
226 503T243 463V220Q243 174 255 157T298 140Q326 140 349 162T373 210V463Q373 486 390 503T430 520H506Z" />
<glyph unicode="v" glyph-name="v" horiz-adv-x="577" d="M512 520Q533 520 546 503T553 466L430 54Q422 30 402 15T357 0H221Q195 0 175 15T148 54L25 466Q19 486 32 503T66 520H154Q178 520 197 504T222 464L290 111Q290 110 291 110T292 111L360 464Q364 488
383 504T428 520H512Z" />
<glyph unicode="w" glyph-name="w" horiz-adv-x="824" d="M745 520Q767 520 780 504T790 465L704 55Q699 31 680 16T635 0H529Q504 0 486 16T463 56L413 359Q413 360 412 360T411 359L361 56Q357 32 339 16T295 0H189Q164 0 145 15T120 55L34 465Q30 487 43 503T79
520H152Q176 520 194 504T216 464L253 151Q253 150 254 150T255 151L301 464Q305 488 323 504T366 520H462Q487 520 505 504T527 464L573 151Q573 150 574 150T575 151L612 464Q615 488 633 504T676 520H745Z" />
<glyph unicode="x" glyph-name="x" horiz-adv-x="570" d="M414 258L528 50Q537 33 527 17T498 0H410Q385 0 364 14T332 53L284 172Q284 173 283 173T282 172L234 53Q224 29 203 15T156 0H72Q53 0 43 16T42 50L156 258Q160 265 156 272L47 470Q38 487 48 503T77
520H165Q191 520 212 506T242 467L286 355Q286 354 287 354T288 355L332 467Q341 491 362 505T409 520H493Q512 520 522 504T523 470L414 272Q410 265 414 258Z" />
<glyph unicode="y" glyph-name="y" horiz-adv-x="582" d="M519 520Q540 520 551 504T557 467L330 -167Q321 -191 300 -205T254 -220H168Q147 -220 136 -204T132 -168L198 -8Q199 -4 199 0T198 8L26 467Q18 486 30 503T63 520H159Q183 520 202 504T227 464L285
171Q285 170 286 170T287 171L362 465Q368 489 388 504T433 520H519Z" />
<glyph unicode="z" glyph-name="z" horiz-adv-x="586" d="M466 520Q489 520 506 503T523 463V447Q523 390 486 347L304 133Q303 132 303 131T304 130H466Q489 130 506 113T523 73V57Q523 34 506 17T466 0H120Q97 0 80 17T63 57V73Q63 130 100 173L282 387Q283
388 283 389T282 390H120Q97 390 80 407T63 447V463Q63 486 80 503T120 520H466Z" />
<glyph unicode="{" glyph-name="braceleft" horiz-adv-x="556" d="M421 770Q444 770 461 753T478 713V697Q478 674 462 657T422 640Q372 639 360 625T348 550V460Q348 388 321 349T229 286Q228 286 228 285T229 284Q293 260 320 221T348 110V20Q348 -40 360 -54T422
-70Q445 -70 461 -87T478 -127V-143Q478 -166 461 -183T421 -200H348Q258 -200 218 -161T178 -30V105Q178 162 162 186T105 214Q81 216 65 232T48 272V298Q48 321 64 337T105 356Q145 360 161 384T178 465V600Q178 692 218 731T348 770H421Z" />
<glyph unicode="|" glyph-name="bar" horiz-adv-x="416" d="M236 810Q259 810 276 793T293 753V-163Q293 -186 276 -203T236 -220H180Q157 -220 140 -203T123 -163V753Q123 776 140 793T180 810H236Z" />
<glyph unicode="}" glyph-name="braceright" horiz-adv-x="556" d="M451 356Q475 354 491 338T508 298V272Q508 249 492 233T451 214Q411 210 395 186T378 105V-30Q378 -122 338 -161T208 -200H135Q112 -200 95 -183T78 -143V-127Q78 -104 94 -87T134 -70Q184
-69 196 -55T208 20V110Q208 182 235 221T327 284Q328 284 328 285T327 286Q263 310 236 349T208 460V550Q208 610 196 624T134 640Q111 640 95 657T78 697V713Q78 736 95 753T135 770H208Q298 770 338 731T378 600V465Q378 408 394 384T451 356Z" />
<glyph unicode="~" glyph-name="asciitilde" horiz-adv-x="709" d="M644 345Q663 327 665 302T653 256Q581 160 476 160Q388 160 312 234Q267 278 232 278Q196 278 161 236Q147 219 126 218T88 231L64 255Q46 273 44 298T55 344Q128 440 232 440Q321 440 396 366Q442
322 476 322Q513 322 547 364Q562 381 583 382T620 369L644 345Z" />
<glyph unicode="&#xa0;" glyph-name="uni00A0" horiz-adv-x="298" />
<glyph unicode="&#xa1;" glyph-name="exclamdown" horiz-adv-x="440" d="M313 223L337 -163Q339 -186 323 -203T283 -220H157Q134 -220 118 -203T103 -163L127 223Q129 247 146 263T187 280H253Q277 280 294 264T313 223ZM177 360Q154 360 137 377T120 417V463Q120
486 137 503T177 520H263Q286 520 303 503T320 463V417Q320 394 303 377T263 360H177Z" />
<glyph unicode="&#xa2;" glyph-name="cent" horiz-adv-x="561" d="M278 155V366Q278 369 276 370T271 371Q228 343 228 260Q228 179 270 151Q272 149 275 150T278 155ZM453 137Q474 141 491 128T508 93V67Q508 42 493 23T452 0Q448 0 440 -1T427 -3Q418 -5 418
-13V-123Q418 -146 401 -163T361 -180H335Q312 -180 295 -163T278 -123V-16Q278 -7 270 -7Q28 18 28 260Q28 504 270 528Q278 528 278 537V633Q278 656 295 673T335 690H361Q384 690 401 673T418 633V532Q418 524 427 522Q430 522 435 521T442 520Q467 516 482
497T498 453V427Q498 405 481 392T442 383Q440 384 435 384T427 385Q418 387 418 378V141Q418 132 426 134L453 137Z" />
<glyph unicode="&#xa3;" glyph-name="sterling" horiz-adv-x="636" d="M516 160Q539 160 556 143T573 103V57Q573 34 556 17T516 0H120Q97 0 80 17T63 57V114Q63 145 106 174Q153 206 153 300V301Q153 310 145 310H135Q112 310 95 327T78 367V383Q78 406 95 423T135
440H145Q153 440 153 449V520Q153 625 220 682T418 740Q465 740 504 733Q528 729 543 709T558 663V617Q558 597 541 585T504 578Q476 585 443 585Q388 585 368 568T348 505V449Q348 440 357 440H451Q474 440 491 423T508 383V367Q508 344 491 327T451 310H357Q348
310 348 301V300Q348 247 331 211T285 163Q283 163 283 161Q283 160 284 160H516Z" />
<glyph unicode="&#xa4;" glyph-name="currency" horiz-adv-x="649" d="M283 265T324 265T395 294T424 365T395 435T325 465T254 436T224 365T253 295ZM584 534L548 496Q541 490 544 483Q574 428 574 365T544 247Q541 240 548 234L584 196Q601 180 601 156T584
116L574 105Q557 88 533 88T492 105L456 142Q450 148 442 144Q389 115 325 115T206 144Q199 148 194 142L156 105Q139 88 116 88T76 105L64 116Q48 132 48 156T64 196L102 234Q107 240 104 247Q74 300 74 365T104 483Q107 490 102 496L64 534Q48 550 48 574T64
614L76 625Q92 642 115 642T156 625L194 588Q199 582 206 586Q260 615 324 615T442 586Q450 582 456 588L492 625Q509 642 533 642T574 625L584 614Q601 598 601 574T584 534Z" />
<glyph unicode="&#xa5;" glyph-name="yen" horiz-adv-x="672" d="M614 730Q633 730 643 713T645 679L503 398Q501 396 503 393T508 390H561Q583 390 599 374T616 335T600 296T561 280H449Q444 280 441 275Q438 270 438 264V228Q438 220 447 220H561Q583 220 599
204T616 165T600 126T561 110H447Q438 110 438 101V57Q438 34 422 17T382 0H290Q267 0 251 17T234 57V101Q234 110 225 110H111Q88 110 72 126T56 165T72 204T111 220H225Q234 220 234 228V264Q234 270 231 275Q228 280 223 280H111Q88 280 72 296T56 335T72 374T111
390H164Q167 390 168 393T169 398L27 679Q18 696 28 713T58 730H171Q196 730 217 716T247 677L337 431Q337 430 338 430T339 431L429 677Q438 701 458 715T505 730H614Z" />
<glyph unicode="&#xa6;" glyph-name="brokenbar" horiz-adv-x="416" d="M236 220Q259 220 276 203T293 163V-83Q293 -106 276 -123T236 -140H180Q157 -140 140 -123T123 -83V163Q123 186 140 203T180 220H236ZM236 730Q259 730 276 713T293 673V427Q293 404 276
387T236 370H180Q157 370 140 387T123 427V673Q123 696 140 713T180 730H236Z" />
<glyph unicode="&#xa7;" glyph-name="section" horiz-adv-x="596" d="M357 228Q383 251 383 285Q383 317 364 332T283 360Q273 362 255 366Q245 368 239 362Q213 339 213 305Q213 273 232 258T313 230Q323 228 341 224Q351 222 357 228ZM488 170Q548 129 548 40Q548
-46 482 -98T298 -150Q216 -150 137 -131Q113 -125 98 -105T83 -58V-12Q83 8 100 19T137 24Q212 0 278 0Q363 0 363 40Q363 74 293 85Q166 103 110 151T53 280Q53 362 108 410Q114 416 108 420Q48 461 48 550Q48 636 114 688T298 740Q380 740 459 721Q483 715 498
695T513 648V602Q513 582 496 571T459 566Q384 590 318 590Q233 590 233 550Q233 516 303 505Q430 487 486 439T543 310Q543 228 488 180Q482 174 488 170Z" />
<glyph unicode="&#xa8;" glyph-name="dieresis" horiz-adv-x="546" d="M416 760Q439 760 456 743T473 703V657Q473 634 456 617T416 600H360Q337 600 320 617T303 657V703Q303 726 320 743T360 760H416ZM186 760Q209 760 226 743T243 703V657Q243 634 226 617T186
600H130Q107 600 90 617T73 657V703Q73 726 90 743T130 760H186Z" />
<glyph unicode="&#xa9;" glyph-name="copyright" horiz-adv-x="806" d="M505 246Q523 250 537 240T552 211Q552 189 539 173T504 153Q464 148 428 148Q323 148 264 203T205 365Q205 468 262 525T422 582Q458 582 498 577Q519 574 532 558T546 519Q546 501 532
490T499 483Q468 490 437 490Q387 490 360 459T332 365Q332 305 362 272T444 239Q474 239 505 246ZM283 75T403 75T608 160T693 365T608 570T403 655T198 570T113 365T198 160ZM248 740T403 740T668 630T778 365T668 100T403 -10T138 100T28 365T138 630Z" />
<glyph unicode="&#xaa;" glyph-name="ordfeminine" horiz-adv-x="646" d="M516 260Q538 260 553 245T568 208T553 171T516 156H130Q108 156 93 171T78 208T93 245T130 260H516ZM364 488Q364 496 355 496H331Q251 496 251 448Q251 412 291 412Q322 412 343 432T364
484V488ZM355 580Q364 580 364 588Q364 636 307 636Q262 636 189 623Q170 619 155 631T139 664Q139 687 153 705T190 727Q270 740 315 740Q421 740 468 702T515 580V373Q515 350 499 333T459 316H420Q401 316 388 329T373 362L372 368L371 369L370 368Q318 308
243 308Q188 308 152 343T115 436Q115 580 331 580H355Z" />
<glyph unicode="&#xab;" glyph-name="guillemotleft" horiz-adv-x="736" d="M605 499Q621 509 637 500T653 473V427Q653 370 604 341L519 292Q518 292 518 290Q518 289 519 289L604 239Q653 210 653 153V107Q653 89 637 80T605 81L421 199Q373 229 373 287V293Q373
351 421 381L605 499ZM285 499Q301 509 317 500T333 473V427Q333 370 284 341L199 292Q198 292 198 290Q198 289 199 289L284 239Q333 210 333 153V107Q333 89 317 80T285 81L101 199Q53 229 53 287V293Q53 351 101 381L285 499Z" />
<glyph unicode="&#xac;" glyph-name="logicalnot" horiz-adv-x="686" d="M551 495Q574 495 591 478T608 438V172Q608 149 591 132T551 115H495Q472 115 455 132T438 172V336Q438 345 429 345H105Q82 345 65 362T48 402V438Q48 461 65 478T105 495H551Z" />
<glyph unicode="&#xad;" glyph-name="uni00AD" horiz-adv-x="496" d="M371 370Q394 370 411 353T428 313V267Q428 244 411 227T371 210H125Q102 210 85 227T68 267V313Q68 336 85 353T125 370H371Z" />
<glyph unicode="&#xae;" glyph-name="registered" horiz-adv-x="806" d="M393 385Q425 385 443 400T461 440Q461 496 393 496Q385 496 367 494Q359 492 359 484V394Q359 385 368 385H393ZM500 340Q499 340 499 339T500 338Q533 320 553 269L577 206Q584 187 573
170T541 153H527Q502 153 481 168T452 207L432 264Q420 301 387 301H368Q359 301 359 293V210Q359 187 342 170T302 153H295Q272 153 255 170T238 210V517Q238 541 254 559T294 579Q346 582 399 582Q585 582 585 452Q585 416 562 385T500 340ZM283 75T403 75T608
160T693 365T608 570T403 655T198 570T113 365T198 160ZM248 740T403 740T668 630T778 365T668 100T403 -10T138 100T28 365T138 630Z" />
<glyph unicode="&#xaf;" glyph-name="overscore" horiz-adv-x="496" d="M391 730Q414 730 431 713T448 673V657Q448 634 431 617T391 600H105Q82 600 65 617T48 657V673Q48 696 65 713T105 730H391Z" />
<glyph unicode="&#xb0;" glyph-name="degree" horiz-adv-x="406" d="M180 515T203 515T242 531T258 570T242 608T203 625T164 609T148 570T164 532ZM132 740T203 740T323 690T373 570T324 450T203 400T83 450T33 570T82 690Z" />
<glyph unicode="&#xb1;" glyph-name="plusminus" horiz-adv-x="756" d="M621 110Q644 110 661 93T678 53V17Q678 -6 661 -23T621 -40H135Q112 -40 95 -23T78 17V53Q78 76 95 93T135 110H621ZM621 475Q644 475 661 458T678 418V382Q678 359 661 342T621 325H467Q458
325 458 316V207Q458 184 441 167T401 150H355Q332 150 315 167T298 207V316Q298 325 290 325H135Q112 325 95 342T78 382V418Q78 441 95 458T135 475H290Q298 475 298 484V593Q298 616 315 633T355 650H401Q424 650 441 633T458 593V484Q458 475 467 475H621Z"
/>
<glyph unicode="&#xb2;" glyph-name="uni00B2" horiz-adv-x="400" d="M311 388Q331 388 345 374T359 340T345 306T311 292H95Q75 292 61 306T47 340Q47 387 86 418Q177 489 205 523T233 592Q233 637 182 637Q156 637 108 623Q89 617 73 628T56 658Q56 682 70 702T108
726Q161 736 200 736Q275 736 315 701T356 604Q356 554 325 510T204 390L203 389L204 388H311Z" />
<glyph unicode="&#xb3;" glyph-name="uni00B3" horiz-adv-x="400" d="M242 550Q291 550 322 517T353 430Q353 360 310 323T185 286Q142 286 97 295Q75 299 61 317T47 358Q47 376 62 387T95 393Q140 381 173 381Q236 381 236 427Q236 452 218 461T142 472Q126 472
115 483T104 511Q104 550 134 575L206 632V633L205 634H92Q72 634 58 648T44 682T58 716T92 730H299Q319 730 333 716T347 682Q347 634 309 605L236 552V551L237 550H242Z" />
<glyph unicode="&#xb4;" glyph-name="acute" horiz-adv-x="296" d="M267 770Q284 770 290 755T286 728L202 632Q165 590 107 590H61Q42 590 33 606T32 640L76 720Q89 743 112 756T161 770H267Z" />
<glyph unicode="&#xb5;" glyph-name="mu" horiz-adv-x="631" d="M511 520Q534 520 551 503T568 463V57Q568 34 551 17T511 0H450Q426 0 409 16T390 57L389 69Q389 70 388 70Q386 70 386 69Q364 33 331 12T264 -10H255Q246 -10 246 -18V-163Q246 -186 229 -203T189
-220H120Q97 -220 80 -203T63 -163V463Q63 486 80 503T120 520H189Q212 520 229 503T246 463V230Q246 172 257 154T298 135Q329 135 353 169T378 250V463Q378 486 395 503T435 520H511Z" />
<glyph unicode="&#xb6;" glyph-name="paragraph" horiz-adv-x="726" d="M596 730Q619 730 636 713T653 673V-83Q653 -106 636 -123T596 -140H550Q527 -140 510 -123T493 -83V582Q493 590 485 590H422Q413 590 413 582V-83Q413 -106 396 -123T356 -140H310Q287
-140 270 -123T253 -83V262Q253 270 244 270Q152 274 88 340T23 500Q23 595 90 662T253 730H596Z" />
<glyph unicode="&#xb7;" glyph-name="middot" horiz-adv-x="386" d="M246 395Q269 395 286 378T303 338V242Q303 219 286 202T246 185H140Q117 185 100 202T83 242V338Q83 361 100 378T140 395H246Z" />
<glyph unicode="&#xb8;" glyph-name="cedilla" horiz-adv-x="406" d="M245 0Q313 0 333 -47Q343 -70 343 -95Q343 -155 294 -187T148 -220Q129 -220 93 -216Q69 -213 54 -193T38 -148V-137Q38 -117 54 -106T91 -99Q118 -105 143 -105Q198 -105 198 -55Q198 -40
192 -28Q188 -19 192 -10T205 0H245Z" />
<glyph unicode="&#xb9;" glyph-name="uni00B9" horiz-adv-x="400" d="M227 730Q250 730 267 713T284 673V349Q284 326 267 309T227 292H215Q192 292 175 309T158 349V598H157L91 552Q76 542 60 550T44 577V595Q44 652 91 684L111 698Q157 730 215 730H227Z" />
<glyph unicode="&#xba;" glyph-name="ordmasculine" horiz-adv-x="646" d="M516 260Q538 260 553 245T568 208T553 171T516 156H130Q108 156 93 171T78 208T93 245T130 260H516ZM290 412T323 412T371 437T387 524T372 611T323 636T275 611T259 524T274 437ZM221
740T323 740T482 683T539 524T482 365T323 308T164 365T107 524T164 683Z" />
<glyph unicode="&#xbb;" glyph-name="guillemotright" horiz-adv-x="736" d="M315 381Q363 351 363 293V287Q363 229 315 199L131 81Q115 71 99 80T83 107V153Q83 210 132 239L217 288Q218 288 218 290T217 292L132 341Q83 370 83 427V473Q83 491 99 500T131 499L315
381ZM635 381Q683 351 683 293V287Q683 229 635 199L451 81Q435 71 419 80T403 107V153Q403 210 452 239L537 288Q538 288 538 290T537 292L452 341Q403 370 403 427V473Q403 491 419 500T451 499L635 381Z" />
<glyph unicode="&#xbc;" glyph-name="onequarter" horiz-adv-x="860" d="M651 180V299L650 300H649L561 173V172L562 171H642Q651 171 651 180ZM778 171Q798 171 811 158T825 124Q825 105 812 92T778 78H773Q765 78 765 70V57Q765 34 748 17T708 0T668 17T651
57V69Q651 78 642 78H506Q486 78 473 91T459 124Q459 172 486 209L618 392Q651 438 708 438Q731 438 748 421T765 381V179Q765 171 773 171H778ZM713 730Q731 730 739 715T738 684L292 46Q260 0 203 0H187Q169 0 161 15T162 46L608 684Q640 730 697 730H713ZM207
292Q184 292 167 309T150 349V598H149L83 552Q68 542 52 550T36 577V595Q36 652 83 684L103 698Q149 730 207 730H219Q242 730 259 713T276 673V349Q276 326 259 309T219 292H207Z" />
<glyph unicode="&#xbd;" glyph-name="onehalf" horiz-adv-x="860" d="M772 96Q792 96 806 82T820 48T806 14T772 0H556Q536 0 522 14T508 48Q508 95 547 126Q638 197 666 231T694 300Q694 345 643 345Q617 345 569 331Q550 325 534 336T517 366Q517 390 531 410T569
434Q622 444 661 444Q736 444 776 409T817 312Q817 262 786 218T665 98L664 97L665 96H772ZM663 730Q681 730 689 715T688 684L242 46Q210 0 153 0H137Q119 0 111 15T112 46L558 684Q590 730 647 730H663ZM150 598H149L83 552Q68 542 52 550T36 577V595Q36 652
83 684L103 698Q149 730 207 730H219Q242 730 259 713T276 673V349Q276 326 259 309T219 292H207Q184 292 167 309T150 349V598Z" />
<glyph unicode="&#xbe;" glyph-name="threequarters" horiz-adv-x="860" d="M651 180V299L650 300H649L561 173V172L562 171H642Q651 171 651 180ZM778 171Q798 171 811 158T825 124Q825 105 812 92T778 78H773Q765 78 765 70V57Q765 34 748 17T708 0T668 17T651
57V69Q651 78 642 78H506Q486 78 473 91T459 124Q459 172 486 209L618 392Q651 438 708 438Q731 438 748 421T765 381V179Q765 171 773 171H778ZM728 730Q746 730 754 715T753 684L307 46Q275 0 218 0H202Q184 0 176 15T177 46L623 684Q655 730 712 730H728ZM363
430Q363 360 320 323T195 286Q152 286 107 295Q85 299 71 317T57 358Q57 376 72 387T105 393Q150 381 183 381Q246 381 246 427Q246 452 228 461T152 472Q136 472 125 483T114 511Q114 550 144 575L216 632V633L215 634H102Q82 634 68 648T54 682T68 716T102 730H309Q329
730 343 716T357 682Q357 634 319 605L246 552V551L247 550H252Q301 550 332 517T363 430Z" />
<glyph unicode="&#xbf;" glyph-name="questiondown" horiz-adv-x="636" d="M330 520H416Q439 520 456 503T473 463V417Q473 394 456 377T416 360H330Q307 360 290 377T273 417V463Q273 486 290 503T330 520ZM528 -50Q548 -45 565 -58T583 -92V-143Q583 -168 568
-187T527 -211Q421 -230 323 -230Q196 -230 125 -180T53 -50Q53 -12 63 18T95 74T133 114T181 151Q185 154 196 162T213 174T227 186T241 199T253 211T264 226Q299 280 340 280H406Q430 280 445 263T455 224Q446 191 423 159T382 110T332 67Q307 46 296 36T274
10T263 -20Q263 -75 353 -75Q426 -75 528 -50Z" />
<glyph unicode="&#xc0;" glyph-name="Agrave" horiz-adv-x="676" d="M388 290Q391 290 393 292T395 298L337 559Q337 560 336 560T335 559L277 298Q276 295 278 293T284 290H388ZM460 676L656 54Q662 34 650 17T616 0H518Q493 0 474 15T449 55L432 132Q430 140
422 140H250Q241 140 240 132L223 55Q218 31 199 16T154 0H60Q39 0 27 17T20 54L216 676Q223 700 243 715T290 730H386Q411 730 431 715T460 676ZM301 970Q327 970 350 957T386 920L430 840Q439 823 429 807T401 790H355Q297 790 260 832L176 928Q165 940 171 955T195
970H301Z" />
<glyph unicode="&#xc1;" glyph-name="Aacute" horiz-adv-x="676" d="M388 290Q391 290 393 292T395 298L337 559Q337 560 336 560T335 559L277 298Q276 295 278 293T284 290H388ZM460 676L656 54Q662 34 650 17T616 0H518Q493 0 474 15T449 55L432 132Q430 140
422 140H250Q241 140 240 132L223 55Q218 31 199 16T154 0H60Q39 0 27 17T20 54L216 676Q223 700 243 715T290 730H386Q411 730 431 715T460 676ZM375 970H481Q497 970 504 955T500 928L416 832Q378 790 321 790H275Q256 790 247 806T246 840L290 920Q302 943 325
956T375 970Z" />
<glyph unicode="&#xc2;" glyph-name="Acircumflex" horiz-adv-x="676" d="M388 290Q391 290 393 292T395 298L337 559Q337 560 336 560T335 559L277 298Q276 295 278 293T284 290H388ZM460 676L656 54Q662 34 650 17T616 0H518Q493 0 474 15T449 55L432 132Q430
140 422 140H250Q241 140 240 132L223 55Q218 31 199 16T154 0H60Q39 0 27 17T20 54L216 676Q223 700 243 715T290 730H386Q411 730 431 715T460 676ZM401 970Q456 970 489 923L547 837Q557 822 548 806T521 790H455Q428 790 406 803T372 840L339 904Q339 905 338
905T337 904L304 840Q292 817 270 804T221 790H155Q137 790 128 806T129 837L187 923Q219 970 275 970H401Z" />
<glyph unicode="&#xc3;" glyph-name="Atilde" horiz-adv-x="676" d="M388 290Q391 290 393 292T395 298L337 559Q337 560 336 560T335 559L277 298Q276 295 278 293T284 290H388ZM460 676L656 54Q662 34 650 17T616 0H518Q493 0 474 15T449 55L432 132Q430 140
421 140H250Q241 140 240 132L223 55Q218 31 199 16T154 0H60Q39 0 27 17T20 54L216 676Q223 700 243 715T290 730H386Q411 730 431 715T460 676ZM477 970H501Q524 970 540 954T555 914Q541 780 448 780Q391 780 318 825Q285 845 268 845Q257 845 254 837Q226 780
191 780H175Q151 780 135 797T120 837Q127 913 154 946T228 980Q285 980 358 935Q391 915 408 915Q418 915 422 922Q430 936 436 945T454 962T477 970Z" />
<glyph unicode="&#xc4;" glyph-name="Adieresis" horiz-adv-x="676" d="M388 290Q391 290 393 292T395 298L337 559Q337 560 336 560T335 559L277 298Q276 295 278 293T284 290H388ZM460 676L656 54Q662 34 650 17T616 0H518Q493 0 474 15T449 55L432 132Q430
140 422 140H250Q241 140 240 132L223 55Q218 31 199 16T154 0H60Q39 0 27 17T20 54L216 676Q223 700 243 715T290 730H386Q411 730 431 715T460 676ZM425 960H481Q504 960 521 943T538 903V857Q538 834 521 817T481 800H425Q402 800 385 817T368 857V903Q368 926
385 943T425 960ZM195 960H251Q274 960 291 943T308 903V857Q308 834 291 817T251 800H195Q172 800 155 817T138 857V903Q138 926 155 943T195 960Z" />
<glyph unicode="&#xc5;" glyph-name="Aring" horiz-adv-x="676" d="M388 290Q391 290 393 292T395 298L337 559Q337 560 336 560T335 559L277 298Q276 295 278 293T284 290H388ZM460 676L656 54Q662 34 650 17T616 0H518Q493 0 474 15T449 55L432 132Q430 140
422 140H250Q241 140 240 132L223 55Q218 31 199 16T154 0H60Q39 0 27 17T20 54L216 676Q223 700 243 715T290 730H386Q411 730 431 715T460 676ZM309 840T338 840T387 860T408 910T388 959T338 980T289 960T268 910T288 861ZM276 1060T338 1060T444 1016T488 910T444
804T338 760T232 804T188 910T232 1016Z" />
<glyph unicode="&#xc6;" glyph-name="AE" horiz-adv-x="855" d="M362 299V561Q362 565 359 567T352 570Q344 570 342 562L275 298Q274 295 276 293T282 290H353Q362 290 362 299ZM735 730Q758 730 775 713T792 673V627Q792 604 775 587T735 570H561Q552 570 552
561V459Q552 450 561 450H715Q738 450 755 433T772 393V357Q772 334 755 317T715 300H561Q552 300 552 291V168Q552 160 561 160H735Q758 160 775 143T792 103V57Q792 34 775 17T735 0H419Q396 0 379 17T362 57V131Q362 140 353 140H244Q235 140 233 132L214 55Q208
31 188 16T143 0H59Q38 0 26 17T20 54L224 676Q232 700 253 715T299 730H735Z" />
<glyph unicode="&#xc7;" glyph-name="Ccedilla" horiz-adv-x="656" d="M535 165Q555 171 571 159T588 126V72Q588 47 572 27T532 2Q495 -4 458 -7Q455 -7 454 -10T454 -15Q483 -54 483 -95Q483 -155 434 -187T288 -220Q269 -220 233 -216Q209 -213 194 -193T178
-148V-137Q178 -117 194 -106T231 -99Q258 -105 283 -105Q338 -105 338 -55Q338 -28 322 -11Q317 -6 307 -4Q174 18 101 112T28 365Q28 544 120 642T378 740Q454 740 522 728Q547 724 562 704T578 658V602Q578 581 562 569T525 562Q463 580 403 580Q323 580 278
526T233 365Q233 261 282 205T413 148Q476 148 535 165Z" />
<glyph unicode="&#xc8;" glyph-name="Egrave" horiz-adv-x="616" d="M306 970Q332 970 355 957T391 920L435 840Q444 823 435 807T406 790H360Q302 790 265 832L181 928Q170 940 176 955T200 970H306ZM496 730Q519 730 536 713T553 673V627Q553 604 536 587T496
570H282Q273 570 273 562V459Q273 450 282 450H476Q499 450 516 433T533 393V357Q533 334 516 317T476 300H282Q273 300 273 292V169Q273 160 282 160H496Q519 160 536 143T553 103V57Q553 34 536 17T496 0H130Q107 0 90 17T73 57V673Q73 696 90 713T130 730H496Z"
/>
<glyph unicode="&#xc9;" glyph-name="Eacute" horiz-adv-x="616" d="M320 970H426Q443 970 449 955T445 928L361 832Q324 790 266 790H220Q201 790 192 806T191 840L235 920Q262 970 320 970ZM496 730Q519 730 536 713T553 673V627Q553 604 536 587T496 570H282Q273
570 273 562V459Q273 450 282 450H476Q499 450 516 433T533 393V357Q533 334 516 317T476 300H282Q273 300 273 292V169Q273 160 282 160H496Q519 160 536 143T553 103V57Q553 34 536 17T496 0H130Q107 0 90 17T73 57V673Q73 696 90 713T130 730H496Z" />
<glyph unicode="&#xca;" glyph-name="Ecircumflex" horiz-adv-x="616" d="M376 970Q432 970 464 923L522 837Q532 822 523 806T496 790H430Q373 790 347 840L314 904Q314 905 313 905T312 904L279 840Q253 790 196 790H130Q112 790 103 806T104 837L162 923Q194
970 250 970H376ZM496 730Q519 730 536 713T553 673V627Q553 604 536 587T496 570H282Q273 570 273 562V459Q273 450 282 450H476Q499 450 516 433T533 393V357Q533 334 516 317T476 300H282Q273 300 273 292V169Q273 160 282 160H496Q519 160 536 143T553 103V57Q553
34 536 17T496 0H130Q107 0 90 17T73 57V673Q73 696 90 713T130 730H496Z" />
<glyph unicode="&#xcb;" glyph-name="Edieresis" horiz-adv-x="616" d="M400 960H456Q479 960 496 943T513 903V857Q513 834 496 817T456 800H400Q377 800 360 817T343 857V903Q343 926 360 943T400 960ZM170 960H226Q249 960 266 943T283 903V857Q283 834 266
817T226 800H170Q147 800 130 817T113 857V903Q113 926 130 943T170 960ZM496 730Q519 730 536 713T553 673V627Q553 604 536 587T496 570H282Q273 570 273 562V459Q273 450 282 450H476Q499 450 516 433T533 393V357Q533 334 516 317T476 300H282Q273 300 273
292V169Q273 160 282 160H496Q519 160 536 143T553 103V57Q553 34 536 17T496 0H130Q107 0 90 17T73 57V673Q73 696 90 713T130 730H496Z" />
<glyph unicode="&#xcc;" glyph-name="Igrave" horiz-adv-x="355" d="M169 790Q111 790 74 832L-10 928Q-22 940 -15 955T9 970H115Q141 970 164 957T200 920L244 840Q253 823 243 807T215 790H169ZM215 730Q238 730 255 713T272 673V57Q272 34 255 17T215 0H109Q85
0 69 17T52 57V673Q52 696 68 713T109 730H215Z" />
<glyph unicode="&#xcd;" glyph-name="Iacute" horiz-adv-x="355" d="M346 970Q363 970 369 955T365 928L281 832Q244 790 186 790H140Q121 790 112 806T111 840L155 920Q182 970 240 970H346ZM246 730Q269 730 286 713T303 673V57Q303 34 286 17T246 0H140Q117
0 100 17T83 57V673Q83 696 100 713T140 730H246Z" />
<glyph unicode="&#xce;" glyph-name="Icircumflex" horiz-adv-x="334" d="M318 923L376 837Q386 822 377 806T350 790H284Q257 790 235 803T201 840L168 904Q168 905 167 905T166 904L133 840Q121 817 99 804T50 790H-16Q-34 790 -43 806T-42 837L16 923Q48 970
104 970H230Q285 970 318 923ZM220 730Q243 730 260 713T277 673V57Q277 34 260 17T220 0H114Q91 0 74 17T57 57V673Q57 696 74 713T114 730H220Z" />
<glyph unicode="&#xcf;" glyph-name="Idieresis" horiz-adv-x="386" d="M336 960Q359 960 376 943T393 903V857Q393 834 376 817T336 800H280Q257 800 240 817T223 857V903Q223 926 240 943T280 960H336ZM163 857Q163 834 146 817T106 800H50Q27 800 10 817T-7
857V903Q-7 926 10 943T50 960H106Q129 960 146 943T163 903V857ZM246 730Q269 730 286 713T303 673V57Q303 34 286 17T246 0H140Q117 0 100 17T83 57V673Q83 696 100 713T140 730H246Z" />
<glyph unicode="&#xd0;" glyph-name="Eth" horiz-adv-x="751" d="M363 145Q448 145 490 199T533 375Q533 485 491 535T363 585Q344 585 326 582Q318 580 318 572V454Q318 445 327 445H386Q409 445 426 428T443 388V352Q443 329 426 312T386 295H327Q318 295 318
286V158Q318 150 326 148Q344 145 363 145ZM343 740Q523 740 623 644T723 375Q723 188 623 89T343 -10Q264 -10 179 -2Q155 0 139 19T123 62V286Q123 295 114 295H80Q57 295 40 312T23 352V388Q23 411 40 428T80 445H114Q123 445 123 454V668Q123 692 139 711T179
732Q264 740 343 740Z" />
<glyph unicode="&#xd1;" glyph-name="Ntilde" horiz-adv-x="726" d="M596 730Q619 730 636 713T653 673V57Q653 34 636 17T596 0H520Q463 0 438 51L265 399Q265 400 264 400T263 399V57Q263 34 246 17T206 0H130Q107 0 90 17T73 57V673Q73 696 90 713T130 730H206Q263
730 288 679L461 331Q461 330 462 330T463 331V673Q463 696 480 713T520 730H596ZM502 970H526Q550 970 566 954T580 914Q566 780 473 780Q416 780 343 825Q310 845 293 845Q282 845 279 837Q252 780 216 780H200Q176 780 160 797T145 837Q152 913 179 946T253
980Q310 980 383 935Q416 915 433 915Q444 915 447 922Q474 970 502 970Z" />
<glyph unicode="&#xd2;" glyph-name="Ograve" horiz-adv-x="756" d="M233 155T378 155T523 365T378 575T233 365ZM216 740T378 740T634 640T728 365T634 90T378 -10T122 90T28 365T122 640ZM341 970Q367 970 390 957T426 920L470 840Q479 823 470 807T441 790H395Q337
790 300 832L216 928Q205 940 211 955T235 970H341Z" />
<glyph unicode="&#xd3;" glyph-name="Oacute" horiz-adv-x="756" d="M233 155T378 155T523 365T378 575T233 365ZM216 740T378 740T634 640T728 365T634 90T378 -10T122 90T28 365T122 640ZM415 970H521Q538 970 544 955T540 928L456 832Q419 790 361 790H315Q296
790 287 806T286 840L330 920Q357 970 415 970Z" />
<glyph unicode="&#xd4;" glyph-name="Ocircumflex" horiz-adv-x="756" d="M233 155T378 155T523 365T378 575T233 365ZM216 740T378 740T634 640T728 365T634 90T378 -10T122 90T28 365T122 640ZM441 970Q497 970 529 923L587 837Q597 822 588 806T561 790H495Q438
790 412 840L379 904Q379 905 378 905T377 904L344 840Q318 790 261 790H195Q177 790 168 806T169 837L227 923Q259 970 315 970H441Z" />
<glyph unicode="&#xd5;" glyph-name="Otilde" horiz-adv-x="756" d="M233 155T378 155T523 365T378 575T233 365ZM216 740T378 740T634 640T728 365T634 90T378 -10T122 90T28 365T122 640ZM517 970H541Q565 970 581 954T595 914Q581 780 488 780Q431 780 358
825Q325 845 308 845Q297 845 294 837Q267 780 231 780H215Q191 780 175 797T160 837Q167 913 194 946T268 980Q325 980 398 935Q431 915 448 915Q458 915 462 922Q489 970 517 970Z" />
<glyph unicode="&#xd6;" glyph-name="Odieresis" horiz-adv-x="756" d="M233 155T378 155T523 365T378 575T233 365ZM216 740T378 740T634 640T728 365T634 90T378 -10T122 90T28 365T122 640ZM465 960H521Q544 960 561 943T578 903V857Q578 834 561 817T521 800H465Q442
800 425 817T408 857V903Q408 926 425 943T465 960ZM235 960H291Q314 960 331 943T348 903V857Q348 834 331 817T291 800H235Q212 800 195 817T178 857V903Q178 926 195 943T235 960Z" />
<glyph unicode="&#xd7;" glyph-name="multiply" horiz-adv-x="605" d="M556 157Q572 140 572 117T556 77L516 37Q499 20 476 20T436 37L308 164Q302 170 296 164L170 37Q153 20 130 20T90 37L50 77Q33 94 33 117T50 157L176 284Q182 290 176 296L50 423Q33 440
33 463T50 503L90 543Q106 560 129 560T170 543L296 416Q302 410 308 416L436 543Q452 560 475 560T516 543L556 503Q572 486 572 463T556 423L428 296Q422 290 428 284L556 157Z" />
<glyph unicode="&#xd8;" glyph-name="Oslash" horiz-adv-x="766" d="M383 155Q528 155 528 365Q528 384 526 414Q526 416 524 417T520 416L350 166Q346 159 355 157Q373 155 383 155ZM246 314L416 564Q420 571 411 573Q393 575 383 575Q238 575 238 365Q238 346
240 316Q240 314 242 313T246 314ZM663 625Q657 618 663 610Q733 514 733 365Q733 190 639 90T383 -10Q314 -10 254 10Q247 13 241 5L230 -11Q216 -31 194 -35T151 -26L105 6Q85 20 81 42T90 85L103 105Q108 112 103 119Q33 215 33 365Q33 540 127 640T383 740Q452
740 512 720Q519 717 525 725L536 741Q550 761 572 765T615 756L661 724Q681 710 685 688T676 645L663 625Z" />
<glyph unicode="&#xd9;" glyph-name="Ugrave" horiz-adv-x="706" d="M586 730Q609 730 626 713T643 673V270Q643 130 569 60T353 -10T137 60T63 270V673Q63 696 80 713T120 730H208Q231 730 248 713T265 673V255Q265 197 286 174T355 150T424 173T445 255V673Q445
696 462 713T502 730H586ZM346 970Q372 970 395 957T431 920L475 840Q484 823 475 807T446 790H400Q342 790 305 832L221 928Q210 940 216 955T240 970H346Z" />
<glyph unicode="&#xda;" glyph-name="Uacute" horiz-adv-x="706" d="M586 730Q609 730 626 713T643 673V270Q643 130 569 60T353 -10T137 60T63 270V673Q63 696 80 713T120 730H208Q231 730 248 713T265 673V255Q265 197 286 174T355 150T424 173T445 255V673Q445
696 462 713T502 730H586ZM360 970H466Q483 970 489 955T485 928L401 832Q364 790 306 790H260Q241 790 232 806T231 840L275 920Q302 970 360 970Z" />
<glyph unicode="&#xdb;" glyph-name="Ucircumflex" horiz-adv-x="706" d="M586 730Q609 730 626 713T643 673V270Q643 130 569 60T353 -10T137 60T63 270V673Q63 696 80 713T120 730H208Q231 730 248 713T265 673V255Q265 197 286 174T355 150T424 173T445 255V673Q445
696 462 713T502 730H586ZM416 970Q472 970 504 923L562 837Q572 822 563 806T536 790H470Q413 790 387 840L354 904Q354 905 353 905T352 904L319 840Q293 790 236 790H170Q152 790 143 806T144 837L202 923Q234 970 290 970H416Z" />
<glyph unicode="&#xdc;" glyph-name="Udieresis" horiz-adv-x="706" d="M586 730Q609 730 626 713T643 673V270Q643 130 569 60T353 -10T137 60T63 270V673Q63 696 80 713T120 730H208Q231 730 248 713T265 673V255Q265 197 286 174T355 150T424 173T445 255V673Q445
696 462 713T502 730H586ZM440 960H496Q519 960 536 943T553 903V857Q553 834 536 817T496 800H440Q417 800 400 817T383 857V903Q383 926 400 943T440 960ZM210 960H266Q289 960 306 943T323 903V857Q323 834 306 817T266 800H210Q187 800 170 817T153 857V903Q153
926 170 943T210 960Z" />
<glyph unicode="&#xdd;" glyph-name="Yacute" horiz-adv-x="662" d="M609 730Q628 730 638 713T640 679L437 278Q434 273 434 261V57Q434 34 417 17T377 0H285Q262 0 246 17T229 57V261Q229 271 225 278L22 679Q13 696 23 713T53 730H166Q191 730 212 716T242
677L332 431Q332 430 333 430T334 431L424 677Q433 701 453 715T500 730H609ZM338 970H444Q460 970 467 955T463 928L379 832Q342 790 284 790H238Q219 790 210 806T209 840L253 920Q266 943 289 956T338 970Z" />
<glyph unicode="&#xde;" glyph-name="Thorn" horiz-adv-x="666" d="M313 270Q378 270 413 300T448 385Q448 490 313 490Q294 490 276 487Q268 485 268 476V282Q268 274 276 272Q300 270 313 270ZM293 640Q633 640 633 395Q633 262 557 194T333 125Q311 125 277
127Q268 127 268 119V57Q268 34 251 17T211 0H130Q107 0 90 17T73 57V673Q73 696 90 713T130 730H211Q234 730 251 713T268 673V648Q268 640 277 640H293Z" />
<glyph unicode="&#xdf;" glyph-name="germandbls" horiz-adv-x="636" d="M488 387T488 375T507 336T548 279T589 213T608 145Q608 67 560 29T408 -10Q376 -10 359 -8Q335 -6 319 13T303 57V93Q303 115 320 129T359 141Q366 140 378 140Q415 140 415 180Q415 206
362 274T308 375Q308 406 358 479T408 570Q408 610 338 610Q294 610 279 593T263 525V57Q263 34 246 17T206 0H125Q102 0 85 17T68 57V520Q68 642 130 701T328 760Q451 760 519 713T588 590Q588 555 563 509T513 425Z" />
<glyph unicode="&#xe0;" glyph-name="agrave" horiz-adv-x="596" d="M348 210V216Q348 225 339 225H308Q208 225 208 165Q208 120 258 120Q297 120 322 144T348 210ZM288 530Q420 530 479 482T538 330V57Q538 34 521 17T481 0H418Q394 0 377 16T359 57V65Q359
66 358 66T356 65Q292 -10 198 -10Q128 -10 83 34T38 150Q38 330 308 330H339Q348 330 348 339V340Q348 400 278 400Q218 400 123 382Q102 378 85 391T68 427V443Q68 468 83 488T123 512Q222 530 288 530ZM266 770Q292 770 315 757T351 720L395 640Q404 623 395
607T366 590H320Q262 590 225 632L141 728Q130 740 136 755T160 770H266Z" />
<glyph unicode="&#xe1;" glyph-name="aacute" horiz-adv-x="596" d="M348 210V216Q348 225 339 225H308Q208 225 208 165Q208 120 258 120Q297 120 322 144T348 210ZM288 530Q420 530 479 482T538 330V57Q538 34 521 17T481 0H418Q394 0 377 16T359 57V65Q359
66 358 66T356 65Q292 -10 198 -10Q128 -10 83 34T38 150Q38 330 308 330H339Q348 330 348 339V340Q348 400 278 400Q218 400 123 382Q102 378 85 391T68 427V443Q68 468 83 488T123 512Q222 530 288 530ZM340 770H446Q463 770 469 755T465 728L381 632Q344 590
286 590H240Q221 590 212 606T211 640L255 720Q282 770 340 770Z" />
<glyph unicode="&#xe2;" glyph-name="acircumflex" horiz-adv-x="596" d="M348 210V216Q348 225 339 225H308Q208 225 208 165Q208 120 258 120Q297 120 322 144T348 210ZM288 530Q420 530 479 482T538 330V57Q538 34 521 17T481 0H418Q394 0 377 16T359 57V65Q359
66 358 66T356 65Q292 -10 198 -10Q128 -10 83 34T38 150Q38 330 308 330H339Q348 330 348 339V340Q348 400 278 400Q218 400 123 382Q102 378 85 391T68 427V443Q68 468 83 488T123 512Q222 530 288 530ZM454 723L512 637Q522 622 513 606T486 590H420Q363 590
337 640L304 704Q304 705 303 705T302 704L269 640Q243 590 186 590H120Q102 590 93 606T94 637L152 723Q184 770 240 770H366Q422 770 454 723Z" />
<glyph unicode="&#xe3;" glyph-name="atilde" horiz-adv-x="596" d="M348 210V216Q348 225 339 225H308Q208 225 208 165Q208 120 258 120Q297 120 322 144T348 210ZM288 530Q420 530 479 482T538 330V57Q538 34 521 17T481 0H418Q394 0 377 16T359 57V65Q359
66 358 66T356 65Q292 -10 198 -10Q128 -10 83 34T38 150Q38 330 308 330H339Q348 330 348 339V340Q348 400 278 400Q218 400 123 382Q102 378 85 391T68 427V443Q68 468 83 488T123 512Q222 530 288 530ZM466 760Q490 760 506 744T520 704Q506 570 413 570Q356
570 283 615Q250 635 233 635Q222 635 219 627Q192 570 156 570H140Q116 570 100 587T85 627Q92 703 119 736T193 770Q250 770 323 725Q356 705 373 705Q384 705 387 712Q414 760 442 760H466Z" />
<glyph unicode="&#xe4;" glyph-name="adieresis" horiz-adv-x="596" d="M348 210V216Q348 225 339 225H308Q208 225 208 165Q208 120 258 120Q297 120 322 144T348 210ZM288 530Q420 530 479 482T538 330V57Q538 34 521 17T481 0H418Q394 0 377 16T359 57V65Q359
66 358 66T356 65Q292 -10 198 -10Q128 -10 83 34T38 150Q38 330 308 330H339Q348 330 348 339V340Q348 400 278 400Q218 400 123 382Q102 378 85 391T68 427V443Q68 468 83 488T123 512Q222 530 288 530ZM390 760H446Q469 760 486 743T503 703V657Q503 634 486
617T446 600H390Q367 600 350 617T333 657V703Q333 726 350 743T390 760ZM160 760H216Q239 760 256 743T273 703V657Q273 634 256 617T216 600H160Q137 600 120 617T103 657V703Q103 726 120 743T160 760Z" />
<glyph unicode="&#xe5;" glyph-name="aring" horiz-adv-x="596" d="M348 210V216Q348 225 339 225H308Q208 225 208 165Q208 120 258 120Q297 120 322 144T348 210ZM288 530Q420 530 479 482T538 330V57Q538 34 521 17T481 0H418Q394 0 377 16T359 57V65Q359 66
358 66T356 65Q292 -10 198 -10Q128 -10 83 34T38 150Q38 330 308 330H339Q348 330 348 339V340Q348 400 278 400Q218 400 123 382Q102 378 85 391T68 427V443Q68 468 83 488T123 512Q222 530 288 530ZM274 630T303 630T352 650T373 700T353 749T303 770T254 750T233
700T253 651ZM241 850T303 850T409 806T453 700T409 594T303 550T197 594T153 700T197 806Z" />
<glyph unicode="&#xe6;" glyph-name="ae" horiz-adv-x="901" d="M684 310Q693 310 693 319Q692 365 674 385T618 405Q579 405 560 386T535 318Q535 310 543 310H684ZM348 210V216Q348 225 339 225H308Q208 225 208 165Q208 120 258 120Q297 120 322 144T348 210ZM613
530Q867 530 868 262Q868 238 850 222T807 205H545Q536 205 538 196Q547 154 577 137T673 120Q714 120 773 132Q794 137 811 124T828 88V72Q828 47 813 27T773 2Q712 -10 643 -10Q509 -10 433 52Q426 57 420 53Q342 -10 228 -10Q139 -10 89 33T38 150Q38 330 308
330H339Q348 330 348 339V340Q348 400 278 400Q218 400 123 382Q102 378 85 391T68 427V443Q68 468 83 488T123 512Q222 530 288 530Q395 530 452 498Q460 494 467 498Q526 530 613 530Z" />
<glyph unicode="&#xe7;" glyph-name="ccedilla" horiz-adv-x="536" d="M422 137Q444 141 461 128T478 93V67Q478 42 463 23T422 0Q399 -4 385 -5Q383 -5 382 -7T381 -12Q413 -54 413 -95Q413 -155 364 -187T218 -220Q199 -220 163 -216Q139 -213 124 -193T108
-148V-137Q108 -117 124 -106T161 -99Q188 -105 213 -105Q268 -105 268 -55Q268 -31 253 -13Q246 -6 239 -5Q136 10 82 77T28 260Q28 391 96 460T293 530Q342 530 412 520Q437 516 452 497T468 453V427Q468 405 451 392T412 383Q371 390 328 390Q277 390 253 359T228
260Q228 191 254 161T338 130Q381 130 422 137Z" />
<glyph unicode="&#xe8;" glyph-name="egrave" horiz-adv-x="581" d="M364 310Q373 310 373 319Q372 365 354 385T298 405Q259 405 240 386T215 318Q215 310 223 310H364ZM293 530Q547 530 548 262Q548 238 530 222T487 205H225Q216 205 218 196Q227 154 257 137T353
120Q394 120 453 132Q474 137 491 124T508 88V72Q508 47 493 27T453 2Q392 -10 323 -10Q181 -10 105 59T28 260Q28 390 96 460T293 530ZM286 770Q312 770 335 757T371 720L415 640Q424 623 415 607T386 590H340Q282 590 245 632L161 728Q150 740 156 755T180 770H286Z"
/>
<glyph unicode="&#xe9;" glyph-name="eacute" horiz-adv-x="581" d="M364 310Q373 310 373 319Q372 365 354 385T298 405Q259 405 240 386T215 318Q215 310 223 310H364ZM293 530Q547 530 548 262Q548 238 530 222T487 205H225Q216 205 218 196Q227 154 257 137T353
120Q394 120 453 132Q474 137 491 124T508 88V72Q508 47 493 27T453 2Q392 -10 323 -10Q181 -10 105 59T28 260Q28 390 96 460T293 530ZM300 770H406Q423 770 429 755T425 728L341 632Q304 590 246 590H200Q181 590 172 606T171 640L215 720Q242 770 300 770Z"
/>
<glyph unicode="&#xea;" glyph-name="ecircumflex" horiz-adv-x="581" d="M364 310Q373 310 373 319Q372 365 354 385T298 405Q259 405 240 386T215 318Q215 310 223 310H364ZM293 530Q547 530 548 262Q548 238 530 222T487 205H225Q216 205 218 196Q227 154 257
137T353 120Q394 120 453 132Q474 137 491 124T508 88V72Q508 47 493 27T453 2Q392 -10 323 -10Q181 -10 105 59T28 260Q28 390 96 460T293 530ZM356 770Q412 770 444 723L502 637Q512 622 503 606T476 590H410Q353 590 327 640L294 704Q294 705 293 705T292 704L259
640Q233 590 176 590H110Q92 590 83 606T84 637L142 723Q174 770 230 770H356Z" />
<glyph unicode="&#xeb;" glyph-name="edieresis" horiz-adv-x="581" d="M364 310Q373 310 373 319Q372 365 354 385T298 405Q259 405 240 386T215 318Q215 310 223 310H364ZM293 530Q547 530 548 262Q548 238 530 222T487 205H225Q216 205 218 196Q227 154 257
137T353 120Q394 120 453 132Q474 137 491 124T508 88V72Q508 47 493 27T453 2Q392 -10 323 -10Q181 -10 105 59T28 260Q28 390 96 460T293 530ZM380 760H436Q459 760 476 743T493 703V657Q493 634 476 617T436 600H380Q357 600 340 617T323 657V703Q323 726 340
743T380 760ZM150 760H206Q229 760 246 743T263 703V657Q263 634 246 617T206 600H150Q127 600 110 617T93 657V703Q93 726 110 743T150 760Z" />
<glyph unicode="&#xec;" glyph-name="igrave" horiz-adv-x="330" d="M144 590Q86 590 49 632L-35 728Q-47 740 -40 755T-16 770H90Q116 770 139 757T175 720L219 640Q228 623 218 607T190 590H144ZM190 520Q213 520 230 503T247 463V57Q247 34 230 17T190 0H104Q80
0 64 17T47 57V463Q47 486 63 503T104 520H190Z" />
<glyph unicode="&#xed;" glyph-name="iacute" horiz-adv-x="330" d="M346 770Q363 770 369 755T365 728L281 632Q244 590 186 590H140Q121 590 112 606T111 640L155 720Q182 770 240 770H346ZM226 520Q249 520 266 503T283 463V57Q283 34 266 17T226 0H140Q117
0 100 17T83 57V463Q83 486 100 503T140 520H226Z" />
<glyph unicode="&#xee;" glyph-name="icircumflex" horiz-adv-x="314" d="M308 723L366 637Q376 622 367 606T340 590H274Q247 590 225 603T191 640L158 704Q158 705 157 705T156 704L123 640Q111 617 89 604T40 590H-26Q-44 590 -53 606T-52 637L6 723Q38 770
94 770H220Q275 770 308 723ZM200 520Q223 520 240 503T257 463V57Q257 34 240 17T200 0H114Q91 0 74 17T57 57V463Q57 486 74 503T114 520H200Z" />
<glyph unicode="&#xef;" glyph-name="idieresis" horiz-adv-x="366" d="M326 760Q349 760 366 743T383 703V657Q383 634 366 617T326 600H270Q247 600 230 617T213 657V703Q213 726 230 743T270 760H326ZM153 657Q153 634 136 617T96 600H40Q17 600 0 617T-17
657V703Q-17 726 0 743T40 760H96Q119 760 136 743T153 703V657ZM226 520Q249 520 266 503T283 463V57Q283 34 266 17T226 0H140Q117 0 100 17T83 57V463Q83 486 100 503T140 520H226Z" />
<glyph unicode="&#xf0;" glyph-name="eth" horiz-adv-x="606" d="M261 126T303 126T366 157T387 260T366 362T303 394T240 363T219 260T240 158ZM458 616Q455 615 454 612T455 607Q573 483 573 260Q573 135 502 63T303 -10T105 62T33 260Q33 372 105 441T303 510Q323
510 336 506H339V508Q326 529 306 548Q299 553 293 551L158 497Q138 489 119 497T93 525Q85 545 93 564T121 590L167 608Q170 610 168 613L144 616Q121 619 105 636T88 677V683Q88 706 105 722T145 738Q264 729 348 686Q355 683 362 686L468 728Q488 736 507 728T533
700Q541 680 533 661T505 635L458 616Z" />
<glyph unicode="&#xf1;" glyph-name="ntilde" horiz-adv-x="631" d="M312 530T403 530T533 478T573 300V57Q573 34 556 17T516 0H445Q422 0 405 17T388 57V300Q388 346 375 363T328 380Q300 380 277 358T253 310V57Q253 34 236 17T196 0H120Q97 0 80 17T63 57V463Q63
486 80 503T120 520H188Q212 520 229 504T247 463V455Q247 454 248 454Q250 454 250 455Q312 530 403 530ZM452 760H476Q500 760 516 744T530 704Q516 570 423 570Q366 570 293 615Q260 635 243 635Q232 635 229 627Q202 570 166 570H150Q126 570 110 587T95 627Q102
703 129 736T203 770Q260 770 333 725Q366 705 383 705Q394 705 397 712Q424 760 452 760Z" />
<glyph unicode="&#xf2;" glyph-name="ograve" horiz-adv-x="596" d="M256 120T298 120T359 151T378 260T359 368T298 400T237 369T218 260T237 152ZM170 530T298 530T497 459T568 260T497 62T298 -10T99 61T28 260T99 458ZM261 770Q287 770 310 757T346 720L390
640Q399 623 390 607T361 590H315Q257 590 220 632L136 728Q125 740 131 755T155 770H261Z" />
<glyph unicode="&#xf3;" glyph-name="oacute" horiz-adv-x="596" d="M256 120T298 120T359 151T378 260T359 368T298 400T237 369T218 260T237 152ZM170 530T298 530T497 459T568 260T497 62T298 -10T99 61T28 260T99 458ZM335 770H441Q458 770 464 755T460 728L376
632Q339 590 281 590H235Q216 590 207 606T206 640L250 720Q277 770 335 770Z" />
<glyph unicode="&#xf4;" glyph-name="ocircumflex" horiz-adv-x="596" d="M256 120T298 120T359 151T378 260T359 368T298 400T237 369T218 260T237 152ZM170 530T298 530T497 459T568 260T497 62T298 -10T99 61T28 260T99 458ZM361 770Q417 770 449 723L507 637Q517
622 508 606T481 590H415Q358 590 332 640L299 704Q299 705 298 705T297 704L264 640Q238 590 181 590H115Q97 590 88 606T89 637L147 723Q179 770 235 770H361Z" />
<glyph unicode="&#xf5;" glyph-name="otilde" horiz-adv-x="596" d="M256 120T298 120T359 151T378 260T359 368T298 400T237 369T218 260T237 152ZM170 530T298 530T497 459T568 260T497 62T298 -10T99 61T28 260T99 458ZM437 760H461Q485 760 501 744T515 704Q501
570 408 570Q351 570 278 615Q245 635 228 635Q217 635 214 627Q187 570 151 570H135Q111 570 95 587T80 627Q87 703 114 736T188 770Q245 770 318 725Q351 705 368 705Q378 705 382 712Q409 760 437 760Z" />
<glyph unicode="&#xf6;" glyph-name="odieresis" horiz-adv-x="596" d="M256 120T298 120T359 151T378 260T359 368T298 400T237 369T218 260T237 152ZM170 530T298 530T497 459T568 260T497 62T298 -10T99 61T28 260T99 458ZM441 760Q464 760 481 743T498 703V657Q498
634 481 617T441 600H385Q362 600 345 617T328 657V703Q328 726 345 743T385 760H441ZM155 760H211Q234 760 251 743T268 703V657Q268 634 251 617T211 600H155Q132 600 115 617T98 657V703Q98 726 115 743T155 760Z" />
<glyph unicode="&#xf7;" glyph-name="divide" horiz-adv-x="736" d="M411 170Q434 170 451 153T468 113V57Q468 34 451 17T411 0H325Q302 0 285 17T268 57V113Q268 136 285 153T325 170H411ZM268 467V523Q268 546 285 563T325 580H411Q434 580 451 563T468 523V467Q468
444 451 427T411 410H325Q302 410 285 427T268 467ZM611 365Q634 365 651 348T668 308V272Q668 249 651 232T611 215H125Q102 215 85 232T68 272V308Q68 331 85 348T125 365H611Z" />
<glyph unicode="&#xf8;" glyph-name="oslash" horiz-adv-x="606" d="M303 120Q345 120 364 151T383 260V276Q383 278 381 279T377 278L273 134Q267 126 276 124Q287 120 303 120ZM223 244Q223 242 225 241T229 242L333 386Q339 394 330 396Q319 400 303 400Q261
400 242 369T223 260V244ZM510 461Q504 456 511 449Q573 379 573 260Q573 133 502 62T303 -10Q241 -10 192 7Q184 10 180 4L178 1Q166 -16 145 -18T107 -9T87 22T96 59Q102 64 95 71Q33 141 33 260Q33 387 104 458T303 530Q365 530 414 513Q422 510 426 516L428
519Q440 536 461 538T499 529T519 498T510 461Z" />
<glyph unicode="&#xf9;" glyph-name="ugrave" horiz-adv-x="626" d="M506 520Q529 520 546 503T563 463V57Q563 34 546 17T506 0H438Q414 0 397 16T379 57V65Q379 66 378 66Q376 66 376 65Q314 -10 223 -10Q135 -10 97 39T58 210V463Q58 486 75 503T115 520H186Q209
520 226 503T243 463V220Q243 174 255 157T298 140Q326 140 349 162T373 210V463Q373 486 390 503T430 520H506ZM306 770Q332 770 355 757T391 720L435 640Q444 623 435 607T406 590H360Q302 590 265 632L181 728Q170 740 176 755T200 770H306Z" />
<glyph unicode="&#xfa;" glyph-name="uacute" horiz-adv-x="626" d="M506 520Q529 520 546 503T563 463V57Q563 34 546 17T506 0H438Q414 0 397 16T379 57V65Q379 66 378 66Q376 66 376 65Q314 -10 223 -10Q135 -10 97 39T58 210V463Q58 486 75 503T115 520H186Q209
520 226 503T243 463V220Q243 174 255 157T298 140Q326 140 349 162T373 210V463Q373 486 390 503T430 520H506ZM320 770H426Q443 770 449 755T445 728L361 632Q324 590 266 590H220Q201 590 192 606T191 640L235 720Q262 770 320 770Z" />
<glyph unicode="&#xfb;" glyph-name="ucircumflex" horiz-adv-x="626" d="M506 520Q529 520 546 503T563 463V57Q563 34 546 17T506 0H438Q414 0 397 16T379 57V65Q379 66 378 66Q376 66 376 65Q314 -10 223 -10Q135 -10 97 39T58 210V463Q58 486 75 503T115 520H186Q209
520 226 503T243 463V220Q243 174 255 157T298 140Q326 140 349 162T373 210V463Q373 486 390 503T430 520H506ZM376 770Q432 770 464 723L522 637Q532 622 523 606T496 590H430Q373 590 347 640L314 704Q314 705 313 705T312 704L279 640Q253 590 196 590H130Q112
590 103 606T104 637L162 723Q194 770 250 770H376Z" />
<glyph unicode="&#xfc;" glyph-name="udieresis" horiz-adv-x="626" d="M506 520Q529 520 546 503T563 463V57Q563 34 546 17T506 0H438Q414 0 397 16T379 57V65Q379 66 378 66Q376 66 376 65Q314 -10 223 -10Q135 -10 97 39T58 210V463Q58 486 75 503T115 520H186Q209
520 226 503T243 463V220Q243 174 255 157T298 140Q326 140 349 162T373 210V463Q373 486 390 503T430 520H506ZM400 760H456Q479 760 496 743T513 703V657Q513 634 496 617T456 600H400Q377 600 360 617T343 657V703Q343 726 360 743T400 760ZM170 760H226Q249
760 266 743T283 703V657Q283 634 266 617T226 600H170Q147 600 130 617T113 657V703Q113 726 130 743T170 760Z" />
<glyph unicode="&#xfd;" glyph-name="yacute" horiz-adv-x="582" d="M519 520Q540 520 551 504T557 467L330 -167Q321 -191 300 -205T254 -220H168Q147 -220 136 -204T132 -168L198 -8Q199 -4 199 0T198 8L26 467Q18 486 30 503T63 520H159Q183 520 202 504T227
464L285 171Q285 170 286 170T287 171L362 465Q368 489 388 504T433 520H519ZM298 770H404Q420 770 427 755T423 728L339 632Q301 590 244 590H198Q179 590 170 606T169 640L213 720Q225 743 248 756T298 770Z" />
<glyph unicode="&#xfe;" glyph-name="thorn" horiz-adv-x="636" d="M333 130Q372 130 395 162T418 260Q418 390 333 390Q299 390 274 367T248 315V205Q248 176 273 153T333 130ZM403 530Q495 530 549 461T603 260Q603 132 547 61T403 -10Q310 -10 243 49Q242 50
241 50T240 49V-163Q240 -186 223 -203T183 -220H120Q97 -220 80 -203T63 -163V693Q63 716 80 733T120 750H196Q219 750 236 733T253 693V471Q253 470 254 470T256 471Q323 530 403 530Z" />
<glyph unicode="&#xff;" glyph-name="ydieresis" horiz-adv-x="582" d="M519 520Q540 520 551 504T557 467L330 -167Q321 -191 300 -205T254 -220H168Q147 -220 136 -204T132 -168L198 -8Q199 -4 199 0T198 8L26 467Q18 486 30 503T63 520H159Q183 520 202 504T227
464L285 171Q285 170 286 170T287 171L362 465Q368 489 388 504T433 520H519ZM378 760H434Q457 760 474 743T491 703V657Q491 634 474 617T434 600H378Q354 600 338 617T321 657V703Q321 726 337 743T378 760ZM148 760H204Q227 760 244 743T261 703V657Q261 634
244 617T204 600H148Q124 600 108 617T91 657V703Q91 726 107 743T148 760Z" />
<glyph unicode="&#x2013;" glyph-name="endash" horiz-adv-x="472" d="M417 350Q440 350 457 333T474 293V287Q474 264 457 247T417 230H55Q32 230 15 247T-2 287V293Q-2 316 15 333T55 350H417Z" />
<glyph unicode="&#x2014;" glyph-name="emdash" horiz-adv-x="946" d="M891 350Q914 350 931 333T948 293V287Q948 264 931 247T891 230H55Q32 230 15 247T-2 287V293Q-2 316 15 333T55 350H891Z" />
<glyph unicode="&#x2018;" glyph-name="quoteleft" horiz-adv-x="344" d="M239 770Q260 770 274 753T286 714L246 506Q241 482 222 466T179 450H73Q52 450 40 467T36 503L116 717Q125 741 146 755T193 770H239Z" />
<glyph unicode="&#x2019;" glyph-name="quoteright" horiz-adv-x="344" d="M272 770Q292 770 304 753T309 717L229 503Q220 479 199 465T152 450H106Q84 450 70 467T59 506L99 714Q103 738 122 754T166 770H272Z" />
<glyph unicode="&#x201a;" glyph-name="quotesinglbase" horiz-adv-x="359" d="M262 210Q282 210 294 193T299 157L219 -57Q210 -81 189 -95T142 -110H96Q74 -110 60 -93T49 -54L89 154Q93 178 112 194T156 210H262Z" />
<glyph unicode="&#x201c;" glyph-name="quotedblleft" horiz-adv-x="564" d="M464 770Q485 770 499 753T511 714L471 506Q466 482 447 466T404 450H318Q297 450 285 467T281 503L361 717Q370 741 391 755T438 770H464ZM214 770Q235 770 249 753T261 714L221 506Q216
482 197 466T154 450H68Q47 450 35 467T31 503L111 717Q120 741 141 755T188 770H214Z" />
<glyph unicode="&#x201d;" glyph-name="quotedblright" horiz-adv-x="564" d="M497 770Q517 770 529 753T534 717L454 503Q445 479 424 465T377 450H351Q329 450 315 467T304 506L344 714Q348 738 367 754T411 770H497ZM247 770Q267 770 279 753T284 717L204 503Q195
479 174 465T127 450H101Q79 450 65 467T54 506L94 714Q98 738 117 754T161 770H247Z" />
<glyph unicode="&#x201e;" glyph-name="quotedblbase" horiz-adv-x="579" d="M487 210Q507 210 519 193T524 157L444 -57Q435 -81 414 -95T367 -110H341Q319 -110 305 -93T294 -54L334 154Q338 178 357 194T401 210H487ZM237 210Q257 210 269 193T274 157L194
-57Q185 -81 164 -95T117 -110H91Q69 -110 55 -93T44 -54L84 154Q88 178 107 194T151 210H237Z" />
<glyph unicode="&#x2022;" glyph-name="bullet" horiz-adv-x="546" d="M113 365Q113 431 160 478T273 525T386 478T433 365T386 252T273 205T160 252T113 365V365Z" />
<glyph unicode="&#x2039;" glyph-name="guilsinglleft" horiz-adv-x="423" d="M344 483L216 297Q211 290 216 283L344 97Q355 82 346 66T319 50H253Q198 50 165 97L67 243Q53 264 53 290T67 337L165 483Q198 530 253 530H319Q337 530 346 514T344 483Z" />
<glyph unicode="&#x203a;" glyph-name="guilsinglright" horiz-adv-x="423" d="M257 483L355 337Q370 316 370 290T355 243L257 97Q225 50 169 50H103Q85 50 77 66T78 97L206 283Q212 290 206 297L78 483Q68 498 76 514T103 530H169Q225 530 257 483Z" />
</font>
</defs>
</svg>
