<?xml version="1.0" encoding="utf-8"?>
<!-- Generator: Adobe Illustrator 23.0.1, SVG Export Plug-In . SVG Version: 6.00 Build 0)  -->
<svg version="1.1" xmlns="http://www.w3.org/2000/svg" xmlns:xlink="http://www.w3.org/1999/xlink" x="0px"
	 y="0px" viewBox="0 0 36 36" width="36px" height="36px" style="enable-background:new 0 0 36 36;" xml:space="preserve">
<path fill="#FFFFFF" d="M25,21.8c2.2,0,4,1.8,4,4s-1.8,4-4,4H11c-2.2,0-4-1.8-4-4s1.8-4,4-4H25z"/>
<path fill="#1C6399" d="M25,20.8H11c-2.8,0-5,2.2-5,5s2.2,5,5,5h14c2.8,0,5-2.2,5-5S27.7,20.8,25,20.8z M25,22.8c1.5,0,2.7,1.1,2.9,2.5
	h-3.4v-2.5H25z M23.5,22.8v2.5h-3v-2.5H23.5z M19.5,22.8v2.5h-3v-2.5H19.5z M15.5,22.8v2.5h-3v-2.5H15.5z M11,22.8h0.5v2.5H8
	C8.3,23.9,9.5,22.8,11,22.8z M11,28.8c-1.5,0-2.7-1.1-2.9-2.5h3.4v2.5H11z M12.5,28.8v-2.5h3v2.5H12.5z M16.5,28.8v-2.5h3v2.5H16.5z
	 M20.5,28.8v-2.5h3v2.5H20.5z M25,28.8h-0.5v-2.5h3.4C27.7,27.7,26.5,28.8,25,28.8z"/>
</svg>
