<?xml version="1.0" encoding="utf-8"?>
<!-- Generator: Adobe Illustrator 23.0.1, SVG Export Plug-In . SVG Version: 6.00 Build 0)  -->
<svg version="1.1" xmlns="http://www.w3.org/2000/svg" xmlns:xlink="http://www.w3.org/1999/xlink" x="0px"
	 y="0px" viewBox="0 0 36 36" width="36px" height="36px" style="enable-background:new 0 0 36 36;" xml:space="preserve">
<path fill="#FFCC4D" d="M4.9,5.6C4.9,4.2,11,7,10,8s-2,1.6-3,2.6S4.9,6.6,4.9,5.6z M31.1,5.6C31.1,4.2,25,7,26,8s2,1.6,3,2.6
	S31.1,6.6,31.1,5.6z"/>
<path fill="#DD2E44" d="M16.2,5.1c-0.9-2.4-3.5-3.7-6-2.8C8.8,2.8,7.7,4,7.3,5.4C6.2,4.5,4.6,4.3,3.1,4.8c-2.4,0.9-3.7,3.5-2.8,6
	c0.1,0.3,0.3,0.7,0.5,1c2,3.6,7.6,6.1,11,6.1c2.6-2.2,5.4-7.7,4.7-11.7C16.4,5.8,16.3,5.5,16.2,5.1z M19.8,5.1
	c0.9-2.4,3.5-3.7,6-2.8c1.5,0.5,2.5,1.7,2.9,3.1c1.2-0.8,2.8-1.1,4.2-0.6c2.4,0.9,3.7,3.5,2.8,6c-0.1,0.3-0.3,0.7-0.5,1
	c-2,3.6-7.6,6.1-11,6.1c-2.6-2.2-5.4-7.7-4.7-11.7C19.6,5.8,19.7,5.5,19.8,5.1z"/>
</svg>
