<?xml version="1.0" encoding="utf-8"?>
<!-- Generator: Adobe Illustrator 23.0.1, SVG Export Plug-In . SVG Version: 6.00 Build 0)  -->
<svg version="1.1" xmlns="http://www.w3.org/2000/svg" xmlns:xlink="http://www.w3.org/1999/xlink" x="0px"
	 y="0px" viewBox="0 0 36 36" width="36px" height="36px" style="enable-background:new 0 0 36 36;" xml:space="preserve">
<path fill="#664500" d="M6,13c-0.6,0-1-0.4-1-1c0-0.6,0.4-1,1-1c0.2,0,3.6-0.1,6.2-3.6c0.3-0.4,1-0.5,1.4-0.2c0.4,0.3,0.5,1,0.2,1.4
	C10.5,12.9,6.2,13,6,13z M30,13c-0.2,0-4.5-0.1-7.8-4.4c-0.3-0.4-0.2-1.1,0.2-1.4c0.4-0.3,1.1-0.2,1.4,0.2c2.6,3.5,6.1,3.6,6.2,3.6
	c0.5,0,1,0.5,1,1C31,12.6,30.6,13,30,13z M30.6,20.2c-0.1-0.1-1.9-1.4-4.6-2.3c0-0.1,0-0.2,0-0.4c0-0.4-0.1-0.7-0.4-1
	C27.4,16,29,16,29,16c0.6,0,1-0.4,1-1c0-0.6-0.4-1-1-1c-0.2,0-5.5,0-8.7,3.3c-0.3,0.3-0.4,0.7-0.2,1.1c0.2,0.4,0.5,0.6,0.9,0.6
	c4.6,0,8.4,2.8,8.4,2.8c0.2,0.1,0.4,0.2,0.6,0.2c0.3,0,0.6-0.1,0.8-0.4C31.1,21.2,31,20.5,30.6,20.2z M15.7,17.3
	C12.5,14,7.2,14,7,14c-0.6,0-1,0.4-1,1c0,0.6,0.4,1,1,1c0,0,1.6,0,3.4,0.5c-0.2,0.3-0.4,0.6-0.4,1c0,0.1,0,0.2,0,0.4
	c-2.7,0.9-4.5,2.3-4.6,2.3c-0.4,0.3-0.5,1-0.2,1.4C5.4,21.9,5.7,22,6,22c0.2,0,0.4-0.1,0.6-0.2c0,0,3.8-2.8,8.4-2.8
	c0.4,0,0.8-0.2,0.9-0.6S16,17.6,15.7,17.3z"/>
</svg>
