<?xml version="1.0" encoding="utf-8"?>
<!-- Generator: Adobe Illustrator 23.0.1, SVG Export Plug-In . SVG Version: 6.00 Build 0)  -->
<svg version="1.1" xmlns="http://www.w3.org/2000/svg" xmlns:xlink="http://www.w3.org/1999/xlink" x="0px"
	 y="0px" viewBox="0 0 36 36" width="36px" height="36px" style="enable-background:new 0 0 36 36;" xml:space="preserve">
<ellipse transform="matrix(0.9659 -0.2588 0.2588 0.9659 -4.3454 1.9016)" fill="#D79E84" cx="5" cy="17.5" rx="3.8" ry="5.5"/>
<ellipse transform="matrix(0.2588 -0.9659 0.9659 0.2588 6.1539 42.9297)" fill="#D79E84" cx="31" cy="17.5" rx="5.5" ry="3.8"/>
<path fill="#BF6952" d="M19,36h-2c-6.7,0-13.2-5.2-13.2-12.4c0-4.1,1.5-6.2,1.5-6.2s-0.5-2.1-0.5-4.1C4.8,7.2,11.3,2,18,2
	s13.2,6.2,13.2,11.3c0,2.1-0.5,4.1-0.5,4.1s1.5,2.1,1.5,6.2C32.2,30.8,25.7,36,19,36z"/>
<path fill="#D79E84" d="M30,16c0-3.9-3.2-7-7.1-7C21,9,19.3,9.8,18,11c-1.3-1.2-3-2-4.9-2C9.2,9,6,12.2,6,16c0,2.4,1.2,4.4,3,5.7
	c-0.5,1.2-0.8,2.6-0.8,4c0,5.7,4.4,9.2,9.8,9.2s9.8-3.5,9.8-9.2c0-1.4-0.3-2.8-0.8-4C28.8,20.5,30,18.4,30,16z"/>
<path fill="#BF6952" d="M22.7,0.2c0,0-5.5-1.1-7.6,2.2s4.4,1.1,4.4,1.1S20.5,0.2,22.7,0.2z"/>
</svg>
