<?xml version="1.0" encoding="utf-8"?>
<!-- Generator: Adobe Illustrator 23.0.1, SVG Export Plug-In . SVG Version: 6.00 Build 0)  -->
<svg version="1.1" xmlns="http://www.w3.org/2000/svg" xmlns:xlink="http://www.w3.org/1999/xlink" x="0px"
	 y="0px" viewBox="0 0 36 36" width="36px" height="36px" style="enable-background:new 0 0 36 36;" xml:space="preserve">
<path fill="#664500" d="M31,16c-0.3,0-0.6-0.1-0.8-0.4C27.6,12.1,24.1,12,24,12c-0.5,0-1-0.5-1-1c0-0.6,0.4-1,1-1
	c0.2,0,4.5,0.1,7.8,4.4c0.3,0.4,0.2,1.1-0.2,1.4C31.4,15.9,31.2,16,31,16z M5,16c-0.2,0-0.4-0.1-0.6-0.2c-0.4-0.3-0.5-1-0.2-1.4
	C7.5,10,11.8,10,12,10c0.6,0,1,0.4,1,1c0,0.6-0.4,1-1,1c-0.2,0-3.6,0.1-6.2,3.6C5.6,15.9,5.3,16,5,16z M15.9,17.4
	c0-0.1,0.1-0.1,0.1-0.2c0.1-0.5-0.2-1.1-0.7-1.2c-0.2,0-4.5-1.1-7.8,1.1c-0.5,0.3-0.6,0.9-0.3,1.4C7.4,18.8,7.7,19,8,19
	c0.2,0,0.4-0.1,0.6-0.2c1.1-0.7,2.4-1,3.5-1.1c0,0.1,0,0.2,0,0.2c0,1.1,0.9,2,2,2s2-0.9,2-2C16,17.8,16,17.6,15.9,17.4z M27.9,17.4
	c0-0.1,0.1-0.1,0.1-0.2c0.1-0.5-0.2-1.1-0.7-1.2c-0.2,0-4.5-1.1-7.8,1.1c-0.5,0.3-0.6,0.9-0.3,1.4c0.2,0.3,0.5,0.4,0.8,0.4
	c0.2,0,0.4-0.1,0.6-0.2c1.1-0.7,2.4-1,3.5-1.1c0,0.1,0,0.1,0,0.2c0,1.1,0.9,2,2,2s2-0.9,2-2C28,17.8,28,17.6,27.9,17.4z"/>
</svg>
