<?xml version="1.0" encoding="utf-8"?>
<!-- Generator: Adobe Illustrator 23.0.1, SVG Export Plug-In . SVG Version: 6.00 Build 0)  -->
<svg version="1.1" xmlns="http://www.w3.org/2000/svg" xmlns:xlink="http://www.w3.org/1999/xlink" x="0px"
	 y="0px" viewBox="0 0 36 36" width="36px" height="36px" style="enable-background:new 0 0 36 36;" xml:space="preserve">
<ellipse fill="#664500" cx="11.5" cy="16.5" rx="2.5" ry="3.5"/>
<ellipse fill="#664500" cx="24.5" cy="16.5" rx="2.5" ry="3.5"/>
<path fill="#664500" d="M6,12c-0.2,0-0.4-0.1-0.6-0.2c-0.4-0.3-0.5-1-0.2-1.4C8.5,6,12.8,6,13,6c0.6,0,1,0.4,1,1c0,0.6-0.4,1-1,1
	c-0.2,0-3.6,0.1-6.2,3.6C6.6,11.9,6.3,12,6,12z M30,12c-0.3,0-0.6-0.1-0.8-0.4C26.6,8.1,23.1,8,23,8c-0.5,0-1-0.5-1-1
	c0-0.6,0.4-1,1-1c0.2,0,4.5,0.1,7.8,4.4c0.3,0.4,0.2,1.1-0.2,1.4C30.4,11.9,30.2,12,30,12z"/>
</svg>
