<?xml version="1.0" encoding="utf-8"?>
<!-- Generator: Adobe Illustrator 23.0.1, SVG Export Plug-In . SVG Version: 6.00 Build 0)  -->
<svg version="1.1" xmlns="http://www.w3.org/2000/svg" xmlns:xlink="http://www.w3.org/1999/xlink" x="0px"
	 y="0px" viewBox="0 0 36 36" width="36px" height="36px" style="enable-background:new 0 0 36 36;" xml:space="preserve">
<path fill="#F4900C" d="M13.4,23.2l-1.5-2.2c0,0-0.5-0.9-1.4-0.3c-0.9,0.5-0.3,1.4-0.3,1.4l1.8,3.4c0,0,0.1,0.8-0.9-0.1
	c-0.5-0.4-0.2-0.2-0.2-0.2l-0.4-0.4l-5.5-4.5c0,0-0.7-0.7-1.4,0c-0.6,0.8,0.2,1.3,0.2,1.3l5.2,4.3c-0.1,0.1-0.5,0.5-0.6,0.7L2.7,22
	c0,0-0.7-0.7-1.4,0c-0.6,0.8,0.2,1.3,0.2,1.3L7.1,28c-0.1,0.1-0.4,0.5-0.5,0.6l-4.8-3.9c0,0-0.7-0.7-1.4,0C-0.1,25.5,0.8,26,0.8,26
	l5.1,4.2c-0.1,0.2-0.4,0.6-0.4,0.8l-3.7-3c0,0-0.7-0.8-1.4,0c-0.6,0.8,0.2,1.3,0.2,1.3l5.9,4.9L7,34.6c2.6,2.2,6.5,1.8,8.6-0.8
	c2-2.4,1.8-5.9-0.2-8.1C14.6,24.9,14,24,13.4,23.2z M35.6,28.1c-0.6-0.8-1.4,0-1.4,0l-3.7,3c0-0.2-0.3-0.6-0.4-0.8l5.1-4.2
	c0,0,0.9-0.6,0.2-1.3c-0.6-0.8-1.4,0-1.4,0l-4.8,3.9c-0.1-0.1-0.4-0.5-0.5-0.6l5.6-4.6c0,0,0.9-0.5,0.2-1.3c-0.6-0.8-1.4,0-1.4,0
	l-5.6,4.6c-0.1-0.1-0.5-0.5-0.6-0.7l5.2-4.3c0,0,0.9-0.5,0.2-1.3c-0.6-0.8-1.4,0-1.4,0l-5.5,4.5l-0.4,0.4c0,0,1-0.8-0.2,0.2
	c-1.2,1-0.9,0.1-0.9,0.1l1.8-3.4c0,0,0.5-0.9-0.3-1.4c-0.9-0.5-1.4,0.3-1.4,0.3l-1.5,2.2c-0.6,0.9-1.2,1.8-2,2.5
	c-2.1,2.2-2.2,5.7-0.2,8.1c2.1,2.6,6,3,8.6,0.8l0.4-0.3l5.9-4.9C35.4,29.4,36.2,28.9,35.6,28.1z"/>
<path fill="#B55005" d="M11.2,25.5c0,0-2.6,3.3,0.5,7.5c0.2,0.3,0.8,0.1,0.5-0.2c-0.2-0.4-2.8-3.9-0.4-7.1
	C11.8,25.7,11.4,25.6,11.2,25.5z M24.8,25.6c0,0,2.6,3.3-0.5,7.5c-0.2,0.3-0.8,0.1-0.5-0.2c0.2-0.4,2.8-3.9,0.4-7.1
	C24.2,25.8,24.5,25.7,24.8,25.6z"/>
</svg>
