<?xml version="1.0" encoding="utf-8"?>
<!-- Generator: Adobe Illustrator 23.0.1, SVG Export Plug-In . SVG Version: 6.00 Build 0)  -->
<svg version="1.1" xmlns="http://www.w3.org/2000/svg" xmlns:xlink="http://www.w3.org/1999/xlink" x="0px"
	 y="0px" viewBox="0 0 36 36" width="36px" height="36px" style="enable-background:new 0 0 36 36;" xml:space="preserve">
<path fill="#664500" d="M11,6.1C8.8,6.7,7.5,8,7.5,8.1c-0.4,0.4-0.3,1,0.1,1.4C8,9.9,8.6,9.9,9,9.5C9,9.4,11.1,7.2,14.8,8
	c0.5,0.1,1.1-0.2,1.2-0.8c0.1-0.5-0.2-1.1-0.8-1.2C13.5,5.7,12.1,5.8,11,6.1z M25,6.1c-1.1-0.3-2.5-0.4-4.2-0.1
	c-0.5,0.1-0.9,0.6-0.8,1.2c0.1,0.5,0.6,0.9,1.2,0.8C25,7.2,27,9.4,27,9.5c0.4,0.4,1,0.4,1.4,0.1s0.5-1,0.1-1.4
	C28.5,8,27.2,6.7,25,6.1z"/>
</svg>
