<?xml version="1.0" encoding="utf-8"?>
<!-- Generator: Adobe Illustrator 23.0.1, SVG Export Plug-In . SVG Version: 6.00 Build 0)  -->
<svg version="1.1" id="レイヤー_1" xmlns="http://www.w3.org/2000/svg" xmlns:xlink="http://www.w3.org/1999/xlink" x="0px"
	 y="0px" viewBox="0 0 36 36" style="enable-background:new 0 0 36 36;" xml:space="preserve">
<style type="text/css">
	.st0{fill:#664500;}
	.st1{fill:#3B88C3;}
	.st2{fill:#88C9F9;}
	.st3{fill:#226699;}
</style>
<ellipse class="st0" cx="18" cy="26" rx="2" ry="2.5"/>
<path class="st1" d="M29.9,29.2l-10.6-1.3c-1.1-0.1-3.1-0.1-3-1.9c0.1-1.6,2-1.4,3.5-1.2l10.6,1.8L29.9,29.2z"/>
<path class="st2" d="M30.4,26.6l-4.2-0.7c-0.5-0.1-0.9,0.6-1,1.4c0,0.9,0.2,1.3,0.7,1.4l4.1,0.5C30.1,29.3,30.4,26.6,30.4,26.6z"/>
<path class="st1" d="M34.9,26.3l-2.6,2.4l-4.7-5.1l2.6-2.4c1.4-1.3,3.5-1.2,4.8,0.2l0.1,0.1C36.4,23,36.3,25.1,34.9,26.3z"/>
<ellipse transform="matrix(0.7361 -0.6768 0.6768 0.7361 -9.8333 27.1867)" class="st2" cx="30" cy="26.2" rx="2.8" ry="3.5"/>
<ellipse transform="matrix(0.7361 -0.6768 0.6768 0.7361 -9.8333 27.1867)" class="st3" cx="30" cy="26.2" rx="1.4" ry="2.1"/>
</svg>
