<?xml version="1.0" encoding="utf-8"?>
<!-- Generator: Adobe Illustrator 23.0.1, SVG Export Plug-In . SVG Version: 6.00 Build 0)  -->
<svg version="1.1" xmlns="http://www.w3.org/2000/svg" xmlns:xlink="http://www.w3.org/1999/xlink" x="0px"
	 y="0px" viewBox="0 0 36 36" width="36px" height="36px" style="enable-background:new 0 0 36 36;" xml:space="preserve">
<g>
	<ellipse fill="#292F33" cx="12" cy="14.5" rx="2" ry="3.5"/>
	<ellipse fill="#292F33" cx="24" cy="14.5" rx="2" ry="3.5"/>
	<path fill="#292F33" d="M21.1,13c-0.2-0.1-0.4-0.2-0.5-0.4c-0.2-0.5-0.1-1.1,0.4-1.4c4.8-3.1,8.6-2.1,8.8-2.1c0.5,0.1,0.8,0.7,0.6,1.2
		c-0.1,0.5-0.6,0.9-1.1,0.7c-0.1,0-3.3-0.8-7.4,1.9C21.6,13.1,21.4,13.1,21.1,13z M14.9,13c-0.2,0.1-0.5,0-0.7-0.1
		C10,10.3,6.8,11,6.8,11.1c-0.5,0.1-1-0.2-1.1-0.7s0.1-1.1,0.6-1.2c0.2,0,3.9-1,8.8,2.1c0.4,0.3,0.6,0.9,0.4,1.4
		C15.3,12.8,15.1,13,14.9,13z"/>
</g>
</svg>
