<?xml version="1.0" encoding="utf-8"?>
<!-- Generator: Adobe Illustrator 23.0.1, SVG Export Plug-In . SVG Version: 6.00 Build 0)  -->
<svg version="1.1" xmlns="http://www.w3.org/2000/svg" xmlns:xlink="http://www.w3.org/1999/xlink" x="0px"
	 y="0px" viewBox="0 0 36 36" width="36px" height="36px" style="enable-background:new 0 0 36 36;" xml:space="preserve">
<path fill="#664500" d="M17.3,16.6c-0.2-0.1-0.4-0.1-0.6,0c0,0-1.3,0.9-3.7,0.9c-2.4,0-3.7-0.9-3.7-0.9c-0.2-0.1-0.4-0.1-0.6,0
	c-0.2,0.1-0.2,0.4-0.1,0.6c0.1,0.1,1.5,3.3,4.5,3.3c3,0,4.4-3.2,4.5-3.3C17.5,17,17.5,16.8,17.3,16.6z M27.3,16.6
	c-0.2-0.1-0.4-0.1-0.6,0c0,0-1.3,0.9-3.7,0.9c-2.4,0-3.7-0.9-3.7-0.9c-0.2-0.1-0.4-0.1-0.6,0c-0.2,0.1-0.2,0.4-0.1,0.6
	c0.1,0.1,1.5,3.3,4.5,3.3c3,0,4.4-3.2,4.5-3.3C27.5,17,27.5,16.8,27.3,16.6z"/>
</svg>
