<?xml version="1.0" encoding="utf-8"?>
<!-- Generator: Adobe Illustrator 23.0.1, SVG Export Plug-In . SVG Version: 6.00 Build 0)  -->
<svg version="1.1" xmlns="http://www.w3.org/2000/svg" xmlns:xlink="http://www.w3.org/1999/xlink" x="0px"
	 y="0px" viewBox="0 0 36 36" width="36px" height="36px" style="enable-background:new 0 0 36 36;" xml:space="preserve">
<path fill="#F5F8FA" d="M27,22.1l9-4.1c0-0.7,0-1.3-0.1-2l-8.9,4V19c0-1.1-0.9-2-2-2H11c-1.1,0-2,0.9-2,2v1.1l-8.9-4
	C0,16.7,0,17.3,0,18l9,4.1v4.5l-7.5-1.4c0.3,0.8,0.7,1.5,1.2,2.2L9,28.6V30c0,1.1,0.9,2,2,2h14c1.1,0,2-0.9,2-2v-1.4l6.3-1.1
	c0.4-0.7,0.8-1.4,1.2-2.2L27,26.6V22.1z"/>
</svg>
