<?xml version="1.0" encoding="utf-8"?>
<!-- Generator: Adobe Illustrator 23.0.1, SVG Export Plug-In . SVG Version: 6.00 Build 0)  -->
<svg version="1.1" xmlns="http://www.w3.org/2000/svg" xmlns:xlink="http://www.w3.org/1999/xlink" x="0px"
	 y="0px" viewBox="0 0 36 36" width="36px" height="36px" style="enable-background:new 0 0 36 36;" xml:space="preserve">
<path fill="#664500" d="M26,19c-0.4,0-0.8-0.3-0.9-0.7C24.8,17.7,24,16,23,16c-1.1,0-1.9,1.8-2.1,2.3c-0.2,0.5-0.7,0.8-1.3,0.6
	c-0.5-0.2-0.8-0.7-0.6-1.3c0.1-0.4,1.3-3.7,3.9-3.7s3.8,3.3,3.9,3.7c0.2,0.5-0.1,1.1-0.6,1.3C26.2,19,26.1,19,26,19z M16,19
	c-0.4,0-0.8-0.3-0.9-0.7C14.8,17.7,14,16,13,16c-1.1,0-1.9,1.8-2.1,2.3c-0.2,0.5-0.7,0.8-1.3,0.6c-0.5-0.2-0.8-0.7-0.6-1.3
	C9.2,17.3,10.4,14,13,14s3.8,3.3,3.9,3.7c0.2,0.5-0.1,1.1-0.6,1.3C16.2,19,16.1,19,16,19z"/>
</svg>
