<?xml version="1.0" encoding="utf-8"?>
<!-- Generator: Adobe Illustrator 23.0.1, SVG Export Plug-In . SVG Version: 6.00 Build 0)  -->
<svg version="1.1" xmlns="http://www.w3.org/2000/svg" xmlns:xlink="http://www.w3.org/1999/xlink" x="0px"
	 y="0px" viewBox="0 0 36 36" width="36px" height="36px" style="enable-background:new 0 0 36 36;" xml:space="preserve">
<ellipse fill="#1C6399" cx="12" cy="15.2" rx="2.5" ry="3.5"/>
<ellipse fill="#1C6399" cx="24" cy="15.2" rx="2.5" ry="3.5"/>
<path fill="#1C6399" d="M6,11.4c-0.6,0-1-0.4-1-1c0-0.6,0.4-1,1-1c0.2,0,3.6-0.1,6.2-3.6c0.3-0.4,1-0.5,1.4-0.2c0.4,0.3,0.5,1,0.2,1.4
	C10.5,11.3,6.2,11.4,6,11.4z M30,11.4c-0.2,0-4.5-0.1-7.8-4.4c-0.3-0.4-0.2-1.1,0.2-1.4c0.4-0.3,1.1-0.2,1.4,0.2
	c2.6,3.5,6.1,3.6,6.2,3.6c0.5,0,1,0.5,1,1C31,10.9,30.5,11.4,30,11.4z"/>
</svg>
