<?xml version="1.0" encoding="utf-8"?>
<!-- Generator: Adobe Illustrator 23.0.1, SVG Export Plug-In . SVG Version: 6.00 Build 0)  -->
<svg version="1.1" xmlns="http://www.w3.org/2000/svg" xmlns:xlink="http://www.w3.org/1999/xlink" x="0px"
	 y="0px" viewBox="0 0 36 36" width="36px" height="36px" style="enable-background:new 0 0 36 36;" xml:space="preserve">
<ellipse fill="#664500" cx="12" cy="16.5" rx="2.5" ry="2.8"/>
<ellipse fill="#664500" cx="24" cy="16.5" rx="2.5" ry="3.5"/>
<path fill="#664500" d="M7.1,12.6c0.2,0.2,0.6,0.2,0.9,0.1c4.2-1.4,7,0.6,7.1,0.6c0.5,0.3,1.1,0.2,1.4-0.2s0.2-1.1-0.2-1.4
	c-0.1-0.1-3.7-2.6-8.9-0.9C6.8,11,6.6,11.5,6.7,12C6.8,12.3,6.9,12.4,7.1,12.6z"/>
<path fill="#664500" d="M30,10.4c-0.4,0-0.7-0.2-1-0.5c-1.4-1.8-4.3-3.3-5.3-3.3c-0.6,0-1.9,0.9-2.6,1.6c-0.5,0.5-1.3,0.5-1.8,0
	c-0.5-0.5-0.5-1.3,0-1.8c0.4-0.4,2.4-2.3,4.3-2.3c2,0,5.5,2.1,7.3,4.2c0.4,0.5,0.3,1.3-0.2,1.8C30.5,10.3,30.3,10.4,30,10.4z"/>
</svg>
