<?xml version="1.0" encoding="utf-8"?>
<!-- Generator: Adobe Illustrator 23.0.1, SVG Export Plug-In . SVG Version: 6.00 Build 0)  -->
<svg version="1.1" xmlns="http://www.w3.org/2000/svg" xmlns:xlink="http://www.w3.org/1999/xlink" x="0px"
	 y="0px" viewBox="0 0 36 36" width="36px" height="36px" style="enable-background:new 0 0 36 36;" xml:space="preserve">
<path fill="#664500" d="M23.5,29.4c0,0-1.1-2.9-5.5-2.9s-5.5,2.8-5.5,2.9c-0.1,0.2,0,0.4,0.2,0.5c0.2,0.1,0.4,0.1,0.6-0.1
	c0,0,1-0.9,4.7-0.9c3.6,0,4.6,0.8,4.7,0.9C22.8,30,22.9,30,23,30c0.1,0,0.2,0,0.2-0.1C23.4,29.8,23.5,29.6,23.5,29.4z"/>
<path fill="#CCD6DD" d="M35.5,15.7c-0.8-1.1-2.4-1.3-3.5-0.5L14.8,28.1c0.6-0.2,1.5-0.4,2.6-0.5c0.3,0,2.7-0.6,2.7-0.6l1.3,1
	c0,0,0.9,0.4,1.2,0.5L35,19.2C36.1,18.4,36.3,16.8,35.5,15.7z"/>
<path fill="#DA2F47" d="M28.7,20.9c-0.4-0.6-0.8-1.1-1.4-0.7l-9.9,7.4c0.3,0,0.5,0,0.8,0c1.4,0,2.4,0.2,3.2,0.5l7.6-5.7
	C29.5,21.9,29.1,21.5,28.7,20.9z"/>
<path fill="#67757F" d="M18.6,25.2l1.2,1.6l0.7-0.6l-1.2-1.6L18.6,25.2z M20.8,23.6l1.2,1.6l0.7-0.6L21.6,23L20.8,23.6z M23,21.9
	l1.2,1.6L25,23l-1.2-1.6L23,21.9z M25.2,20.3l1.2,1.6l0.7-0.6L26,19.7L25.2,20.3z M27.4,18.6l1.2,1.6l0.7-0.6l-1.2-1.6L27.4,18.6z
	 M29.6,17l1.2,1.6l0.7-0.6l-1.2-1.6L29.6,17z"/>
<path fill="#452E04" d="M22.5,28.6l0.8,0.5c0,0-0.2-0.4-0.5-0.7C22.8,28.4,22.5,28.6,22.5,28.6z"/>
</svg>
