<?xml version="1.0" encoding="utf-8"?>
<!-- Generator: Adobe Illustrator 23.0.1, SVG Export Plug-In . SVG Version: 6.00 Build 0)  -->
<svg version="1.1" id="レイヤー_1" xmlns="http://www.w3.org/2000/svg" xmlns:xlink="http://www.w3.org/1999/xlink" x="0px"
	 y="0px" viewBox="0 0 36 36" style="enable-background:new 0 0 36 36;" xml:space="preserve">
<style type="text/css">
	.st0{fill:#FFAC33;}
	.st1{fill:#FFCC4D;}
</style>
<path class="st0" d="M17.4,33.1c-0.1-0.2-0.2-0.3-0.4-0.4C15.4,31,16.5,29,16.5,29c0-0.6,1-2,0-2l-1,1c-1,1-1,4-1,4h-2
	c-0.6,0-1,0.4-1,1s0.4,1,1,1h1.1l-0.2,0.1c-0.5,0.3-0.7,0.9-0.4,1.4s0.9,0.7,1.4,0.4l2.6-1.4C17.5,34.2,17.6,33.6,17.4,33.1z
	 M23.5,32h-2c0,0,0-3-1-4l-1-1c-1,0,0,1.4,0,2c0,0,1.1,2-0.5,3.7c-0.2,0.1-0.3,0.2-0.4,0.4c-0.3,0.5-0.1,1.1,0.4,1.4l2.6,1.4
	c0.5,0.3,1.1,0.1,1.4-0.4s0.1-1.1-0.4-1.4L22.4,34h1.1c0.6,0,1-0.4,1-1S24.1,32,23.5,32z"/>
<path class="st1" d="M34,24c-1-2-3-5-4-10h0c0-0.1,0-0.1,0-0.2C30,7.9,25.7,3,20,2c1.2-0.3,2-0.5,1-1c-1.1-0.6-2.2,0.1-3,0.8h0
	c-0.8-0.7-1.9-1.4-3-0.8c-1,0.5-0.2,0.8,1,1C10.3,3,6,7.9,6,13.8c0,0.1,0,0.1,0,0.2h0c-1,5-3,8-4,10c-0.4,0.9,0,3,2,2
	c1.2-0.6,2.4-1.9,3.4-3.7C8.9,26.9,12.1,31,18,31s9.1-4.1,10.6-8.7c1,1.8,2.2,3.1,3.4,3.7C34,27,34.4,24.9,34,24z"/>
</svg>
