<?xml version="1.0" encoding="utf-8"?>
<!-- Generator: Adobe Illustrator 23.0.1, SVG Export Plug-In . SVG Version: 6.00 Build 0)  -->
<svg version="1.1" id="レイヤー_1" xmlns="http://www.w3.org/2000/svg" xmlns:xlink="http://www.w3.org/1999/xlink" x="0px"
	 y="0px" viewBox="0 0 36 36" style="enable-background:new 0 0 36 36;" xml:space="preserve">
<style type="text/css">
	.st0{fill:#65471B;}
	.st1{fill:#E8596E;}
	.st2{fill:#DD2F45;}
</style>
<path class="st0" d="M7,21.3c0,4,4.6,9,11,9s11-5,11-9C29,21.3,18.7,24,7,21.3z"/>
<path class="st1" d="M18.5,23.6l-1.1,0C14.2,23.5,12,23,12,23v7c0,3,2,6,6,6s6-3,6-6V23C22.1,23.4,20.2,23.6,18.5,23.6z"/>
<path class="st2" d="M18,31.8c0.3,0,0.5-0.2,0.5-0.5v-7.7l-1.1,0v7.7C17.5,31.6,17.7,31.8,18,31.8z"/>
</svg>
