<?xml version="1.0" encoding="utf-8"?>
<!-- Generator: Adobe Illustrator 23.0.1, SVG Export Plug-In . SVG Version: 6.00 Build 0)  -->
<svg version="1.1" id="レイヤー_1" xmlns="http://www.w3.org/2000/svg" xmlns:xlink="http://www.w3.org/1999/xlink" x="0px"
	 y="0px" viewBox="0 0 36 36" width="36px" height="36px" style="enable-background:new 0 0 36 36;" xml:space="preserve">
<path fill="#642116" d="M30.2,24.4c0-0.1-0.1-0.1-0.2-0.1h-0.8c-0.1,0-0.1,0-0.2,0.1l-2.2,2.3L24,24.5c-0.1,0-0.1-0.1-0.2-0.1
	c-0.1,0-0.1,0-0.2,0.1l-2.4,3.1l-3.1-3.3c0,0,0,0,0,0c0,0,0,0,0,0c0,0,0,0,0,0c0,0,0,0-0.1,0s0,0-0.1,0c0,0,0,0,0,0c0,0,0,0,0,0
	c0,0,0,0,0,0l-3.1,3.3l-2.4-3.1c0-0.1-0.1-0.1-0.2-0.1c-0.1,0-0.1,0-0.2,0.1l-2.7,2.2l-2.2-2.3c0,0-0.1-0.1-0.2-0.1H6.1
	c-0.1,0-0.2,0-0.2,0.1s0,0.2,0,0.2l2.8,5.2c0,0.1,0.1,0.1,0.2,0.1s0.1,0,0.2,0l2-1.5l3,3.6c0,0.1,0.1,0.1,0.2,0.1l0,0
	c0.1,0,0.1,0,0.2-0.1l3.7-3.3l3.6,3.3c0,0,0.1,0.1,0.2,0.1l0,0c0.1,0,0.1,0,0.2-0.1l3-3.6l2,1.5c0.1,0,0.1,0.1,0.2,0
	c0.1,0,0.1-0.1,0.2-0.1l2.8-5.2C30.2,24.5,30.2,24.4,30.2,24.4z"/>
</svg>
