<?xml version="1.0" encoding="utf-8"?>
<!-- Generator: Adobe Illustrator 23.0.1, SVG Export Plug-In . SVG Version: 6.00 Build 0)  -->
<svg version="1.1" xmlns="http://www.w3.org/2000/svg" xmlns:xlink="http://www.w3.org/1999/xlink" x="0px"
	 y="0px" viewBox="0 0 36 36" width="36px" height="36px" style="enable-background:new 0 0 36 36;" xml:space="preserve">
<path fill="#664500" d="M18,22c-3.6,0-6-0.4-9-1c-0.7-0.1-2,0-2,2c0,4,4.6,9,11,9c6.4,0,11-5,11-9c0-2-1.3-2.1-2-2
	C24,21.6,21.6,22,18,22z"/>
<path fill="#FFFFFF" d="M9,23c0,0,3,1,9,1s9-1,9-1s-1.3,6.8-9,6.8S9,23,9,23z"/>
<path fill="#664500" d="M18,27.6c-3.6,0-6.3-0.4-7.9-0.7L9.2,25c0.8,0.3,3.9,0.9,8.8,0.9c5,0,8-0.6,8.9-0.9l-0.7,1.8
	C24.5,27.2,21.7,27.6,18,27.6z"/>
</svg>
