<?xml version="1.0" encoding="utf-8"?>
<!-- Generator: Adobe Illustrator 23.0.1, SVG Export Plug-In . SVG Version: 6.00 Build 0)  -->
<svg version="1.1" xmlns="http://www.w3.org/2000/svg" xmlns:xlink="http://www.w3.org/1999/xlink" x="0px"
	 y="0px" viewBox="0 0 36 36" width="36px" height="36px" style="enable-background:new 0 0 36 36;" xml:space="preserve">
<path fill="#664500" d="M29.5,23.5c0.3-0.7,0.5-1.3,0.5-1.3c0.1-0.5-0.2-1.1-0.7-1.2c-0.5-0.1-1.1,0.2-1.2,0.7C28,22.1,26.1,29,18,29
	S8,22.1,8,21.8c-0.1-0.5-0.7-0.9-1.2-0.7c-0.5,0.1-0.9,0.7-0.7,1.2c0,0.1,2.3,8.8,12,8.8c1.6,0,3.1-0.3,4.3-0.7
	C26.6,28.9,28.7,25.4,29.5,23.5z"/>
<path fill="#E75A70" d="M33.2,27.3l-3.7-3.8c-0.8,1.9-2.9,5.3-7.2,6.8L26,34c1.7,1.7,5,2,7,0S34.9,29,33.2,27.3z"/>
</svg>
