<?xml version="1.0" encoding="utf-8"?>
<!-- Generator: Adobe Illustrator 23.0.1, SVG Export Plug-In . SVG Version: 6.00 Build 0)  -->
<svg version="1.1" id="レイヤー_1" xmlns="http://www.w3.org/2000/svg" xmlns:xlink="http://www.w3.org/1999/xlink" x="0px"
	 y="0px" viewBox="0 0 36 36" style="enable-background:new 0 0 36 36;" xml:space="preserve">
<style type="text/css">
	.st0{fill:#664500;}
	.st1{fill:#FFFFFF;}
</style>
<path class="st0" d="M18,29c-3.6,0-6,0.4-9,1c-0.7,0.1-2,0-2-2c0-4,4.6-9,11-9c6.4,0,11,5,11,9c0,2-1.3,2.1-2,2
	C24,29.4,21.6,29,18,29z"/>
<path class="st1" d="M10,25c0,0,3-1,8-1s8,1,8,1s-2-4-8-4S10,25,10,25z"/>
</svg>
