<?xml version="1.0" encoding="utf-8"?>
<!-- Generator: Adobe Illustrator 23.0.1, SVG Export Plug-In . SVG Version: 6.00 Build 0)  -->
<svg version="1.1" xmlns="http://www.w3.org/2000/svg" xmlns:xlink="http://www.w3.org/1999/xlink" x="0px"
	 y="0px" viewBox="0 0 36 36" width="36px" height="36px" style="enable-background:new 0 0 36 36;" xml:space="preserve">
<path fill="#664500" d="M7,21.3c0,4,4.6,9,11,9s11-5,11-9C29,21.3,18.7,24,7,21.3z"/>
<path fill="#5D9040" d="M12,23v7c0,3,2,6,6,6s6-3,6-6V23C17.7,24.3,12,23,12,23z"/>
<path fill="#FFFFFF" d="M21,31.1c0-1.4-1.4-1.9-2.5-2.3c-0.7-0.3-1.4-0.6-1.4-0.9c0-0.6,0.9-0.7,1-0.7c0.6,0,0.9,0.2,1.2,0.4
	c0.2,0.2,0.4,0.3,0.7,0.3c0.5,0,0.8-0.4,0.8-0.7c0-0.7-0.9-1.2-1.8-1.4v-0.4c0-0.5-0.4-0.9-0.9-0.9s-0.9,0.4-0.9,0.9v0.4
	c-1.1,0.3-1.8,1.1-1.8,2.2c0,1.3,1.3,1.8,2.4,2.3c0.8,0.3,1.5,0.6,1.5,1.1c0,0.4-0.4,0.7-1.2,0.7c-0.7,0-1.1-0.3-1.5-0.6
	c-0.3-0.2-0.5-0.3-0.8-0.3c-0.4,0-0.7,0.4-0.7,0.8c0,0.7,0.9,1.3,2.1,1.6V34c0,0.5,0.4,0.9,0.9,0.9c0.5,0,0.9-0.4,0.9-0.9l0-0.5
	C20.2,33.2,21,32.3,21,31.1z"/>
</svg>
