<?xml version="1.0" encoding="utf-8"?>
<!-- Generator: Adobe Illustrator 23.0.1, SVG Export Plug-In . SVG Version: 6.00 Build 0)  -->
<svg version="1.1" xmlns="http://www.w3.org/2000/svg" xmlns:xlink="http://www.w3.org/1999/xlink" x="0px"
	 y="0px" viewBox="0 0 36 36" width="36px" height="36px" style="enable-background:new 0 0 36 36;" xml:space="preserve">
<path fill="#65471B" d="M18,27.1c3.3,0,5.5,0.4,8.3,0.9c0.6,0.1,1.8,0,1.8-1.8c0-3.7-4.2-8.3-10.1-8.3S7.9,22.5,7.9,26.2
	c0,1.8,1.2,2,1.8,1.8C12.5,27.5,14.7,27.1,18,27.1z"/>
<path fill="#77AF57" d="M25.7,32.3v-7.1c0-2.6-3.9-5.2-7.8-5.2s-7.8,2.6-7.8,5.2v7.1c-4.4,0.3-7.4,1-7.4,1.7c0,1.1,6.8,2,15.1,2
	s15.1-0.9,15.1-2C33.1,33.3,30.1,32.6,25.7,32.3z"/>
<circle fill="#5D8F3F" cx="15.9" cy="23.2" r="1.2"/>
<circle fill="#5D8F3F" cx="20.7" cy="25.6" r="1.2"/>
<ellipse fill="#5D8F3F" cx="21.2" cy="30.5" rx="1.2" ry="1.2"/>
<ellipse fill="#5D8F3F" cx="15.1" cy="32.5" rx="1.8" ry="1.8"/>
</svg>
