<?xml version="1.0" encoding="utf-8"?>
<!-- Generator: Adobe Illustrator 23.0.1, SVG Export Plug-In . SVG Version: 6.00 Build 0)  -->
<svg version="1.1" xmlns="http://www.w3.org/2000/svg" xmlns:xlink="http://www.w3.org/1999/xlink" x="0px"
	 y="0px" viewBox="0 0 36 36" width="36px" height="36px" style="enable-background:new 0 0 36 36;" xml:space="preserve">
<path fill="#65471B" d="M19.3,19.3c-3.5,3.5-6.2,5.4-9.6,7.7c-0.8,0.5-1.9,1.9,0,3.9c3.9,3.9,13.1,4.2,19.3-1.9
	c6.2-6.2,5.8-15.4,1.9-19.3c-1.9-1.9-3.3-0.8-3.9,0C24.7,13.1,22.8,15.8,19.3,19.3z"/>
<path fill="#FFFFFF" d="M11.6,28.9c0,0,3.9-1.9,9.6-7.7c5.8-5.8,7.7-9.6,7.7-9.6s1.9,5.8-4.8,12.5C17.4,30.9,11.6,28.9,11.6,28.9z"/>
</svg>
