<?xml version="1.0" encoding="utf-8"?>
<!-- Generator: Adobe Illustrator 23.0.1, SVG Export Plug-In . SVG Version: 6.00 Build 0)  -->
<svg version="1.1" xmlns="http://www.w3.org/2000/svg" xmlns:xlink="http://www.w3.org/1999/xlink" x="0px"
	 y="0px" viewBox="0 0 36 36" width="36px" height="36px" style="enable-background:new 0 0 36 36;" xml:space="preserve">
<path fill="#664500" d="M23.2,29.5c-1,0-2-0.5-2.8-1.3c-2.8-3-3.6-2.3-4.8-1.3c-0.8,0.7-1.8,1.5-3.2,1.5c-2.4,0-4-2.3-4-2.4
	C8,25.6,8.1,25,8.6,24.7c0.5-0.3,1.1-0.2,1.4,0.3c0.3,0.4,1.3,1.5,2.4,1.5c0.7,0,1.3-0.5,1.9-1c1.8-1.6,3.8-2.7,7.6,1.4
	c0.8,0.9,1.5,0.8,1.9,0.6c1.7-0.7,3.2-3.7,3.2-5.1c0-0.6,0.4-1,1-1h0c0.5,0,1,0.4,1,1c0,2.1-1.9,6-4.5,7
	C24.1,29.4,23.6,29.5,23.2,29.5z"/>
</svg>
