<?xml version="1.0" encoding="utf-8"?>
<!-- Generator: Adobe Illustrator 23.0.1, SVG Export Plug-In . SVG Version: 6.00 Build 0)  -->
<svg version="1.1" xmlns="http://www.w3.org/2000/svg" xmlns:xlink="http://www.w3.org/1999/xlink" x="0px"
	 y="0px" viewBox="0 0 36 36" width="36px" height="36px" style="enable-background:new 0 0 36 36;" xml:space="preserve">
<g>
	<path fill="#664500" d="M13,25c0,0,1,4,5,4s5-4,5-4s-1,1-5,1S13,25,13,25z"/>
	<path fill="#664500" d="M18,29.5c-4.3,0-5.5-4.3-5.5-4.4c-0.1-0.2,0-0.4,0.2-0.6c0.2-0.1,0.4-0.1,0.6,0.1c0,0,1.1,0.9,4.7,0.9
		c3.6,0,4.6-0.9,4.7-0.9c0.2-0.1,0.4-0.2,0.6-0.1c0.2,0.1,0.3,0.3,0.2,0.5C23.5,25.2,22.3,29.5,18,29.5z M13.9,26
		c0.6,1.1,1.8,2.5,4.1,2.5s3.5-1.4,4.1-2.5c-0.8,0.3-2.1,0.5-4.1,0.5S14.8,26.3,13.9,26z M13,25L13,25L13,25z"/>
</g>
</svg>
