<?xml version="1.0" encoding="utf-8"?>
<!-- Generator: Adobe Illustrator 23.0.1, SVG Export Plug-In . SVG Version: 6.00 Build 0)  -->
<svg version="1.1" id="レイヤー_1" xmlns="http://www.w3.org/2000/svg" xmlns:xlink="http://www.w3.org/1999/xlink" x="0px"
	 y="0px" viewBox="0 0 36 36" style="enable-background:new 0 0 36 36;" xml:space="preserve">
<style type="text/css">
	.st0{fill:#F4ABBA;}
	.st1{fill:#EA596E;}
</style>
<path class="st0" d="M34.2,13.3c0.4-0.4,0.7-0.8,1-1.3c1.7-2.9,0.3-10.3-0.6-10.8c-0.7-0.4-5.5,1-8.2,3.1C23.9,2.9,21,2,18,2
	c-3,0-5.9,0.9-8.3,2.4C6.9,2.3,2.1,0.8,1.4,1.2C0.6,1.8-0.9,9.2,0.8,12c0.3,0.5,0.6,0.9,1,1.2C0.7,15.8,0,18.6,0,21.5
	C0,31.5,8,34,18,34s18-2.5,18-12.5C36,18.7,35.3,15.9,34.2,13.3z"/>
<path class="st1" d="M7.4,6C5.2,4.7,3,3.9,2.6,4.1c-0.6,0.3-1.1,5-0.4,8.3C3.5,9.9,5.3,7.7,7.4,6z"/>
<path class="st1" d="M33.8,12.4c0.7-3.3,0.2-7.9-0.4-8.3C33,3.9,30.8,4.7,28.6,6C30.7,7.7,32.5,9.9,33.8,12.4z"/>
</svg>
